<?xml version="1.0" encoding="utf-8"?>
<!-- Generator: Adobe Illustrator 16.0.0, SVG Export Plug-In . SVG Version: 6.00 Build 0)  -->
<!DOCTYPE svg PUBLIC "-//W3C//DTD SVG 1.1//EN" "http://www.w3.org/Graphics/SVG/1.1/DTD/svg11.dtd">
<svg version="1.1" id="Layer_1" xmlns="http://www.w3.org/2000/svg" xmlns:xlink="http://www.w3.org/1999/xlink" x="0px" y="0px"
	 width="235.888px" height="102.92px" viewBox="0 0 235.888 102.92" enable-background="new 0 0 235.888 102.92"
	 xml:space="preserve">
<g>
	<g>
		<path fill-rule="evenodd" clip-rule="evenodd" fill="#000000" d="M123.562,99.57c-1.068-1.044-0.658-2.394-0.661-3.623
			c-0.022-15.293-0.006-30.588-0.019-45.881c-0.006-7.471-2.511-9.879-9.958-9.711c-5.228,0.119-10.002,1.988-14.772,3.879
			c-1.25,0.494-2.475,1.055-3.774,1.611c-1.001-4.314,0.235-7.765,2.611-11.118c10.481-14.79,31.25-16.781,43.114-4.033
			c3.821,4.109,6.212,9.126,6.41,14.614c0.643,18.052,0.561,36.121,0.07,54.183c-2.294,0.974-8.983,1.459-11.322,1.412
			C129.936,100.79,128.869,100.492,123.562,99.57z"/>
		<g>
			<path fill-rule="evenodd" clip-rule="evenodd" fill="#000000" d="M37.081,16.766c0,19.125,0,37.757,0,56.387
				c0,3.59,0.21,7.195-0.066,10.759c-0.216,2.774,0.927,3.843,3.351,4.534c6.296,1.795,6.366,2.08,5.865,8.673
				c-0.11,1.444-0.491,2.049-1.985,2.045c-6.616-0.019-13.232-0.029-19.847-0.027c-6.61,0-13.222,0.01-19.831,0.031
				c-1.651,0.005-2.266-0.732-2.242-2.278c0.004-0.231-0.023-0.462-0.04-0.693C1.861,90.58,1.859,90.58,7.086,88.8
				c5.747-1.956,5.748-1.956,5.748-7.903c0-11.576,0-23.151,0-34.726c-0.001-5.313-0.82-6.21-6.09-6.993
				c-1.401-0.208-3.5,0.634-4.055-0.932c-0.707-1.996-0.571-4.314-0.688-6.501c-0.055-1.023,0.944-1.217,1.642-1.501
				C14.612,25.807,25.591,21.393,37.081,16.766z"/>
			<path fill-rule="evenodd" clip-rule="evenodd" fill="#000000" d="M75.563,99.353c-1.068-1.042-0.658-2.385-0.661-3.608
				c-0.024-15.254-0.004-30.505-0.019-45.757c-0.006-7.451-2.511-9.85-9.96-9.684c-5.226,0.118-10,1.983-14.771,3.869
				c-1.249,0.493-2.472,1.052-3.771,1.607c-1.001-4.303,0.232-7.743,2.608-11.087c10.481-14.75,31.252-16.735,43.114-4.021
				c3.823,4.096,6.213,9.1,6.41,14.574c0.643,17.999,0.562,36.018,0.071,54.03c-2.293,0.97-10.288,1.459-12.627,1.41
				C80.631,100.573,80.871,100.275,75.563,99.353z"/>
			<path fill-rule="evenodd" clip-rule="evenodd" fill="#000000" d="M98.583,98.247"/>
			<path fill-rule="evenodd" clip-rule="evenodd" fill="#000000" d="M75.563,98.322"/>
		</g>
		<g>
			<g>
				<path fill="#000000" d="M233.512,65.474c0,20.544-12.189,35.336-31.912,34.788c-9.451-0.411-16.162-5.067-20.682-11.094
					c-2.465,3.561-8.766,11.094-13.696,11.094c-2.603,0-5.615-0.411-6.711-3.835c-0.959-3.15-0.411-18.627-0.411-28.214V39.587
					c0-9.587-0.137-14.107-2.603-17.531c-3.561-4.931-4.52-6.711-4.383-9.176c0.274-2.876,2.191-4.657,6.438-6.026
					c4.109-1.37,12.189-3.698,13.696-4.246c7.807-2.191,11.916,1.507,11.916,9.313c0,2.603,0,13.285,0,25.201
					c4.108-3.698,9.587-6.163,16.436-6.3C221.323,30.137,233.512,44.929,233.512,65.474z M208.037,65.474
					c0-12.053-4.246-20.818-12.601-20.818c-8.492,0-12.738,8.766-12.738,20.818s4.246,20.955,12.738,20.955
					C203.792,86.429,208.037,77.526,208.037,65.474z"/>
			</g>
		</g>
	</g>
	<ellipse fill="#000000" cx="24.381" cy="98.726" rx="21.302" ry="1.68"/>
</g>
</svg>
