<?xml version="1.0" encoding="utf-8"?>
<!-- Generator: Adobe Illustrator 16.0.0, SVG Export Plug-In . SVG Version: 6.00 Build 0)  -->
<!DOCTYPE svg PUBLIC "-//W3C//DTD SVG 1.1//EN" "http://www.w3.org/Graphics/SVG/1.1/DTD/svg11.dtd">
<svg version="1.1" id="Layer_1" xmlns="http://www.w3.org/2000/svg" xmlns:xlink="http://www.w3.org/1999/xlink" x="0px" y="0px"
	 width="175.03px" height="81.2px" viewBox="0 0 175.03 81.2" enable-background="new 0 0 175.03 81.2" xml:space="preserve">
<g>
	<path fill="#000000" d="M93.651,40.472c0-12.699,0.056-25.398-0.056-38.097C93.577,0.337,94.187-0.011,96.055,0
		c13.404,0.081,26.809-0.037,40.213,0.072c8.682,0.07,16.394,3.23,23.084,8.571c6.717,5.362,11.738,12.186,13.896,20.575
		c3.659,14.227,1.107,27.164-8.845,38.423c-5.825,6.589-13.113,10.508-21.424,12.763c-1.843,0.501-3.821,0.696-5.739,0.704
		c-13.707,0.058-27.414-0.029-41.12,0.092c-2.192,0.019-2.539-0.605-2.521-2.631C93.703,65.871,93.651,53.171,93.651,40.472z"/>
	<path fill="#000000" d="M0.194,81.06C13.757,53.928,27.188,27.062,40.842-0.253C54.457,26.967,67.962,53.97,81.511,81.06
		C54.431,81.06,27.498,81.06,0.194,81.06z"/>
</g>
</svg>
