<?xml version="1.0" encoding="utf-8"?>
<!-- Generator: Adobe Illustrator 16.0.0, SVG Export Plug-In . SVG Version: 6.00 Build 0)  -->
<!DOCTYPE svg PUBLIC "-//W3C//DTD SVG 1.1//EN" "http://www.w3.org/Graphics/SVG/1.1/DTD/svg11.dtd">
<svg version="1.1" id="Layer_1" xmlns="http://www.w3.org/2000/svg" xmlns:xlink="http://www.w3.org/1999/xlink" x="0px" y="0px"
	 width="567.834px" height="116.589px" viewBox="0 0 567.834 116.589" enable-background="new 0 0 567.834 116.589"
	 xml:space="preserve">
<g>
	<g>
		<path fill="#000000" d="M24.669,45.695c-3.423-1.937-7.676-0.897-9.497,2.32L0.823,73.384c-1.82,3.218-0.519,7.396,2.905,9.335
			l2.943,1.665c3.424,1.936,7.678,0.897,9.499-2.321l14.348-25.368c1.821-3.218,0.519-7.396-2.906-9.335L24.669,45.695z"/>
		<path fill="#000000" d="M103.839,31.652c-3.424-1.936-7.678-0.896-9.498,2.321L79.99,59.342c-1.82,3.219-0.519,7.399,2.906,9.335
			l2.942,1.665c3.426,1.939,7.68,0.896,9.5-2.322l14.348-25.367c1.821-3.219,0.52-7.396-2.905-9.336L103.839,31.652z"/>
		<path fill="#000000" d="M56.683,2.667c-3.412,1.96-4.687,6.148-2.846,9.353l14.515,25.275c1.841,3.207,6.101,4.216,9.512,2.26
			l2.932-1.686c3.414-1.96,4.686-6.147,2.845-9.355L69.125,3.242c-1.841-3.209-6.099-4.22-9.513-2.26L56.683,2.667z"/>
		<path fill="#000000" d="M103.025,86.789c-0.054-3.932-3.093-7.082-6.79-7.033l-29.144,0.391c-3.698,0.049-6.651,3.281-6.6,7.215
			l0.046,3.379c0.054,3.934,3.094,7.086,6.791,7.035l29.145-0.391c3.696-0.05,6.649-3.281,6.597-7.215L103.025,86.789z"/>
		<path fill="#000000" d="M30.293,78.687c-3.411,1.96-4.687,6.147-2.845,9.355l14.515,25.275c1.841,3.204,6.102,4.216,9.514,2.255
			l2.93-1.682c3.412-1.959,4.686-6.146,2.845-9.355L42.738,79.26c-1.843-3.204-6.101-4.215-9.514-2.255L30.293,78.687z"/>
		<path fill="#000000" d="M50.488,25.78c-0.054-3.934-3.093-7.087-6.792-7.035l-29.141,0.392c-3.698,0.049-6.651,3.28-6.598,7.215
			l0.044,3.379c0.054,3.934,3.093,7.087,6.789,7.035l29.144-0.392c3.698-0.048,6.652-3.28,6.598-7.214L50.488,25.78z"/>
	</g>
	<g>
		<path fill="#000000" d="M163.109,97.778h-16.304V17.481h16.525V47.87c1.256-1.848,3.327-3.4,6.211-4.658
			c2.883-1.256,6.136-1.886,9.76-1.886c7.836,0,14.066,2.681,18.688,8.041c4.62,5.362,6.932,12.255,6.932,20.684
			c0,8.429-2.459,15.361-7.375,20.795c-4.918,5.435-11.221,8.152-18.91,8.152c-3.549,0-6.692-0.685-9.427-2.052
			c-2.736-1.367-4.769-3.161-6.1-5.379V97.778z M188.063,70.162c0-4.436-1.184-7.819-3.549-10.148
			c-2.367-2.329-5.323-3.494-8.873-3.494c-3.549,0-6.526,1.165-8.928,3.494c-2.404,2.329-3.604,5.712-3.604,10.148
			c0,4.364,1.22,7.747,3.66,10.148c2.44,2.403,5.396,3.604,8.873,3.604c3.475,0,6.414-1.201,8.817-3.604
			C186.861,77.909,188.063,74.526,188.063,70.162z"/>
		<path fill="#000000" d="M232.647,97.778H215.79V17.481h16.858V97.778z"/>
		<path fill="#000000" d="M272.796,40.994c8.354,0,15.323,2.736,20.906,8.207c5.582,5.473,8.374,12.46,8.374,20.961
			c0,8.504-2.792,15.51-8.374,21.017c-5.583,5.509-12.552,8.263-20.906,8.263c-8.282,0-15.232-2.772-20.851-8.318
			c-5.62-5.545-8.429-12.533-8.429-20.962c0-8.429,2.809-15.397,8.429-20.906C257.563,43.749,264.514,40.994,272.796,40.994z
			 M272.796,83.915c3.475,0,6.414-1.182,8.817-3.549c2.402-2.365,3.604-5.767,3.604-10.204c0-4.436-1.203-7.819-3.604-10.148
			c-2.403-2.329-5.342-3.494-8.817-3.494c-3.402,0-6.322,1.184-8.762,3.549c-2.44,2.367-3.66,5.73-3.66,10.092
			c0,4.364,1.22,7.747,3.66,10.148C266.474,82.714,269.394,83.915,272.796,83.915z"/>
		<path fill="#000000" d="M308.397,82.14l14.307-2.551c0.147,2.071,0.942,3.827,2.384,5.268c1.442,1.442,3.53,2.163,6.266,2.163
			c2.069,0,3.66-0.461,4.769-1.387c1.109-0.923,1.664-2.052,1.664-3.382c0-2.218-1.813-3.733-5.434-4.547l-6.322-1.442
			c-5.62-1.182-9.76-3.272-12.422-6.266c-2.662-2.995-3.993-6.561-3.993-10.703c0-5.102,2.014-9.427,6.044-12.976
			c4.029-3.549,9.076-5.324,15.139-5.324c7.171,0,12.55,1.719,16.137,5.157c3.585,3.438,5.563,7.191,5.934,11.257l-13.974,2.551
			c-0.222-1.997-0.981-3.622-2.274-4.88c-1.294-1.257-3.161-1.886-5.601-1.886c-1.627,0-3.033,0.444-4.214,1.331
			c-1.184,0.887-1.775,2.034-1.775,3.438c0,2.218,1.442,3.587,4.326,4.104l7.32,1.442c5.545,1.109,9.76,3.216,12.644,6.322
			c2.883,3.105,4.325,6.765,4.325,10.98c0,5.102-1.923,9.482-5.767,13.143c-3.845,3.66-9.244,5.49-16.192,5.49
			c-4.067,0-7.672-0.593-10.813-1.774c-3.144-1.182-5.545-2.717-7.209-4.603c-1.664-1.886-2.922-3.752-3.771-5.601
			C309.043,85.617,308.544,83.842,308.397,82.14z"/>
		<path fill="#000000" d="M360.079,82.14l14.307-2.551c0.147,2.071,0.942,3.827,2.384,5.268c1.442,1.442,3.53,2.163,6.266,2.163
			c2.069,0,3.66-0.461,4.769-1.387c1.109-0.923,1.664-2.052,1.664-3.382c0-2.218-1.813-3.733-5.434-4.547l-6.322-1.442
			c-5.62-1.182-9.76-3.272-12.422-6.266c-2.662-2.995-3.993-6.561-3.993-10.703c0-5.102,2.014-9.427,6.044-12.976
			c4.029-3.549,9.076-5.324,15.139-5.324c7.171,0,12.55,1.719,16.137,5.157c3.585,3.438,5.563,7.191,5.934,11.257l-13.974,2.551
			c-0.222-1.997-0.981-3.622-2.274-4.88c-1.294-1.257-3.161-1.886-5.601-1.886c-1.627,0-3.033,0.444-4.214,1.331
			c-1.184,0.887-1.775,2.034-1.775,3.438c0,2.218,1.442,3.587,4.326,4.104l7.32,1.442c5.545,1.109,9.76,3.216,12.644,6.322
			c2.883,3.105,4.325,6.765,4.325,10.98c0,5.102-1.923,9.482-5.767,13.143c-3.845,3.66-9.244,5.49-16.192,5.49
			c-4.067,0-7.672-0.593-10.813-1.774c-3.144-1.182-5.545-2.717-7.209-4.603c-1.664-1.886-2.922-3.752-3.771-5.601
			C360.725,85.617,360.226,83.842,360.079,82.14z"/>
		<path fill="#000000" d="M441.484,40.994c8.354,0,15.322,2.736,20.906,8.207c5.582,5.473,8.373,12.46,8.373,20.961
			c0,8.504-2.791,15.51-8.373,21.017c-5.584,5.509-12.552,8.263-20.906,8.263c-8.282,0-15.232-2.772-20.851-8.318
			c-5.62-5.545-8.429-12.533-8.429-20.962c0-8.429,2.809-15.397,8.429-20.906C426.251,43.749,433.202,40.994,441.484,40.994z
			 M441.484,83.915c3.475,0,6.413-1.182,8.817-3.549c2.401-2.365,3.604-5.767,3.604-10.204c0-4.436-1.203-7.819-3.604-10.148
			c-2.404-2.329-5.343-3.494-8.817-3.494c-3.402,0-6.322,1.184-8.762,3.549c-2.44,2.367-3.66,5.73-3.66,10.092
			c0,4.364,1.22,7.747,3.66,10.148C435.162,82.714,438.082,83.915,441.484,83.915z"/>
		<path fill="#000000" d="M498.49,97.778h-16.857V42.657h16.082v6.322c1.33-2.366,3.529-4.287,6.598-5.767
			c3.068-1.479,6.156-2.218,9.262-2.218c7.91,0,13.346,2.884,16.303,8.651c3.992-5.767,9.686-8.651,17.08-8.651
			c5.768,0,10.609,1.757,14.529,5.268c3.918,3.513,5.877,8.781,5.877,15.804v35.712h-16.303V65.837c0-2.734-0.74-4.972-2.219-6.71
			c-1.479-1.736-3.66-2.606-6.543-2.606s-5.141,0.926-6.766,2.773c-1.627,1.849-2.439,4.067-2.439,6.654v31.831h-16.637V65.837
			c0-2.734-0.758-4.972-2.273-6.71c-1.516-1.736-3.715-2.606-6.6-2.606c-2.811,0-5.027,0.926-6.654,2.773
			c-1.627,1.849-2.439,4.104-2.439,6.765V97.778z"/>
	</g>
</g>
</svg>
