<?xml version="1.0" encoding="utf-8"?>
<!-- Generator: Adobe Illustrator 16.0.0, SVG Export Plug-In . SVG Version: 6.00 Build 0)  -->
<!DOCTYPE svg PUBLIC "-//W3C//DTD SVG 1.1//EN" "http://www.w3.org/Graphics/SVG/1.1/DTD/svg11.dtd">
<svg version="1.1" id="Layer_1" xmlns="http://www.w3.org/2000/svg" xmlns:xlink="http://www.w3.org/1999/xlink" x="0px" y="0px"
	 width="544.223px" height="123.84px" viewBox="0 0 544.223 123.84" enable-background="new 0 0 544.223 123.84"
	 xml:space="preserve">
<g>
	<g>
		<path fill="#000000" d="M168.858,67.143c-3.141,0-5.753,1.057-7.835,3.172c-2.083,2.115-3.124,5.032-3.124,8.748
			c0,3.653,1.072,6.537,3.22,8.652c2.146,2.115,4.79,3.172,7.931,3.172c2.627,0,4.79-0.688,6.489-2.066
			c1.697-1.377,2.835-3.06,3.413-5.047l12.881,3.941c-1.153,4.551-3.734,8.46-7.738,11.728c-4.006,3.269-9.021,4.903-15.045,4.903
			c-7.178,0-13.251-2.387-18.217-7.162c-4.967-4.773-7.45-10.815-7.45-18.121c0-7.369,2.418-13.441,7.258-18.217
			c4.838-4.773,10.815-7.162,17.929-7.162c6.215,0,11.311,1.603,15.285,4.807c3.973,3.205,6.537,7.146,7.691,11.824l-13.074,3.941
			c-0.577-2.05-1.667-3.75-3.268-5.095C173.6,67.816,171.485,67.143,168.858,67.143z"/>
		<path fill="#000000" d="M197.793,89.734c0-4.038,1.313-7.29,3.941-9.757c2.627-2.466,6.023-4.021,10.19-4.663l11.248-1.73
			c2.307-0.32,3.461-1.409,3.461-3.268c0-1.474-0.625-2.707-1.875-3.701c-1.25-0.993-2.965-1.49-5.143-1.49
			c-2.437,0-4.374,0.689-5.816,2.067c-1.442,1.379-2.228,3.028-2.355,4.951l-12.689-2.595c0.32-3.973,2.291-7.609,5.912-10.911
			c3.62-3.3,8.635-4.951,15.044-4.951c7.242,0,12.577,1.73,16.006,5.191c3.428,3.461,5.143,7.883,5.143,13.266v23.36
			c0,3.013,0.192,5.479,0.577,7.402h-13.17c-0.321-1.281-0.48-3.076-0.48-5.383c-2.756,4.487-7.243,6.729-13.458,6.729
			c-5.063,0-9.084-1.425-12.064-4.278C199.284,97.121,197.793,93.708,197.793,89.734z M217.885,93.675
			c2.5,0,4.581-0.736,6.249-2.211c1.666-1.474,2.5-3.909,2.5-7.306v-2.115l-9.037,1.442c-3.59,0.577-5.383,2.34-5.383,5.287
			c0,1.346,0.464,2.5,1.394,3.461C214.536,93.194,215.962,93.675,217.885,93.675z"/>
		<path fill="#000000" d="M267.776,102.904h-14.612V55.126h13.939v5.479c1.153-2.05,3.06-3.716,5.72-4.999
			c2.659-1.281,5.335-1.922,8.027-1.922c6.857,0,11.567,2.5,14.131,7.498c3.461-4.999,8.395-7.498,14.804-7.498
			c4.999,0,9.196,1.523,12.593,4.566c3.396,3.044,5.095,7.611,5.095,13.699v30.954h-14.131V75.218c0-2.37-0.642-4.309-1.923-5.816
			c-1.283-1.505-3.172-2.259-5.671-2.259c-2.5,0-4.455,0.802-5.864,2.403c-1.411,1.603-2.115,3.525-2.115,5.768v27.59h-14.42V75.218
			c0-2.37-0.658-4.309-1.971-5.816c-1.314-1.505-3.22-2.259-5.72-2.259c-2.437,0-4.359,0.802-5.768,2.403
			c-1.41,1.603-2.115,3.557-2.115,5.864V102.904z"/>
		<path fill="#000000" d="M354.389,121.169h-14.612V55.126h14.131v4.903c1.089-1.666,2.899-3.091,5.431-4.278
			c2.531-1.185,5.398-1.778,8.604-1.778c6.792,0,12.192,2.323,16.198,6.969c4.004,4.647,6.008,10.623,6.008,17.929
			c0,7.306-2.131,13.314-6.393,18.024c-4.263,4.71-9.726,7.066-16.391,7.066c-6.024,0-10.351-1.602-12.978-4.807V121.169z
			 M372.702,87.763c2.082-2.082,3.125-5.014,3.125-8.796c0-3.781-1.042-6.696-3.125-8.748c-2.083-2.05-4.662-3.076-7.738-3.076
			c-3.013,0-5.561,1.026-7.643,3.076c-2.083,2.052-3.125,4.967-3.125,8.748c0,3.782,1.041,6.714,3.125,8.796
			c2.082,2.083,4.629,3.124,7.643,3.124C368.04,90.887,370.619,89.847,372.702,87.763z"/>
		<path fill="#000000" d="M433.985,67.431h-17.592v35.473h-14.612V67.431h-7.594V55.126h7.594v-4.134
			c0-5.576,1.618-10.045,4.854-13.41c3.235-3.365,7.706-5.047,13.411-5.047c3.076,0,5.318,0.353,6.729,1.058v11.92
			c-1.154-0.32-2.532-0.48-4.134-0.48c-1.603,0-3.044,0.449-4.326,1.346c-1.283,0.898-1.923,2.437-1.923,4.614v4.134h32.204v47.777
			h-14.612V67.431z M435.235,46.571c-1.667-1.666-2.5-3.685-2.5-6.056c0-2.37,0.833-4.389,2.5-6.056c1.666-1.666,3.653-2.5,5.96-2.5
			c2.435,0,4.485,0.833,6.152,2.5c1.666,1.667,2.499,3.686,2.499,6.056c0,2.372-0.85,4.391-2.547,6.056
			c-1.699,1.667-3.734,2.5-6.104,2.5C438.888,49.07,436.901,48.238,435.235,46.571z"/>
		<path fill="#000000" d="M491.759,55.126v14.42c-1.346-0.32-2.884-0.481-4.614-0.481c-3.268,0-5.944,1.058-8.026,3.172
			c-2.083,2.115-3.125,5.383-3.125,9.806v20.86h-14.612V55.126h14.131v6.441c1.153-2.435,2.916-4.197,5.287-5.287
			c2.371-1.089,4.742-1.634,7.114-1.634C489.388,54.646,490.669,54.807,491.759,55.126z"/>
		<path fill="#000000" d="M531.271,85.696l12.209,3.461c-1.219,4.422-3.749,8.06-7.595,10.911s-8.652,4.278-14.42,4.278
			c-6.921,0-12.802-2.307-17.64-6.921c-4.84-4.614-7.258-10.798-7.258-18.553c0-7.434,2.354-13.49,7.065-18.169
			c4.71-4.677,10.301-7.018,16.774-7.018c7.434,0,13.281,2.163,17.544,6.489c4.262,4.326,6.394,10.334,6.394,18.025
			c0,2.436-0.097,3.941-0.289,4.518h-33.261c0.127,2.628,1.249,4.823,3.364,6.585c2.114,1.763,4.614,2.644,7.498,2.644
			C526.592,91.945,529.795,89.863,531.271,85.696z M511.083,73.295h19.13c-0.129-2.178-0.978-4.069-2.548-5.672
			c-1.57-1.601-3.926-2.403-7.065-2.403c-2.82,0-5.063,0.833-6.729,2.5C512.203,69.387,511.275,71.245,511.083,73.295z"/>
	</g>
	<g>
		<path fill-rule="evenodd" clip-rule="evenodd" fill="#000000" d="M33.458,120.718c-7.894-2.425-14.167-6.334-19.593-11.424
			C7.235,103.071,2.54,95.327,0.886,86.47c-2.451-13.133,0.1-25.425,8.695-36.176c4.567-5.711,10.668-9.808,15.388-15.321
			c4.308-5.032,8.471-10.163,10.274-16.726c1.526-5.55,1.665-10.969-1.805-15.962c-0.244-0.35-0.772-0.688-0.372-1.092
			c0.233-0.237,0.851-0.286,1.219-0.171C42.403,3.54,50.349,6.506,56.791,12.27c6.987,6.25,8.962,15.059,4.613,24.598
			c10.905-9.156,22.667-8.793,35.231-3.656c-2.75,1.933-5.376,3.418-7.569,5.387c-5.722,5.143-7.042,9.636-4.438,17.543
			c1.932,5.873,4.994,11.214,7.611,16.765c5.001,10.612,5.45,21.327-1.422,31.136C86.234,110.58,79.5,115.083,72.23,118.53
			c-1.69,0.801-3.488,1.375-5.697,2.233c1.231-2.09,2.318-3.805,3.277-5.586c5.211-9.671,4.058-18.963-1.841-27.885
			c-2.914-4.407-6.695-8.033-10.783-11.35c-1.54-1.25-2.869-1.01-4.258,0.299c-2.978,2.808-5.65,5.83-7.406,9.576
			c-0.286,0.606-0.439,1.458-1.215,1.527c-0.921,0.083-0.805-0.958-1.141-1.474c-3.47-5.337-5.369-11.271-6.479-17.49
			c-0.302-1.691,0.616-3.227,0.591-5.232c-7.384,5.457-12.872,11.863-14.544,20.993c-1.57,8.563,0.562,16.547,3.783,24.333
			C28.241,112.638,30.583,116.506,33.458,120.718z"/>
	</g>
</g>
</svg>
