<?xml version="1.0" encoding="utf-8"?>
<!-- Generator: Adobe Illustrator 16.0.0, SVG Export Plug-In . SVG Version: 6.00 Build 0)  -->
<!DOCTYPE svg PUBLIC "-//W3C//DTD SVG 1.1//EN" "http://www.w3.org/Graphics/SVG/1.1/DTD/svg11.dtd">
<svg version="1.1" id="Layer_1" xmlns="http://www.w3.org/2000/svg" xmlns:xlink="http://www.w3.org/1999/xlink" x="0px" y="0px"
	 width="152.5px" height="152.211px" viewBox="0 0 152.5 152.211" enable-background="new 0 0 152.5 152.211" xml:space="preserve">
<path fill="#000000" d="M140.989,47.033C119.185-1.63,95.696-10.582,47.033,11.222c-48.662,21.804-57.615,45.292-35.811,93.955
	c21.805,48.663,45.293,57.616,93.956,35.813C153.841,119.183,162.793,95.694,140.989,47.033z M103.368,66.697h-0.192l0.053,0.056
	L84.903,84.087v17.437h-0.222l0.219,0.226l-8.795,8.589l-8.794,8.591l0.224-17.405h-1.066l-0.006,0.006l-0.006-0.006H49.72V85.292
	l-0.323-0.004l-17.405-0.225l8.824-9.184l8.821-9.183l0.083,0.092v-0.091h16.546l19.48-18.426l0.002,0.002v-0.005h17.62V66.697z"/>
</svg>
