<?xml version="1.0" encoding="utf-8"?>
<!-- Generator: Adobe Illustrator 16.0.0, SVG Export Plug-In . SVG Version: 6.00 Build 0)  -->
<!DOCTYPE svg PUBLIC "-//W3C//DTD SVG 1.1//EN" "http://www.w3.org/Graphics/SVG/1.1/DTD/svg11.dtd">
<svg version="1.1" id="Layer_1" xmlns="http://www.w3.org/2000/svg" xmlns:xlink="http://www.w3.org/1999/xlink" x="0px" y="0px"
	 width="697.694px" height="123.555px" viewBox="0 0 697.694 123.555" enable-background="new 0 0 697.694 123.555"
	 xml:space="preserve">
<g>
	<g>
		
			<rect x="62.229" y="4.873" transform="matrix(0.4571 0.8894 -0.8894 0.4571 57.4094 -57.5741)" fill="#000000" width="27.273" height="26.731"/>
		
			<rect x="91.7" y="62.907" transform="matrix(0.457 0.8894 -0.8894 0.457 125.033 -52.2804)" fill="#000000" width="27.275" height="26.728"/>
		
			<rect x="33.857" y="91.953" transform="matrix(0.4571 0.8894 -0.8894 0.4571 119.4568 14.9345)" fill="#000000" width="27.276" height="26.73"/>
		
			<rect x="4.483" y="34.016" transform="matrix(0.4572 0.8894 -0.8894 0.4572 51.9749 9.6031)" fill="#000000" width="27.274" height="26.729"/>
		
			<rect x="27.33" y="7.479" transform="matrix(-0.3336 0.9427 -0.9427 -0.3336 74.2846 -10.8257)" fill="#000000" width="27.278" height="26.729"/>
		
			<rect x="7.092" y="68.905" transform="matrix(-0.3335 0.9428 -0.9428 -0.3335 105.2043 90.1603)" fill="#000000" width="27.279" height="26.728"/>
		<polygon fill="#000000" points="65.339,111.204 74.438,85.492 99.639,94.413 90.541,120.118 		"/>
		<polygon fill="#000000" points="85.058,49.377 94.157,23.665 119.354,32.579 110.26,58.298 		"/>
	</g>
	<g>
		<g>
			<path fill="#000000" d="M196.427,100.05h-27.542V23.771h27.65c11.547,0,20.818,3.442,27.811,10.328s10.49,16.175,10.49,27.865
				c0,11.692-3.497,20.963-10.49,27.812C217.353,96.625,208.046,100.05,196.427,100.05z M185.883,84.02h9.898
				c6.24,0,11.351-1.864,15.332-5.595c3.98-3.729,5.971-9.215,5.971-16.461c0-7.316-1.99-12.838-5.971-16.568
				c-3.981-3.729-9.091-5.594-15.332-5.594h-9.898V84.02z"/>
			<path fill="#000000" d="M270.983,44.965c8.104,0,14.864,2.654,20.28,7.961c5.415,5.309,8.123,12.087,8.123,20.334
				c0,8.249-2.708,15.045-8.123,20.388c-5.416,5.344-12.176,8.015-20.28,8.015c-8.034,0-14.776-2.689-20.227-8.069
				c-5.452-5.379-8.177-12.157-8.177-20.334s2.725-14.936,8.177-20.28C256.207,47.638,262.95,44.965,270.983,44.965z
				 M270.983,86.602c3.37,0,6.221-1.146,8.553-3.443c2.33-2.294,3.497-5.595,3.497-9.898c0-4.304-1.167-7.585-3.497-9.844
				c-2.332-2.259-5.183-3.389-8.553-3.389c-3.3,0-6.133,1.148-8.5,3.443c-2.367,2.296-3.55,5.559-3.55,9.791
				c0,4.233,1.184,7.514,3.55,9.844C264.851,85.437,267.683,86.602,270.983,86.602z"/>
			<path fill="#000000" d="M326.282,100.05h-16.353V46.579h15.6v6.132c1.291-2.294,3.424-4.159,6.401-5.594
				c2.976-1.434,5.971-2.152,8.983-2.152c7.674,0,12.945,2.797,15.815,8.392c3.873-5.594,9.396-8.392,16.568-8.392
				c5.595,0,10.291,1.705,14.094,5.11c3.801,3.408,5.702,8.518,5.702,15.331v34.643h-15.815V69.065c0-2.653-0.718-4.823-2.151-6.509
				c-1.436-1.684-3.551-2.528-6.348-2.528c-2.798,0-4.986,0.898-6.563,2.69c-1.578,1.793-2.366,3.945-2.366,6.455v30.877h-16.139
				V69.065c0-2.653-0.736-4.823-2.205-6.509c-1.471-1.684-3.604-2.528-6.401-2.528c-2.727,0-4.878,0.898-6.456,2.69
				c-1.578,1.793-2.367,3.98-2.367,6.563V100.05z"/>
			<path fill="#000000" d="M403.636,85.311c0-4.519,1.47-8.158,4.411-10.92c2.94-2.76,6.741-4.5,11.404-5.218l12.588-1.937
				c2.582-0.358,3.873-1.577,3.873-3.658c0-1.649-0.699-3.029-2.098-4.142c-1.399-1.111-3.318-1.668-5.756-1.668
				c-2.728,0-4.896,0.772-6.51,2.313c-1.613,1.543-2.492,3.389-2.636,5.541l-14.201-2.905c0.358-4.446,2.563-8.516,6.616-12.211
				c4.052-3.693,9.665-5.541,16.838-5.541c8.104,0,14.075,1.937,17.913,5.81c3.836,3.873,5.756,8.822,5.756,14.847v26.144
				c0,3.372,0.215,6.132,0.646,8.284h-14.739c-0.36-1.434-0.538-3.443-0.538-6.025c-3.085,5.021-8.106,7.531-15.063,7.531
				c-5.667,0-10.167-1.595-13.502-4.788C405.304,93.578,403.636,89.758,403.636,85.311z M426.122,89.722
				c2.797,0,5.127-0.824,6.993-2.475c1.864-1.649,2.797-4.374,2.797-8.177v-2.367l-10.113,1.614
				c-4.018,0.646-6.024,2.619-6.024,5.917c0,1.506,0.519,2.797,1.56,3.874C422.373,89.184,423.97,89.722,426.122,89.722z"/>
			<path fill="#000000" d="M467.004,37.004c-1.866-1.864-2.798-4.124-2.798-6.778c0-2.653,0.932-4.912,2.798-6.778
				c1.864-1.864,4.088-2.797,6.67-2.797c2.652,0,4.931,0.933,6.832,2.797c1.899,1.866,2.851,4.125,2.851,6.778
				c0,2.654-0.951,4.914-2.851,6.778c-1.901,1.866-4.18,2.797-6.832,2.797C471.092,39.801,468.868,38.87,467.004,37.004z
				 M481.958,100.05h-16.354V46.579h16.354V100.05z"/>
			<path fill="#000000" d="M512.619,69.388v30.662h-16.354V46.579h15.815v6.132c1.361-2.367,3.46-4.212,6.294-5.541
				c2.833-1.326,5.719-1.99,8.661-1.99c6.383,0,11.224,1.99,14.523,5.971c3.299,3.98,4.949,9.091,4.949,15.331v33.567h-16.354V69.28
				c0-2.797-0.735-5.038-2.205-6.724c-1.471-1.684-3.641-2.528-6.509-2.528c-2.654,0-4.788,0.879-6.401,2.636
				C513.426,64.422,512.619,66.663,512.619,69.388z"/>
			<path fill="#000000" d="M607.509,100.05L586.96,70.033l-8.606,9.575v20.441h-16.999V23.771h16.999v32.061l27.864-32.061h22.379
				L598.902,56.8l29.802,43.25H607.509z"/>
			<path fill="#000000" d="M638.387,37.004c-1.866-1.864-2.798-4.124-2.798-6.778c0-2.653,0.932-4.912,2.798-6.778
				c1.864-1.864,4.088-2.797,6.67-2.797c2.652,0,4.931,0.933,6.832,2.797c1.899,1.866,2.851,4.125,2.851,6.778
				c0,2.654-0.951,4.914-2.851,6.778c-1.901,1.866-4.18,2.797-6.832,2.797C642.475,39.801,640.251,38.87,638.387,37.004z
				 M653.341,100.05h-16.354V46.579h16.354V100.05z"/>
			<path fill="#000000" d="M687.229,30.979v15.6h10.436v14.309h-10.436v20.011c0,3.73,1.972,5.594,5.917,5.594
				c1.291,0,2.726-0.178,4.304-0.538v13.556c-2.009,1.004-4.842,1.506-8.499,1.506c-5.524,0-9.882-1.542-13.072-4.626
				c-3.192-3.083-4.787-7.279-4.787-12.588V60.888h-9.468V46.579h2.689c2.725,0,4.788-0.807,6.187-2.42s2.098-3.712,2.098-6.294
				v-6.886H687.229z"/>
		</g>
	</g>
</g>
</svg>
