<?xml version="1.0" encoding="utf-8"?>
<!-- Generator: Adobe Illustrator 16.0.0, SVG Export Plug-In . SVG Version: 6.00 Build 0)  -->
<!DOCTYPE svg PUBLIC "-//W3C//DTD SVG 1.1//EN" "http://www.w3.org/Graphics/SVG/1.1/DTD/svg11.dtd">
<svg version="1.1" id="Layer_1" xmlns="http://www.w3.org/2000/svg" xmlns:xlink="http://www.w3.org/1999/xlink" x="0px" y="0px"
	 width="500.473px" height="123.84px" viewBox="0 0 500.473 123.84" enable-background="new 0 0 500.473 123.84"
	 xml:space="preserve">
<path fill-rule="evenodd" clip-rule="evenodd" fill="#000000" d="M60.44,1.867C27.062,1.867,0,28.926,0,62.307
	s27.062,60.441,60.44,60.441c33.381,0,60.442-27.061,60.442-60.441S93.821,1.867,60.44,1.867z M87.133,42.486
	C78.48,55.822,69.831,69.16,61.131,82.469c-0.377,0.578-1.221,1.201-1.854,1.207c-8.472,0.08-16.942,0.053-25.416,0.047
	c-0.21,0-0.423-0.053-0.921-0.121c0.35-0.617,0.563-1.045,0.821-1.439c8.653-13.338,17.315-26.668,25.958-40.016
	c0.506-0.781,1.003-1.271,2.056-1.264c8.309,0.045,16.616,0.023,24.924,0.029c0.32,0,0.643,0.045,1.245,0.094
	C87.62,41.602,87.405,42.061,87.133,42.486z"/>
<g>
	<path fill="#000000" d="M188.322,39.263c7.935,0,14.554,2.599,19.856,7.795c5.302,5.198,7.953,11.834,7.953,19.909
		c0,8.076-2.651,14.731-7.953,19.962c-5.303,5.232-11.922,7.848-19.856,7.848c-7.866,0-14.468-2.634-19.804-7.9
		c-5.338-5.267-8.006-11.903-8.006-19.909s2.668-14.624,8.006-19.856C173.854,41.88,180.456,39.263,188.322,39.263z M188.322,80.029
		c3.3,0,6.092-1.123,8.374-3.371c2.281-2.247,3.424-5.478,3.424-9.691s-1.143-7.427-3.424-9.639
		c-2.282-2.212-5.074-3.318-8.374-3.318c-3.231,0-6.004,1.124-8.322,3.371c-2.317,2.248-3.476,5.443-3.476,9.586
		c0,4.145,1.158,7.357,3.476,9.639C182.318,78.889,185.091,80.029,188.322,80.029z"/>
	<path fill="#000000" d="M260.165,93.196c-0.282-1.264-0.422-3.019-0.422-5.267c-1.264,2.106-3.196,3.705-5.794,4.793
		c-2.599,1.088-5.337,1.633-8.216,1.633c-6.181,0-11.044-1.949-14.59-5.847c-3.547-3.897-5.319-8.76-5.319-14.59V40.843h16.012
		v29.705c0,2.67,0.719,4.846,2.159,6.531c1.438,1.686,3.529,2.528,6.268,2.528c2.668,0,4.793-0.824,6.373-2.476
		c1.58-1.649,2.37-3.809,2.37-6.479V40.843h16.012v42.979c0,3.441,0.175,6.567,0.526,9.375H260.165z"/>
	<path fill="#000000" d="M308.304,25.568v15.274h10.218v14.01h-10.218v19.594c0,3.652,1.931,5.478,5.794,5.478
		c1.264,0,2.668-0.175,4.214-0.527V92.67c-1.968,0.982-4.741,1.475-8.322,1.475c-5.408,0-9.675-1.51-12.799-4.53
		c-3.126-3.019-4.688-7.126-4.688-12.324V54.853h-9.27v-14.01h2.633c2.668,0,4.688-0.79,6.058-2.37
		c1.369-1.58,2.054-3.635,2.054-6.163v-6.741H308.304z"/>
	<path fill="#000000" d="M327.157,78.765c0-4.424,1.438-7.987,4.319-10.691c2.879-2.703,6.6-4.406,11.166-5.109l12.324-1.896
		c2.528-0.351,3.792-1.544,3.792-3.581c0-1.615-0.685-2.966-2.054-4.056c-1.369-1.088-3.249-1.633-5.636-1.633
		c-2.67,0-4.793,0.756-6.373,2.265c-1.58,1.511-2.44,3.318-2.581,5.425l-13.904-2.844c0.351-4.354,2.51-8.339,6.479-11.956
		c3.967-3.616,9.462-5.425,16.485-5.425c7.935,0,13.781,1.896,17.539,5.688c3.756,3.792,5.636,8.638,5.636,14.536v25.598
		c0,3.302,0.211,6.005,0.632,8.111H360.55c-0.353-1.404-0.526-3.371-0.526-5.899c-3.021,4.917-7.937,7.374-14.748,7.374
		c-5.548,0-9.954-1.562-13.22-4.688C328.79,86.859,327.157,83.12,327.157,78.765z M349.173,83.084c2.739,0,5.021-0.807,6.848-2.423
		c1.825-1.615,2.738-4.283,2.738-8.006v-2.317l-9.901,1.58c-3.934,0.632-5.899,2.564-5.899,5.793c0,1.476,0.509,2.739,1.527,3.793
		C345.503,82.557,347.066,83.084,349.173,83.084z"/>
	<path fill="#000000" d="M383.83,96.146l14.115-4.003c0.562,2.598,1.844,4.704,3.845,6.32c2.002,1.615,4.478,2.423,7.427,2.423
		c8.638,0,12.957-4.46,12.957-13.378v-2.423c-2.6,3.934-7.269,5.899-14.011,5.899c-6.952,0-12.746-2.423-17.381-7.269
		s-6.952-10.919-6.952-18.224c0-7.021,2.299-13.044,6.899-18.066c4.599-5.02,10.41-7.531,17.434-7.531
		c3.861,0,7.021,0.668,9.48,2.001c2.458,1.335,4.144,2.845,5.057,4.53v-5.583h15.274v45.822c0,8.146-2.354,14.869-7.058,20.173
		c-4.706,5.302-11.693,7.953-20.963,7.953c-7.163,0-13.115-1.844-17.855-5.53C387.358,105.573,384.602,101.202,383.83,96.146z
		 M403.002,73.919c2.106,2.107,4.81,3.16,8.111,3.16c3.3,0,5.985-1.053,8.058-3.16c2.071-2.106,3.107-4.914,3.107-8.427
		c0-3.44-1.089-6.231-3.265-8.375c-2.178-2.141-4.812-3.213-7.9-3.213c-3.092,0-5.741,1.072-7.954,3.213
		c-2.212,2.144-3.317,4.935-3.317,8.375C399.842,69.005,400.895,71.813,403.002,73.919z"/>
	<path fill="#000000" d="M485.692,74.341l13.378,3.792c-1.335,4.846-4.107,8.832-8.321,11.956s-9.48,4.688-15.801,4.688
		c-7.585,0-14.028-2.528-19.33-7.584c-5.304-5.057-7.953-11.833-7.953-20.331c0-8.146,2.581-14.782,7.742-19.909
		c5.162-5.125,11.288-7.689,18.382-7.689c8.146,0,14.554,2.37,19.225,7.11c4.67,4.74,7.005,11.324,7.005,19.751
		c0,2.67-0.105,4.319-0.315,4.951h-36.448c0.141,2.88,1.37,5.285,3.688,7.216c2.317,1.932,5.056,2.896,8.216,2.896
		C480.565,81.188,484.076,78.906,485.692,74.341z M463.571,60.752h20.963c-0.142-2.387-1.072-4.459-2.792-6.215
		c-1.722-1.755-4.303-2.634-7.742-2.634c-3.091,0-5.549,0.913-7.374,2.738C464.799,56.469,463.782,58.505,463.571,60.752z"/>
</g>
</svg>
