<?xml version="1.0" encoding="utf-8"?>
<!-- Generator: Adobe Illustrator 16.0.0, SVG Export Plug-In . SVG Version: 6.00 Build 0)  -->
<!DOCTYPE svg PUBLIC "-//W3C//DTD SVG 1.1//EN" "http://www.w3.org/Graphics/SVG/1.1/DTD/svg11.dtd">
<svg version="1.1" id="Layer_1" xmlns="http://www.w3.org/2000/svg" xmlns:xlink="http://www.w3.org/1999/xlink" x="0px" y="0px"
	 width="455.333px" height="116.589px" viewBox="0 0 455.333 116.589" enable-background="new 0 0 455.333 116.589"
	 xml:space="preserve">
<g>
	<g>
		<g>
			<path fill-rule="evenodd" clip-rule="evenodd" fill="#000000" d="M37.823,32.358c-0.09,1.586,0.12,3.166,0.042,4.759
				c-0.391,8.089-3.323,15.107-8.851,21.006c-5.346,5.706-11.962,9.013-19.701,10.047c-2.549,0.34-5.115,0.347-7.676,0.049
				c0-11.723,0.005-23.447-0.016-35.172c-0.001-0.584,0.121-0.705,0.705-0.704C14.159,32.363,25.99,32.358,37.823,32.358z"/>
			<path fill-rule="evenodd" clip-rule="evenodd" fill="#000000" d="M1.637,76.804c2.371-0.343,4.75-0.269,7.104,0.056
				c9.666,1.335,17.361,5.986,22.919,14.008c4.339,6.26,6.069,13.268,5.653,20.859c-0.055,1-0.427,0.947-1.125,0.946
				c-11.518-0.012-23.035-0.008-34.551-0.008C1.637,100.711,1.637,88.758,1.637,76.804z"/>
			<path fill-rule="evenodd" clip-rule="evenodd" fill="#000000" d="M81.62,32.358c0,11.737-0.004,23.473,0.008,35.209
				c0.001,0.541-0.052,0.802-0.709,0.826c-9.787,0.362-18.255-2.783-25.111-9.782c-6.828-6.968-9.869-15.443-9.271-25.201
				c0.021-0.349,0.022-0.702,0.033-1.053C58.254,32.358,69.936,32.358,81.62,32.358z"/>
			<path fill-rule="evenodd" clip-rule="evenodd" fill="#000000" d="M81.62,94.732c0,5.732-0.011,11.465,0.015,17.199
				c0.003,0.612-0.155,0.748-0.756,0.748c-11.412-0.019-22.823-0.024-34.234,0.008c-0.766,0.003-0.624-0.349-0.657-0.82
				c-0.358-5.176,0.283-10.214,2.366-14.977c4.926-11.263,13.486-17.93,25.633-19.948c2.251-0.373,4.519-0.35,6.792-0.285
				c0.637,0.017,0.862,0.189,0.858,0.876C81.606,83.266,81.62,88.999,81.62,94.732z"/>
		</g>
		<path fill-rule="evenodd" clip-rule="evenodd" fill="#000000" d="M41.628,15.163c5.532,0,10.11,4.082,10.891,9.397H66.19
			C66.19,10.996,55.193,0,41.628,0c-13.564,0-24.56,10.996-24.56,24.56h13.671C31.52,19.245,36.097,15.163,41.628,15.163z"/>
		<path fill-rule="evenodd" clip-rule="evenodd" fill="#000000" d="M34.302,70.852l0.154,0.125c1.552,1.551,3.104,3.103,4.655,4.655
			c0.053,0.053,0.118,0.097,0.136,0.176c-0.09,0.005-0.182,0.019-0.274,0.019c-3.12,0.001-6.24,0.001-9.36,0
			c-0.08,0-0.165,0.022-0.242-0.023c-0.015-0.075,0.048-0.104,0.086-0.141c1.568-1.57,3.137-3.14,4.707-4.708L34.302,70.852z"/>
		<path fill-rule="evenodd" clip-rule="evenodd" fill="#000000" d="M44.254,80.458c-1.527-1.528-3.053-3.056-4.58-4.582
			c-0.076-0.075-0.159-0.144-0.238-0.215c0.008,0.124,0.021,0.249,0.021,0.373c0.001,3.106,0.001,6.21,0.003,9.314
			c0,0.094-0.038,0.199,0.047,0.294l0.13-0.121c1.564-1.563,3.128-3.127,4.691-4.692l0.127-0.152
			C44.389,80.604,44.325,80.528,44.254,80.458z"/>
		<path fill-rule="evenodd" clip-rule="evenodd" fill="#000000" d="M44.251,70.875V60.852l-0.12,0.112
			c-3.242,3.241-6.481,6.482-9.722,9.723c-0.052,0.053-0.093,0.116-0.139,0.174l0.155,0.125c1.553,1.552,3.104,3.103,4.656,4.655
			c0.052,0.052,0.116,0.098,0.135,0.175l0.029,0.014h0.267v0.244c1.52,1.518,3.038,3.037,4.557,4.557
			c0.07,0.071,0.136,0.147,0.202,0.22c0.069-0.06,0.141-0.114,0.207-0.178c3.2-3.199,6.399-6.398,9.598-9.599
			c0.064-0.064,0.125-0.133,0.188-0.2H44.251z"/>
		<rect x="38.251" y="75.43" fill-rule="evenodd" clip-rule="evenodd" fill="#000000" width="1.199" height="0.396"/>
	</g>
	<g>
		<path fill="#000000" d="M153.988,86.064c-1.135,10.725-9.174,14.163-20.517,14.338c-17.41,0.27-26.483-11.685-21.37-17.465
			c2.415-2.733,7.97-3.282,10.134,1.153c1.792,3.67,3.172,8.887,10.911,9.306c2.821,0.188,5.991-0.4,6.516-3.875
			c0.459-3.012-1.965-5.593-4.88-7.166c-6.994-3.667-23.335-9.038-21.96-22.925c1.117-11.881,10.035-14.638,20.373-14.259
			c16.558,0.668,22.515,12.054,17.244,16.989c-2.708,2.43-7.188,2.499-9.702-1.236c-2.218-3.279-2.014-8.751-8.734-8.802
			c-3.829,0.059-6.253,2.177-5.763,5.867c0.488,3.536,3.632,5.875,11.128,9.38C149.377,72.963,155.002,76.881,153.988,86.064z"/>
		<path fill="#000000" d="M200.46,96.362c-0.12,1.62-1.12,2.329-3.359,2.363c-0.145,0.002-13.726,0.212-13.871,0.214
			c-2.239,0.035-3.262-0.643-3.431-2.258c-0.094-1.385,0.396-2.395,2.304-5.197c1.271-1.946,1.304-4.488,1.221-9.879l-0.012-0.77
			c-0.082-5.314-0.115-12.093-5.316-12.013c-3.251,0.05-4.87,2.771-4.798,7.47c0.029,1.849,0.058,3.697,0.085,5.468
			c0.083,5.392,0.195,7.931,1.524,9.837c1.922,2.744,2.515,3.736,2.392,5.125c-0.047,1.618-1.048,2.327-3.288,2.362
			c-0.145,0.002-13.798,0.214-13.87,0.215c-2.24,0.035-3.262-0.643-3.431-2.258c-0.094-1.385,0.396-2.394,2.231-5.196
			c1.271-1.946,1.376-4.489,1.294-9.804l-0.25-16.174c-0.083-5.391-0.268-7.93-1.598-9.836c-1.921-2.743-2.442-3.736-2.391-5.124
			c0.12-1.62,1.115-2.636,3.343-3.441c2.155-0.803,6.397-2.179,7.188-2.499c4.171-1.297,6.298,0.75,6.366,5.14
			c0.021,1.386,0.12,7.779,0.239,15.48c2.417-2.58,5.848-4.944,10.4-5.015c9.464-0.146,12.819,6.581,12.911,12.511
			c0.021,1.31,0.07,4.544,0.129,8.318c0.083,5.392,0.195,7.932,1.525,9.837C199.918,93.982,200.511,94.975,200.46,96.362z"/>
		<path fill="#000000" d="M241.088,79.17c0.186,12.015-7.355,19.682-19.347,19.867c-12.064,0.187-19.838-7.243-20.024-19.258
			s7.355-19.604,19.42-19.791C233.129,59.803,240.902,67.155,241.088,79.17z M227.651,79.378
			c-0.108-7.008-2.283-12.136-6.401-12.072c-4.19,0.065-6.205,5.257-6.097,12.266c0.108,7.009,2.285,12.214,6.475,12.149
			C225.746,91.657,227.759,86.387,227.651,79.378z"/>
		<path fill="#000000" d="M285.007,78.491c0.106,11.554-6.122,19.971-16.529,19.823c-3.615-0.098-6.526-1.44-8.726-3.486
			c0.012,0.77,0.025,1.617,0.038,2.465c0.083,5.314,0.129,8.317,1.524,9.759c2.059,2.279,3.091,3.65,2.897,5.117
			c-0.192,1.621-1.12,2.329-3.288,2.362c-0.361,0.006-14.304,0.222-14.448,0.224c-2.167,0.034-3.189-0.644-3.358-2.259
			c-0.094-1.385,0.396-2.394,2.231-5.196c1.271-1.945,1.304-4.488,1.221-9.802L246.31,80.63c-0.083-5.314-0.194-7.854-1.524-9.76
			c-1.922-2.743-2.442-3.737-2.392-5.124c0.119-1.62,1.115-2.637,3.271-3.441c2.228-0.805,6.468-2.257,7.259-2.5
			c3.523-1.133,5.568,0.222,6.193,3.293c2.206-2.19,5.001-3.698,8.756-3.833C278.27,58.72,284.756,66.939,285.007,78.491z
			 M271.57,78.699c-0.105-6.777-2.42-11.672-6.827-11.604c-4.479,0.069-6.642,5.033-6.537,11.811
			c0.105,6.778,2.42,11.672,6.899,11.603C269.512,90.44,271.675,85.477,271.57,78.699z"/>
		<path fill="#000000" d="M327.307,61.89c-3.395,0.052-5.043-3.697-6.532-6.524c-1.043-2.063-3.188-5.188-8.244-5.11l-0.361,0.006
			c-5.057,0.078-6.551,1.565-6.417,10.191l0.084,5.468c2.453-0.192,4.256-0.451,5.181-1.39c1.923-1.802,2.258-3.501,3.848-3.526
			c1.95-0.03,1.982,2.05,2.018,4.36c0.017,1.079,0.107,6.932,0.124,8.01c0.036,2.311,0.068,4.39-1.882,4.419
			c-1.59,0.025-1.978-1.664-3.955-3.405c-0.954-0.909-2.764-1.112-5.222-1.228l0.149,9.626c0.125,3.388,0.3,5.388,1.55,6.755
			c1.986,2.28,3.019,3.651,2.897,5.117c-0.193,1.543-1.121,2.328-3.36,2.363c-0.289,0.005-14.737,0.228-14.882,0.23
			c-2.239,0.035-3.262-0.643-3.359-2.259c-0.166-1.384,0.396-2.394,2.232-5.196c1.27-1.946,1.303-4.488,1.22-9.879l-0.298-19.254
			c-0.083-5.314-0.194-7.855-1.525-9.837c-1.921-2.743-2.514-3.659-2.391-5.048c0.047-1.618,1.047-2.404,3.287-2.438
			c0.145-0.002,30.775-0.476,31.57-0.488c3.034-0.047,4.352,1.088,4.909,4.392c0.556,3.227,1.417,7.528,1.974,10.832
			C330.319,60.458,329.112,61.862,327.307,61.89z"/>
		<path fill="#000000" d="M353.378,93.996c-0.047,1.618-1.047,2.327-3.287,2.362c-0.145,0.002-13.798,0.213-13.87,0.214
			c-2.24,0.035-3.262-0.643-3.432-2.258c-0.094-1.385,0.396-2.395,2.232-5.196c1.271-1.946,1.304-4.488,1.221-9.88l-0.249-16.097
			c-0.083-5.391-0.195-7.932-1.526-9.837c-1.921-2.743-2.442-3.737-2.392-5.124c0.12-1.62,1.116-2.637,3.343-3.442
			c2.155-0.803,6.397-2.178,7.188-2.499c4.099-1.296,6.298,0.75,6.366,5.14c0.036,2.311,0.287,18.561,0.49,31.654
			c0.083,5.392,0.195,7.932,1.525,9.837C352.909,91.615,353.501,92.607,353.378,93.996z"/>
		<path fill="#000000" d="M394.008,76.804c0.186,12.015-7.355,19.682-19.347,19.867c-12.064,0.187-19.838-7.243-20.024-19.258
			s7.355-19.604,19.42-19.791C386.049,57.438,393.822,64.79,394.008,76.804z M380.571,77.012
			c-0.108-7.008-2.284-12.136-6.401-12.072c-4.19,0.064-6.205,5.257-6.096,12.266c0.108,7.009,2.284,12.213,6.474,12.149
			C378.666,89.291,380.68,84.021,380.571,77.012z"/>
		<path fill="#000000" d="M447.519,70.276c0,0-4.771,18.485-5.118,19.492c-1.45,4.336-3.46,5.215-7.144,5.272
			c-3.396,0.053-6.432-0.055-7.804-4.655c-0.384-1.458-2.226-8.439-3.757-13.963c-1.284,5.721-2.698,12.368-3.112,13.684
			c-1.087,4.484-3.388,5.214-7.144,5.272c-3.395,0.052-6.072-0.137-7.731-4.657c-0.301-0.766-2.875-8.353-5.224-15.403
			c-2.196-6.438-3.016-8.119-4.642-10.405c-1.55-2.133-2.142-2.971-2.023-4.668c0.192-1.621,1.193-2.33,3.866-2.371
			c0.65-0.01,7.152-0.11,11.487-0.178c2.817-0.043,4.556,0.238,4.378,2.783c-0.25,2.546-2.984,3.282-2.295,5.813
			c0.612,2.148,5.042,17.641,5.042,17.641s4.883-20.644,5.496-23.042c0.541-2.396,1.031-3.406,3.199-3.439
			c2.528-0.039,1.806-0.028,4.118-0.064c2.095-0.032,2.54,0.731,3.15,2.802c0.689,2.532,5.854,23.406,5.854,23.406l3.336-13.225
			c2.114-8.122-2.142-7.67-1.76-10.989c0.056-1.079,0.617-2.167,2.784-2.2c1.084-0.017,7.441-0.115,7.73-0.12
			c1.733-0.027,2.328,1.043,2.272,2.122C452.309,62.268,449.63,61.924,447.519,70.276z"/>
	</g>
</g>
</svg>
