<?xml version="1.0" encoding="utf-8"?>
<!-- Generator: Adobe Illustrator 16.0.0, SVG Export Plug-In . SVG Version: 6.00 Build 0)  -->
<!DOCTYPE svg PUBLIC "-//W3C//DTD SVG 1.1//EN" "http://www.w3.org/Graphics/SVG/1.1/DTD/svg11.dtd">
<svg version="1.1" id="Layer_1" xmlns="http://www.w3.org/2000/svg" xmlns:xlink="http://www.w3.org/1999/xlink" x="0px" y="0px"
	 width="152.5px" height="160.42px" viewBox="0 0 152.5 160.42" enable-background="new 0 0 152.5 160.42" xml:space="preserve">
<path fill-rule="evenodd" clip-rule="evenodd" fill="#000000" d="M149.92,124.185c-6.954-0.192-23.187-3.646-29.63-6.279
	c-22.717-9.282-27.547-29.23-27.552-54.699c-0.002-19.612,0-39.227,0-58.844L59.376,0c-0.313,3.061-0.517,6.002-0.924,8.912
	C54.588,36.534,44.481,59,4.326,59.787L0,92.839c0.109,1.065,0.531,1.566,1.979,1.522C22.028,96.329,41.254,87.726,56,74.871
	c0.725-0.55,1.444-1.1,2.343-1.784c0,0.604,0.039,0.926-0.008,1.234c-4.117,27.416-28.584,49.173-56.128,49.836
	c-0.651,0.015-1.132,0.09-1.476,0.263l8.076,33.551c30.65-2.617,67.145-14.967,67.148-39.491
	c10.472,33.151,44.49,39.186,76.274,39.986L149.92,124.185z"/>
</svg>
