<?xml version="1.0" encoding="utf-8"?>
<!-- Generator: Adobe Illustrator 16.0.0, SVG Export Plug-In . SVG Version: 6.00 Build 0)  -->
<!DOCTYPE svg PUBLIC "-//W3C//DTD SVG 1.1//EN" "http://www.w3.org/Graphics/SVG/1.1/DTD/svg11.dtd">
<svg version="1.1" id="Layer_1" xmlns="http://www.w3.org/2000/svg" xmlns:xlink="http://www.w3.org/1999/xlink" x="0px" y="0px"
	 width="344px" height="44.441px" viewBox="0 0 344 44.441" enable-background="new 0 0 344 44.441" xml:space="preserve">
<g>
	<path fill="#000000" d="M99.234,36.218c-0.741,7.01-5.995,9.256-13.406,9.371c-11.376,0.176-17.305-7.637-13.963-11.414
		c1.578-1.786,5.208-2.145,6.622,0.754c1.171,2.398,2.073,5.808,7.129,6.082c1.844,0.123,3.915-0.262,4.257-2.533
		c0.3-1.968-1.284-3.655-3.188-4.684c-4.57-2.396-15.248-5.905-14.35-14.981c0.73-7.764,6.557-9.566,13.313-9.318
		c10.819,0.437,14.712,7.878,11.268,11.103c-1.77,1.589-4.697,1.634-6.339-0.809c-1.45-2.142-1.316-5.718-5.708-5.751
		c-2.501,0.039-4.086,1.423-3.765,3.834c0.319,2.311,2.374,3.84,7.272,6.131C96.222,27.656,99.897,30.217,99.234,36.218z"/>
	<path fill="#000000" d="M111.131,45.197c-3.729,0.058-7.725-1.844-7.826-8.388c-0.058-3.725-0.152-9.865-0.189-12.229l-1.604,0.024
		c-1.039,0.017-1.854-0.827-1.872-1.935l-0.007-0.453c-0.016-1.057,0.772-1.976,1.811-1.992l0.944-0.015
		c4.154-0.063,2.077-6.123,5.382-6.174c0.66-0.011,1.699-0.026,1.888-0.029c1.559-0.024,1.9,0.776,1.925,2.337
		c0.007,0.451,0.029,1.911,0.058,3.724l3.919-0.061c0.991-0.016,1.854,0.878,1.87,1.935l0.007,0.453
		c0.018,1.107-0.818,1.977-1.81,1.992l-3.918,0.061c0.045,2.918,0.184,11.878,0.184,11.878c0.042,2.718,2.083,3.392,4.281,2.049
		c0.795-0.466,1.644-0.58,2.173,0.066C119.98,40.43,116.371,45.116,111.131,45.197z"/>
	<path fill="#000000" d="M145.346,31.881c0.121,7.852-4.806,12.861-12.642,12.982c-7.884,0.122-12.964-4.733-13.085-12.585
		c-0.122-7.853,4.807-12.812,12.689-12.934C140.145,19.224,145.224,24.028,145.346,31.881z M136.565,32.017
		c-0.07-4.581-1.492-7.931-4.183-7.89c-2.738,0.043-4.055,3.435-3.983,8.016c0.07,4.58,1.492,7.982,4.23,7.939
		C135.32,40.041,136.637,36.597,136.565,32.017z"/>
	<path fill="#000000" d="M155.876,31.919c1.438,7.529,8.627,8.323,12.718,4.133c1.348-1.381,2.639-0.343,1.912,1.531
		c-1.363,3.443-4.806,6.77-10.329,6.855c-6.562,0.102-12.287-3.737-12.884-11.834c-0.597-8.045,5.22-13.572,12.301-13.682
		c7.93-0.123,13.025,5.738,10.218,10.414c-1.519,2.54-6.145,2.612-7.006-1.15c-0.812-3.613-2.156-5.102-4.416-4.664
		C156.178,23.959,155.001,27.301,155.876,31.919z"/>
	<path fill="#000000" d="M201.404,41.837c-0.031,1.058-0.732,1.521-2.148,1.544c-0.33,0.005-7.978,0.123-8.497,0.131
		c-2.171,0.034-3.356-0.301-3.193-1.914c0.164-1.664,1.626-1.787,0.894-3.335c-0.391-0.852-0.489-1.051-2.426-4.192l-1.308-2.095
		l-1.487,1.533c0.042,2.719,0.206,4.126,0.979,5.222c1.255,1.792,1.596,2.441,1.563,3.349c-0.03,1.058-0.732,1.521-2.148,1.543
		c-0.095,0.002-9.017,0.14-9.11,0.142c-1.463,0.022-2.131-0.421-2.194-1.477c-0.062-0.905,0.259-1.564,1.458-3.396
		c0.83-1.271,0.852-2.934,0.798-6.457l-0.163-10.519c-0.055-3.524-0.128-5.185-0.997-6.43c-1.255-1.792-1.596-2.441-1.563-3.349
		c0.031-1.058,0.729-1.724,2.137-2.248c1.456-0.527,4.228-1.426,4.744-1.635c2.679-0.848,4.115,0.49,4.159,3.359
		c0.02,1.259,0.141,9.061,0.258,16.66l2.88-3.115c2.508-2.707,1.318-3.293,1.389-4.855c0.035-0.755,0.402-1.415,2.008-1.44
		c1.18-0.018,5.995-0.093,6.467-0.1c1.275-0.02,1.896,0.524,1.91,1.38c0.038,2.467-3.739,2.425-7.277,5.752l-0.092,0.151l4.014,6.08
		c2.125,3.089,3.433,5.184,4.679,6.423C200.715,40.035,201.435,40.729,201.404,41.837z"/>
	<path fill="#000000" d="M235.104,37.943c1.256,1.792,1.644,2.44,1.61,3.348c-0.078,1.058-0.732,1.521-2.195,1.544
		c-0.095,0.002-9.3,0.144-9.395,0.146c-1.463,0.022-2.131-0.42-2.241-1.476c-0.062-0.905,0.306-1.565,1.506-3.396
		c0.83-1.271,0.852-2.934,0.797-6.457l-0.066-4.278l-11.518,0.179l0.066,4.278c0.054,3.523,0.127,5.184,0.996,6.429
		c1.255,1.793,1.643,2.441,1.61,3.349c-0.079,1.058-0.732,1.521-2.196,1.544c-0.094,0.001-9.299,0.144-9.394,0.146
		c-1.464,0.022-2.131-0.421-2.242-1.476c-0.061-0.905,0.307-1.565,1.506-3.396c0.83-1.271,0.852-2.934,0.798-6.457l-0.195-12.583
		c-0.054-3.474-0.127-5.133-0.996-6.429c-1.256-1.792-1.643-2.391-1.61-3.298c0.079-1.059,0.731-1.572,2.195-1.595
		c0.095-0.002,9.3-0.145,9.394-0.146c1.464-0.022,2.132,0.471,2.243,1.526c0.061,0.905-0.308,1.516-1.507,3.346
		c-0.829,1.322-0.851,2.983-0.797,6.457l0.056,3.574l11.518-0.179l-0.055-3.574c-0.054-3.474-0.127-5.133-0.997-6.429
		c-1.256-1.792-1.643-2.391-1.609-3.298c0.078-1.058,0.731-1.572,2.194-1.595c0.095-0.002,9.3-0.144,9.395-0.146
		c1.463-0.022,2.132,0.471,2.242,1.526c0.062,0.905-0.307,1.516-1.506,3.347c-0.83,1.321-0.851,2.982-0.797,6.456l0.194,12.583
		C234.162,35.037,234.234,36.697,235.104,37.943z"/>
	<path fill="#000000" d="M264.209,30.042c0.121,7.852-4.806,12.861-12.642,12.982c-7.884,0.122-12.964-4.733-13.085-12.585
		c-0.121-7.853,4.806-12.812,12.689-12.934C259.008,17.385,264.088,22.189,264.209,30.042z M255.429,30.178
		c-0.07-4.581-1.492-7.932-4.183-7.89c-2.737,0.042-4.054,3.435-3.983,8.016c0.071,4.58,1.493,7.981,4.23,7.939
		C254.184,38.201,255.5,34.758,255.429,30.178z"/>
	<path fill="#000000" d="M294.607,38.531c-0.062,2.167-2.584,3.867-5.274,3.909c-3.493,0.054-5.304-0.976-6.093-3.129
		c-1.337,2.136-4.151,3.287-7.125,3.333c-6.184,0.096-8.378-4.3-8.438-8.227c-0.013-0.855-0.053-3.423-0.053-3.423
		c-0.054-3.473-0.126-5.133-0.995-6.378c-1.256-1.794-1.643-2.442-1.563-3.349c0.031-1.059,0.728-1.724,2.137-2.248
		c1.455-0.527,4.228-1.477,4.744-1.635c2.678-0.848,4.067,0.491,4.111,3.31c0.036,2.315,0.134,8.658,0.134,8.658
		c0.055,3.522,0.075,7.901,3.521,7.849c2.076-0.032,3.135-1.811,3.088-4.881c-0.005-0.302-0.024-1.561-0.024-1.561
		c-0.054-3.473-0.127-5.134-0.996-6.378c-1.255-1.794-1.643-2.442-1.563-3.349c0.031-1.059,0.729-1.724,2.137-2.249
		c1.456-0.526,4.228-1.476,4.745-1.634c2.677-0.848,4.114,0.49,4.158,3.309c0.04,2.617,0.122,7.902,0.122,7.902
		c0.054,3.473-0.039,6.646,1.015,7.587C293.593,37.038,294.679,37.021,294.607,38.531z"/>
	<path fill="#000000" d="M317.607,35.86c-0.971,4.396-5.238,6.224-10.479,6.305c-9.865,0.152-13.734-5.729-10.906-9.096
		c1.392-1.632,4.18-1.474,5.071,1.231c1.091,3.356,2.982,3.578,4.829,3.852c1.418,0.179,3.636,0.095,3.942-1.47
		c0.396-1.92-2.683-2.426-6.295-4.031c-3.423-1.558-8.752-4.194-6.824-10.82c1.346-4.5,5.913-5.377,10.4-5.194
		c7.608,0.336,10.192,5.632,7.97,8.536c-1.065,1.325-3.707,1.416-4.823-0.53c-0.922-1.647-0.769-3.915-3.84-4.068
		c-1.324-0.13-2.641,0.242-2.856,1.555c-0.215,1.361,1.311,2.295,4.921,3.75C314.468,28.257,318.974,29.596,317.607,35.86z"/>
	<path fill="#000000" d="M343.378,35.261c-1.363,3.443-4.527,6.413-10.098,6.5c-6.562,0.101-13.137-3.774-13.551-12.227
		c-0.371-8.652,5.835-13.482,12.919-13.289c6.943,0.094,10.327,5.177,10.769,9.298c0.383,3.368-0.164,4.685-3.186,4.731
		c-2.313,0.035-11.659,0.18-11.659,0.18c1.232,6.426,9.132,7.31,12.894,3.275C342.813,32.299,344.152,33.386,343.378,35.261z
		 M328.534,24.969c-0.133,0.556,0.111,1.055,0.536,1.048c1.133-0.018,4.673-0.072,5.522-0.085c1.134-0.018,1.64-0.881,1.239-2.385
		c-0.354-1.455-1.188-3.506-3.828-3.214C329.883,20.518,328.927,22.848,328.534,24.969z"/>
</g>
<polygon fill="#000000" points="35.472,7.253 23.647,0 11.823,7.253 0,14.507 0,44.441 47.295,44.441 47.295,14.507 "/>
</svg>
