<?xml version="1.0" encoding="utf-8"?>
<!-- Generator: Adobe Illustrator 16.0.0, SVG Export Plug-In . SVG Version: 6.00 Build 0)  -->
<!DOCTYPE svg PUBLIC "-//W3C//DTD SVG 1.1//EN" "http://www.w3.org/Graphics/SVG/1.1/DTD/svg11.dtd">
<svg version="1.1" id="Layer_1" xmlns="http://www.w3.org/2000/svg" xmlns:xlink="http://www.w3.org/1999/xlink" x="0px" y="0px"
	 width="279.981px" height="277.425px" viewBox="0 0 279.981 277.425" enable-background="new 0 0 279.981 277.425"
	 xml:space="preserve">
<g>
	<path fill="#ffffff" d="M139.989,201.406c-13.189,0-25.412-4.097-35.513-11.053l-14.765,78.532l45.404,8.539l14.441-76.826
		C146.433,201.072,143.251,201.406,139.989,201.406z"/>
	<path fill="#ffffff" d="M78.524,151.056L11.66,196.342l25.905,38.249l66.164-44.798C90.96,180.704,81.712,166.993,78.524,151.056z"
		/>
	<path fill="#ffffff" d="M77.298,138.704c0-12.336,3.614-23.8,9.765-33.503L10.667,87.074L0,132.031l78.463,18.614
		C77.723,146.774,77.298,142.795,77.298,138.704z"/>
	<path fill="#ffffff" d="M128.049,77.183L83.344,13.675l-37.78,26.589l43.559,61.891C98.294,89.426,112.069,80.27,128.049,77.183z"
		/>
	<path fill="#ffffff" d="M139.989,76.013c13.191,0,25.414,4.095,35.513,11.05l14.765-78.53L144.857,0l-14.433,76.82
		C133.548,76.342,136.728,76.013,139.989,76.013z"/>
	<path fill="#ffffff" d="M201.454,126.355l66.863-45.278l-25.9-38.256l-66.164,44.805
		C189.028,96.71,198.269,110.424,201.454,126.355z"/>
	<path fill="#ffffff" d="M201.518,126.777c0.75,3.866,1.167,7.845,1.167,11.927c0,12.337-3.614,23.806-9.771,33.507l76.399,18.132
		l10.667-44.957L201.518,126.777z"/>
	<path fill="#ffffff" d="M191.887,173.887c-8.817,12.98-22.394,22.445-38.21,25.972l43.44,64.688l38.352-25.756L191.887,173.887z"/>
</g>
</svg>
