<?xml version="1.0" encoding="utf-8"?>
<!-- Generator: Adobe Illustrator 16.0.0, SVG Export Plug-In . SVG Version: 6.00 Build 0)  -->
<!DOCTYPE svg PUBLIC "-//W3C//DTD SVG 1.1//EN" "http://www.w3.org/Graphics/SVG/1.1/DTD/svg11.dtd">
<svg version="1.1" id="Layer_1" xmlns="http://www.w3.org/2000/svg" xmlns:xlink="http://www.w3.org/1999/xlink" x="0px" y="0px"
	 width="154px" height="153.498px" viewBox="0 0 154 153.498" enable-background="new 0 0 154 153.498" xml:space="preserve">
<path fill="#EA4715" d="M153.497,77.978c0.671-0.675,0.671-1.776,0-2.451l-8.118-8.188c-0.671-0.675-0.865-1.92-0.438-2.768
	l5.192-10.293c0.43-0.85,0.086-1.899-0.758-2.332l-10.251-5.276c-0.845-0.435-1.418-1.559-1.272-2.497l1.761-11.395
	c0.146-0.939-0.506-1.832-1.442-1.984l-11.381-1.849c-0.938-0.152-1.829-1.045-1.98-1.98l-1.851-11.381
	c-0.149-0.937-1.043-1.584-1.981-1.44l-11.395,1.758c-0.939,0.144-2.063-0.429-2.498-1.272l-5.273-10.251
	c-0.436-0.845-1.484-1.187-2.334-0.759L89.182,8.81c-0.851,0.428-2.094,0.23-2.77-0.438l-8.186-8.12
	c-0.676-0.668-1.776-0.668-2.452,0l-8.187,8.12c-0.675,0.669-1.919,0.868-2.768,0.438L54.526,3.617
	c-0.85-0.428-1.9-0.086-2.333,0.759l-5.275,10.251c-0.435,0.844-1.56,1.416-2.498,1.272l-11.394-1.758
	c-0.939-0.145-1.833,0.503-1.985,1.44l-1.85,11.381c-0.151,0.936-1.044,1.828-1.981,1.98l-11.38,1.849
	c-0.937,0.153-1.584,1.047-1.44,1.984l1.758,11.395c0.143,0.939-0.428,2.063-1.273,2.497L4.624,51.943
	c-0.845,0.435-1.187,1.484-0.758,2.332l5.193,10.293c0.426,0.848,0.229,2.093-0.439,2.768L0.5,75.522
	c-0.668,0.676-0.668,1.777,0,2.451l8.12,8.188c0.668,0.675,0.867,1.921,0.439,2.77L3.866,99.226
	c-0.429,0.85-0.086,1.896,0.758,2.332l10.251,5.274c0.845,0.437,1.416,1.558,1.273,2.496l-1.758,11.396
	c-0.145,0.939,0.504,1.832,1.44,1.982l11.38,1.85c0.937,0.15,1.83,1.043,1.981,1.981l1.85,11.38
	c0.152,0.938,1.047,1.588,1.985,1.441l11.394-1.76c0.94-0.145,2.064,0.428,2.498,1.272l5.275,10.251
	c0.435,0.846,1.486,1.188,2.333,0.759l10.293-5.192c0.848-0.428,2.093-0.23,2.768,0.438l8.187,8.119
	c0.675,0.669,1.776,0.669,2.452,0l8.186-8.119c0.676-0.669,1.92-0.864,2.77-0.438l10.295,5.192c0.849,0.431,1.896,0.087,2.33-0.759
	l5.275-10.251c0.436-0.845,1.559-1.417,2.498-1.272l11.395,1.76c0.938,0.146,1.83-0.504,1.981-1.441l1.851-11.38
	c0.149-0.938,1.043-1.83,1.98-1.981l11.381-1.85c0.938-0.15,1.588-1.043,1.442-1.982l-1.761-11.396
	c-0.146-0.938,0.429-2.062,1.272-2.496l10.251-5.274c0.844-0.436,1.186-1.484,0.758-2.332l-5.193-10.295
	c-0.426-0.851-0.23-2.095,0.439-2.77L153.497,77.978z M46.628,105.546c1.84-13.029,3.667-25.964,5.516-39.053
	c9.383,9.263,18.665,18.426,28.079,27.72C68.93,98.022,57.854,101.759,46.628,105.546z M104.379,85.991
	c-0.891,0.461-1.865,0.763-2.82,1.086c-5.026,1.708-10.068,3.374-15.084,5.117c-1.037,0.358-1.45,0.115-1.78-0.893
	c-1.683-5.123-3.429-10.227-5.153-15.339c-1.724-5.11-3.42-10.232-5.195-15.326c-0.359-1.032-0.113-1.478,0.875-1.802
	c5.186-1.699,10.437-3.236,15.521-5.201c7.147-2.762,16.892,0.646,20.903,7.893C116.455,70.22,113.256,81.386,104.379,85.991z"/>
</svg>
