<?xml version="1.0" encoding="utf-8"?>
<!-- Generator: Adobe Illustrator 16.0.0, SVG Export Plug-In . SVG Version: 6.00 Build 0)  -->
<!DOCTYPE svg PUBLIC "-//W3C//DTD SVG 1.1//EN" "http://www.w3.org/Graphics/SVG/1.1/DTD/svg11.dtd">
<svg version="1.1" id="Layer_1" xmlns="http://www.w3.org/2000/svg" xmlns:xlink="http://www.w3.org/1999/xlink" x="0px" y="0px"
	 width="134px" height="40px" viewBox="0 0 134 40" enable-background="new 0 0 134 40" xml:space="preserve">
<g>
	<path fill="white" d="M55,17.009c0-1.625,0.294-2.876,0.884-3.754c0.589-0.878,1.405-1.317,2.45-1.317c1.044,0,1.861,0.44,2.45,1.317
		c0.59,0.878,0.884,2.129,0.884,3.754s-0.295,2.876-0.884,3.755c-0.589,0.877-1.406,1.315-2.45,1.315s-1.861-0.438-2.45-1.315
		C55.294,19.885,55,18.633,55,17.009z M60.26,17.009c0-0.533-0.031-1.037-0.094-1.513c-0.05-0.428-0.156-0.847-0.316-1.246
		c-0.128-0.326-0.333-0.617-0.596-0.848c-0.25-0.21-0.556-0.315-0.92-0.315c-0.364,0-0.67,0.105-0.92,0.315
		c-0.264,0.231-0.468,0.522-0.596,0.848c-0.149,0.355-0.254,0.77-0.316,1.246c-0.064,0.501-0.095,1.007-0.094,1.513
		c0,0.533,0.031,1.037,0.094,1.513c0.062,0.476,0.167,0.892,0.316,1.247s0.347,0.637,0.596,0.847c0.25,0.21,0.556,0.315,0.92,0.315
		c0.364,0,0.67-0.105,0.92-0.315c0.249-0.21,0.448-0.493,0.596-0.847c0.16-0.4,0.267-0.819,0.316-1.247
		C60.23,18.02,60.261,17.515,60.26,17.009z M62.951,17.009c0-1.625,0.295-2.876,0.884-3.754c0.59-0.878,1.406-1.317,2.45-1.317
		c1.045,0,1.861,0.44,2.449,1.317c0.591,0.878,0.885,2.129,0.885,3.754s-0.294,2.876-0.885,3.755
		c-0.588,0.877-1.404,1.315-2.449,1.315c-1.044,0-1.86-0.438-2.45-1.315C63.245,19.885,62.951,18.633,62.951,17.009z M68.211,17.009
		c0-0.533-0.029-1.037-0.093-1.513c-0.05-0.428-0.157-0.847-0.317-1.247c-0.128-0.326-0.333-0.616-0.596-0.847
		c-0.25-0.21-0.556-0.315-0.92-0.315c-0.364,0-0.67,0.105-0.92,0.315c-0.249,0.21-0.447,0.493-0.596,0.847
		c-0.148,0.355-0.254,0.77-0.316,1.247c-0.064,0.501-0.096,1.007-0.094,1.513c0,0.532,0.031,1.036,0.094,1.512
		c0.062,0.477,0.168,0.892,0.316,1.247c0.149,0.355,0.347,0.637,0.596,0.848c0.25,0.21,0.556,0.315,0.92,0.315
		c0.364,0,0.67-0.105,0.92-0.315c0.264-0.231,0.468-0.522,0.596-0.848c0.16-0.4,0.268-0.819,0.317-1.247
		C68.182,18.02,68.213,17.514,68.211,17.009z M70.902,17.009c0-1.625,0.295-2.876,0.884-3.754c0.59-0.878,1.405-1.317,2.45-1.317
		c1.043,0,1.861,0.44,2.449,1.317c0.59,0.878,0.885,2.129,0.885,3.754s-0.295,2.876-0.883,3.755
		c-0.59,0.877-1.406,1.315-2.451,1.315s-1.861-0.438-2.45-1.315C71.197,19.885,70.902,18.633,70.902,17.009L70.902,17.009z
		 M76.162,17.009c0-0.533-0.031-1.037-0.094-1.513c-0.05-0.428-0.156-0.847-0.316-1.247c-0.129-0.326-0.332-0.616-0.596-0.847
		c-0.249-0.21-0.557-0.315-0.92-0.315c-0.364,0-0.67,0.105-0.92,0.315s-0.447,0.493-0.596,0.847c-0.15,0.355-0.255,0.77-0.316,1.247
		c-0.064,0.501-0.096,1.007-0.094,1.513c0,0.532,0.03,1.036,0.094,1.512c0.062,0.477,0.168,0.892,0.316,1.247
		s0.346,0.637,0.596,0.848c0.25,0.21,0.556,0.315,0.92,0.315c0.365,0,0.671-0.105,0.921-0.315c0.263-0.231,0.468-0.522,0.595-0.848
		c0.16-0.4,0.267-0.819,0.316-1.247C76.132,18.02,76.163,17.514,76.162,17.009z M85.393,21.869c-0.303-0.762-0.587-1.53-0.855-2.304
		c-0.309-0.888-0.585-1.787-0.826-2.696c-0.242,0.908-0.516,1.807-0.82,2.696c-0.264,0.775-0.546,1.542-0.847,2.304H80.88
		c-0.485-1.075-0.917-2.173-1.293-3.291c-0.446-1.316-0.845-2.647-1.192-3.992h1.437c0.096,0.438,0.21,0.915,0.345,1.428
		c0.135,0.516,0.276,1.03,0.424,1.541c0.149,0.514,0.305,1.009,0.467,1.485c0.164,0.476,0.316,0.892,0.461,1.246
		c0.162-0.439,0.322-0.903,0.48-1.393c0.158-0.49,0.311-0.985,0.453-1.485c0.145-0.5,0.28-0.99,0.41-1.47
		c0.12-0.449,0.232-0.9,0.337-1.352h1.106c0.086,0.42,0.192,0.87,0.316,1.351c0.258,0.993,0.543,1.979,0.855,2.956
		c0.158,0.49,0.318,0.955,0.48,1.393c0.145-0.355,0.295-0.77,0.453-1.246c0.485-1.464,0.9-2.95,1.243-4.454h1.38
		c-0.349,1.345-0.746,2.676-1.193,3.992c-0.376,1.118-0.808,2.216-1.293,3.291H85.393L85.393,21.869z M89.88,18.241
		c0-0.644,0.097-1.207,0.287-1.687c0.192-0.481,0.446-0.88,0.763-1.198c0.307-0.312,0.68-0.555,1.092-0.714
		c0.402-0.158,0.832-0.239,1.265-0.239c1.006,0,1.776,0.306,2.313,0.918c0.537,0.612,0.805,1.543,0.805,2.795v0.216
		c0,0.09-0.004,0.17-0.014,0.245h-5.117c0.058,0.757,0.283,1.331,0.676,1.723c0.393,0.394,1.006,0.589,1.84,0.589
		c0.47,0,0.863-0.039,1.186-0.119c0.248-0.056,0.49-0.133,0.726-0.23l0.187,1.092c-0.162,0.084-0.447,0.174-0.854,0.266
		c-0.407,0.095-0.87,0.141-1.388,0.141c-0.651,0-1.213-0.096-1.688-0.287c-0.445-0.172-0.847-0.441-1.172-0.791
		c-0.312-0.346-0.545-0.754-0.682-1.198C89.949,19.269,89.875,18.756,89.88,18.241z M95.01,17.527
		c0.01-0.588-0.141-1.072-0.453-1.45c-0.31-0.378-0.74-0.567-1.285-0.567c-0.541-0.011-1.057,0.22-1.408,0.63
		c-0.165,0.191-0.295,0.41-0.381,0.645c-0.092,0.242-0.151,0.49-0.18,0.742H95.01z M99.512,14.907
		c0.164-0.102,0.41-0.209,0.74-0.321c0.331-0.113,0.712-0.169,1.143-0.169c0.537,0,1.014,0.094,1.431,0.28
		c0.407,0.181,0.771,0.45,1.057,0.785c0.287,0.336,0.505,0.738,0.653,1.205c0.148,0.466,0.223,0.98,0.223,1.54
		c0,0.589-0.09,1.119-0.266,1.59c-0.163,0.449-0.42,0.857-0.754,1.199c-0.334,0.33-0.735,0.59-1.18,0.756
		c-0.459,0.178-0.977,0.266-1.552,0.266c-0.554,0.006-1.106-0.037-1.653-0.126c-0.479-0.084-0.871-0.168-1.178-0.252V11.224
		L99.512,11V14.907L99.512,14.907z M99.512,20.734c0.135,0.037,0.324,0.072,0.568,0.105c0.303,0.036,0.607,0.053,0.913,0.049
		c0.718,0,1.293-0.23,1.724-0.694c0.43-0.462,0.646-1.118,0.646-1.968c0-0.373-0.038-0.723-0.114-1.05
		c-0.067-0.305-0.194-0.593-0.374-0.848c-0.174-0.239-0.402-0.431-0.668-0.56c-0.273-0.135-0.602-0.203-0.984-0.203
		c-0.365,0-0.699,0.06-1.006,0.182s-0.541,0.248-0.705,0.378V20.734z M106.486,21.869V11.224L107.822,11v3.726
		c0.523-0.195,1.078-0.294,1.638-0.294c0.595,0,1.088,0.081,1.479,0.244c0.395,0.164,0.709,0.393,0.942,0.687
		c0.235,0.294,0.4,0.647,0.496,1.057c0.097,0.411,0.144,0.864,0.144,1.36v4.09h-1.336v-3.81c0-0.449-0.031-0.832-0.094-1.15
		c-0.063-0.317-0.166-0.574-0.31-0.77c-0.145-0.197-0.345-0.345-0.574-0.427c-0.24-0.089-0.536-0.133-0.89-0.133
		c-0.146,0-0.293,0.01-0.447,0.028c-0.153,0.019-0.299,0.04-0.438,0.063c-0.125,0.021-0.25,0.047-0.375,0.077
		c-0.08,0.02-0.16,0.043-0.236,0.07v6.051H106.486z M121.134,18.227c0,0.58-0.086,1.102-0.258,1.57
		c-0.159,0.445-0.407,0.854-0.726,1.203c-0.311,0.335-0.69,0.6-1.114,0.777c-0.446,0.185-0.925,0.277-1.408,0.272
		c-0.483,0.005-0.962-0.088-1.409-0.272c-0.422-0.177-0.802-0.441-1.113-0.777c-0.319-0.35-0.566-0.759-0.726-1.205
		c-0.179-0.503-0.267-1.035-0.259-1.569c0-0.57,0.086-1.09,0.259-1.561c0.173-0.472,0.414-0.876,0.726-1.212
		c0.31-0.335,0.689-0.6,1.113-0.777c0.447-0.185,0.926-0.278,1.409-0.274c0.509,0,0.978,0.091,1.408,0.274
		c0.431,0.182,0.802,0.44,1.114,0.777c0.311,0.336,0.553,0.74,0.726,1.212C121.048,17.136,121.134,17.657,121.134,18.227
		L121.134,18.227z M119.74,18.227c0-0.821-0.19-1.473-0.567-1.954c-0.379-0.48-0.894-0.72-1.545-0.72s-1.167,0.24-1.545,0.72
		c-0.379,0.481-0.567,1.133-0.567,1.954c0,0.822,0.188,1.473,0.567,1.954c0.378,0.481,0.894,0.721,1.545,0.721
		s1.166-0.239,1.545-0.721C119.551,19.701,119.74,19.049,119.74,18.227z M124.602,20.932c0.547,0,0.951-0.07,1.215-0.211
		c0.263-0.14,0.395-0.365,0.395-0.673c0-0.317-0.129-0.57-0.388-0.756c-0.259-0.187-0.685-0.397-1.279-0.63
		c-0.278-0.108-0.554-0.223-0.826-0.344c-0.245-0.105-0.476-0.245-0.683-0.413c-0.191-0.158-0.348-0.353-0.46-0.574
		c-0.115-0.224-0.173-0.5-0.173-0.827c0-0.644,0.244-1.155,0.734-1.533c0.487-0.378,1.153-0.568,1.997-0.568
		c0.21,0,0.421,0.012,0.632,0.035c0.211,0.024,0.407,0.052,0.59,0.084c0.182,0.033,0.343,0.068,0.481,0.105
		c0.108,0.028,0.217,0.062,0.323,0.099l-0.244,1.12c-0.217-0.1-0.443-0.177-0.676-0.23c-0.362-0.086-0.734-0.127-1.106-0.12
		c-0.374,0-0.7,0.072-0.978,0.217c-0.264,0.122-0.428,0.39-0.416,0.68c0,0.158,0.029,0.298,0.093,0.42
		c0.069,0.13,0.167,0.243,0.287,0.33c0.13,0.097,0.29,0.188,0.481,0.272s0.422,0.173,0.69,0.266c0.354,0.13,0.67,0.26,0.948,0.385
		c0.258,0.114,0.496,0.262,0.712,0.441c0.196,0.169,0.347,0.372,0.452,0.61c0.105,0.238,0.158,0.53,0.158,0.875
		c0,0.673-0.256,1.181-0.769,1.527c-0.513,0.345-1.244,0.518-2.192,0.518c-0.66,0-1.179-0.053-1.552-0.16
		c-0.257-0.07-0.512-0.152-0.762-0.246l0.244-1.119c0.153,0.055,0.397,0.139,0.733,0.252
		C123.602,20.875,124.046,20.932,124.602,20.932z M130.369,14.586h2.83v1.092h-2.83v3.362c0,0.364,0.027,0.665,0.086,0.903
		c0.057,0.238,0.143,0.425,0.258,0.56c0.115,0.136,0.26,0.231,0.432,0.288s0.375,0.084,0.604,0.084c0.402,0,0.727-0.045,0.97-0.133
		c0.244-0.09,0.415-0.152,0.511-0.19l0.258,1.08c-0.228,0.099-0.463,0.181-0.703,0.244c-0.375,0.104-0.762,0.153-1.15,0.147
		c-0.507,0-0.927-0.063-1.257-0.189c-0.313-0.113-0.589-0.309-0.798-0.566c-0.211-0.274-0.356-0.594-0.424-0.933
		c-0.087-0.421-0.128-0.851-0.122-1.281v-6.499l1.337-0.225V14.586L130.369,14.586z M56.668,26.044c0.573,0,1.013,0.101,1.32,0.302
		c0.308,0.2,0.461,0.53,0.461,0.987c0,0.461-0.155,0.794-0.466,0.999c-0.31,0.205-0.755,0.307-1.332,0.307h-0.272v1.283h-0.866
		v-3.777c0.198-0.039,0.398-0.064,0.6-0.078C56.298,26.053,56.483,26.045,56.668,26.044z M56.723,26.779
		c-0.062,0-0.124,0.002-0.186,0.006c-0.053,0.003-0.105,0.007-0.158,0.011v1.106h0.272c0.3,0,0.526-0.039,0.677-0.121
		c0.152-0.08,0.228-0.232,0.228-0.453c0.003-0.092-0.017-0.184-0.059-0.266c-0.039-0.07-0.096-0.129-0.166-0.17
		c-0.082-0.045-0.171-0.074-0.264-0.088C56.953,26.787,56.838,26.779,56.723,26.779z M60.319,28.003c0,0.188,0.023,0.356,0.07,0.509
		c0.046,0.15,0.112,0.28,0.2,0.391c0.085,0.107,0.195,0.193,0.319,0.25c0.125,0.061,0.27,0.09,0.433,0.09
		c0.159,0,0.302-0.03,0.43-0.09c0.125-0.057,0.236-0.143,0.322-0.25c0.091-0.116,0.159-0.249,0.2-0.391
		c0.046-0.152,0.069-0.32,0.069-0.51c0.002-0.173-0.021-0.346-0.07-0.511c-0.041-0.143-0.109-0.276-0.2-0.394
		c-0.086-0.107-0.196-0.194-0.322-0.252c-0.135-0.061-0.282-0.09-0.43-0.088c-0.292-0.012-0.571,0.117-0.752,0.346
		c-0.087,0.108-0.153,0.24-0.2,0.393C60.342,27.648,60.319,27.818,60.319,28.003z M63.255,28.003c0,0.328-0.049,0.616-0.147,0.865
		c-0.088,0.234-0.226,0.447-0.402,0.625c-0.172,0.169-0.38,0.3-0.608,0.38c-0.243,0.086-0.5,0.129-0.757,0.127
		c-0.263,0-0.511-0.043-0.744-0.127c-0.471-0.169-0.845-0.536-1.022-1.004c-0.1-0.25-0.15-0.538-0.15-0.866
		c0-0.329,0.052-0.617,0.156-0.866c0.095-0.236,0.238-0.449,0.42-0.628c0.172-0.168,0.38-0.299,0.61-0.382
		c0.23-0.085,0.474-0.127,0.73-0.127c0.262,0,0.51,0.042,0.743,0.127c0.473,0.17,0.846,0.539,1.021,1.01
		C63.205,27.386,63.255,27.674,63.255,28.003z M67.007,26.498l0.147,0.511c0.054,0.19,0.111,0.388,0.172,0.591
		c0.061,0.202,0.123,0.404,0.186,0.607c0.063,0.203,0.125,0.391,0.184,0.564c0.109-0.43,0.205-0.863,0.289-1.299
		c0.086-0.462,0.17-0.923,0.25-1.385h0.898c-0.133,0.654-0.281,1.307-0.447,1.953c-0.16,0.633-0.343,1.26-0.547,1.881h-0.792
		c-0.135-0.369-0.26-0.74-0.378-1.115c-0.122-0.389-0.243-0.779-0.36-1.17l-0.356,1.17c-0.118,0.391-0.242,0.762-0.372,1.115h-0.794
		c-0.204-0.62-0.386-1.247-0.546-1.88c-0.166-0.647-0.314-1.299-0.447-1.954h0.938c0.12,0.693,0.256,1.383,0.408,2.07
		c0.05,0.22,0.1,0.425,0.152,0.613c0.067-0.181,0.131-0.373,0.195-0.576c0.063-0.202,0.123-0.405,0.183-0.607
		c0.06-0.203,0.114-0.398,0.164-0.587c0.05-0.188,0.095-0.356,0.136-0.503H67.007L67.007,26.498z M70.191,29.923v-3.835h2.599v0.725
		h-1.731v0.752h1.537v0.709h-1.537v0.925h1.859v0.725H70.191z M75.188,26.044c0.576,0,1.02,0.103,1.326,0.308
		s0.461,0.522,0.461,0.953c0,0.271-0.063,0.488-0.187,0.656s-0.304,0.3-0.535,0.395c0.077,0.097,0.159,0.207,0.244,0.33
		c0.271,0.394,0.509,0.807,0.71,1.236h-0.971c-0.071-0.125-0.141-0.252-0.215-0.381c-0.137-0.248-0.287-0.488-0.446-0.723
		c-0.069-0.102-0.144-0.2-0.222-0.295h-0.428v1.399h-0.865v-3.78c0.192-0.037,0.389-0.063,0.584-0.076
		C74.848,26.051,75.027,26.044,75.188,26.044z M75.236,26.779c-0.057,0-0.113,0.002-0.17,0.006
		c-0.047,0.004-0.094,0.007-0.141,0.011v1.04h0.244c0.326,0,0.561-0.04,0.7-0.121s0.21-0.22,0.21-0.415
		c0-0.188-0.071-0.321-0.213-0.401C75.725,26.818,75.514,26.779,75.236,26.779L75.236,26.779z M78.268,29.922v-3.834h2.597v0.725
		h-1.732v0.752h1.538v0.709h-1.538v0.925h1.86v0.725L78.268,29.922L78.268,29.922z M83,29.221c0.111,0.006,0.222,0.01,0.333,0.01
		c0.433,0,0.754-0.109,0.964-0.326c0.208-0.217,0.313-0.519,0.313-0.901c0-0.403-0.1-0.707-0.299-0.913
		c-0.201-0.207-0.517-0.311-0.949-0.311c-0.06,0-0.12,0-0.184,0.004c-0.06,0.001-0.119,0.006-0.178,0.013V29.221z M85.504,28.003
		c0,0.331-0.052,0.62-0.156,0.868c-0.096,0.236-0.246,0.447-0.439,0.613c-0.204,0.17-0.441,0.293-0.697,0.365
		c-0.3,0.086-0.609,0.127-0.922,0.123c-0.155,0-0.337-0.007-0.544-0.021c-0.205-0.013-0.409-0.039-0.61-0.08v-3.733
		c0.206-0.037,0.414-0.063,0.624-0.076c0.187-0.011,0.372-0.018,0.558-0.019c0.303-0.003,0.604,0.034,0.896,0.11
		c0.268,0.074,0.499,0.189,0.691,0.35c0.193,0.158,0.341,0.36,0.443,0.607C85.452,27.359,85.504,27.656,85.504,28.003L85.504,28.003
		z M89.848,29.973c-0.209,0-0.42-0.007-0.63-0.02c-0.22-0.015-0.437-0.045-0.651-0.092v-3.717c0.192-0.035,0.387-0.061,0.582-0.076
		c0.211-0.017,0.408-0.024,0.588-0.024c0.246,0,0.471,0.019,0.675,0.054c0.206,0.034,0.383,0.094,0.53,0.18
		c0.143,0.078,0.263,0.193,0.348,0.334c0.088,0.156,0.131,0.333,0.124,0.512c0,0.307-0.147,0.548-0.442,0.725
		c0.243,0.092,0.409,0.217,0.5,0.377c0.088,0.157,0.133,0.336,0.133,0.535c0,0.402-0.148,0.705-0.442,0.908
		S90.43,29.973,89.848,29.973L89.848,29.973z M89.41,28.251v0.99c0.149,0.015,0.3,0.022,0.449,0.022c0.26,0,0.468-0.037,0.627-0.111
		c0.16-0.072,0.24-0.209,0.24-0.409c0-0.177-0.067-0.302-0.201-0.378c-0.133-0.075-0.323-0.114-0.571-0.114H89.41z M89.41,27.593
		h0.422c0.266,0,0.456-0.034,0.57-0.102c0.115-0.068,0.173-0.179,0.173-0.33c0-0.154-0.06-0.263-0.177-0.326
		c-0.119-0.063-0.293-0.094-0.522-0.094l-0.239,0.003c-0.076,0.001-0.151,0.006-0.227,0.014V27.593z M94.021,27.665
		c0.155-0.263,0.304-0.524,0.444-0.786c0.14-0.259,0.269-0.523,0.388-0.79h0.955c-0.207,0.405-0.426,0.806-0.654,1.2
		c-0.23,0.395-0.469,0.783-0.717,1.167v1.466H93.57v-1.455c-0.248-0.385-0.487-0.776-0.719-1.173
		c-0.229-0.396-0.449-0.798-0.656-1.206H93.2c0.118,0.266,0.245,0.53,0.382,0.791C93.719,27.141,93.865,27.402,94.021,27.665z
		 M100.941,26.088h0.867v3.834h-0.867v-1.626h-1.455v1.626h-0.865v-3.834h0.865v1.467h1.455V26.088L100.941,26.088z M103.927,28.003
		c0,0.188,0.023,0.356,0.07,0.509c0.046,0.15,0.112,0.28,0.2,0.391c0.085,0.107,0.193,0.193,0.318,0.25
		c0.125,0.061,0.27,0.09,0.432,0.09c0.16,0,0.304-0.03,0.431-0.09c0.126-0.057,0.236-0.143,0.323-0.25
		c0.086-0.11,0.152-0.24,0.199-0.391c0.045-0.152,0.068-0.32,0.068-0.51c0-0.188-0.023-0.357-0.068-0.511
		c-0.041-0.143-0.109-0.276-0.2-0.394c-0.087-0.107-0.196-0.194-0.322-0.252c-0.136-0.061-0.282-0.09-0.431-0.088
		c-0.291-0.012-0.57,0.117-0.752,0.346c-0.086,0.108-0.153,0.24-0.199,0.393S103.926,27.818,103.927,28.003L103.927,28.003z
		 M106.863,28.003c0,0.328-0.049,0.616-0.147,0.865c-0.089,0.234-0.226,0.447-0.401,0.625c-0.173,0.169-0.381,0.3-0.608,0.38
		c-0.243,0.086-0.5,0.129-0.759,0.127c-0.253,0.002-0.504-0.041-0.743-0.127c-0.471-0.17-0.843-0.537-1.021-1.004
		c-0.1-0.25-0.15-0.538-0.15-0.866c0-0.329,0.052-0.617,0.154-0.866c0.104-0.25,0.244-0.459,0.42-0.628
		c0.174-0.168,0.381-0.299,0.61-0.382c0.233-0.086,0.481-0.129,0.729-0.127c0.264,0,0.511,0.042,0.744,0.127s0.437,0.212,0.61,0.382
		c0.175,0.171,0.312,0.38,0.411,0.628C106.813,27.386,106.863,27.674,106.863,28.003z M109.139,29.264
		c0.121,0,0.223-0.011,0.303-0.031c0.068-0.015,0.133-0.043,0.19-0.082c0.045-0.03,0.079-0.074,0.101-0.125
		c0.019-0.051,0.028-0.105,0.027-0.159c0-0.126-0.06-0.23-0.178-0.313c-0.118-0.082-0.322-0.172-0.609-0.268
		c-0.129-0.045-0.255-0.096-0.379-0.152c-0.122-0.055-0.236-0.128-0.338-0.216s-0.185-0.195-0.244-0.315
		c-0.066-0.141-0.1-0.295-0.095-0.451c0-0.178,0.033-0.336,0.101-0.479c0.065-0.142,0.159-0.262,0.282-0.36
		c0.122-0.101,0.271-0.178,0.444-0.23c0.174-0.055,0.369-0.08,0.589-0.08c0.396-0.007,0.786,0.084,1.138,0.266l-0.25,0.68
		c-0.115-0.059-0.236-0.107-0.359-0.146c-0.153-0.045-0.313-0.066-0.473-0.063c-0.207,0-0.356,0.027-0.447,0.084
		c-0.09,0.058-0.137,0.146-0.137,0.264c0,0.07,0.018,0.13,0.051,0.177c0.037,0.053,0.086,0.097,0.141,0.13
		c0.063,0.039,0.132,0.074,0.211,0.105c0.08,0.031,0.168,0.064,0.264,0.097c0.2,0.074,0.375,0.147,0.522,0.22
		c0.147,0.071,0.271,0.154,0.37,0.25c0.097,0.096,0.172,0.211,0.218,0.338c0.048,0.129,0.071,0.287,0.071,0.471
		c0,0.357-0.125,0.635-0.377,0.833C110.025,29.9,109.645,30,109.139,30c-0.279,0.004-0.557-0.031-0.824-0.105
		c-0.162-0.043-0.318-0.106-0.465-0.188l0.246-0.688c0.113,0.063,0.256,0.121,0.424,0.17
		C108.688,29.24,108.895,29.264,109.139,29.264L109.139,29.264z M114.564,26.088v0.736h-1.158v3.098h-0.866v-3.097h-1.16v-0.736
		L114.564,26.088L114.564,26.088z M115.625,26.088h0.866v3.834h-0.866V26.088z M120.465,29.922c-0.251-0.443-0.52-0.877-0.806-1.3
		c-0.283-0.42-0.591-0.825-0.921-1.211v2.511h-0.855v-3.834h0.705c0.122,0.122,0.258,0.271,0.406,0.448
		c0.32,0.384,0.624,0.782,0.91,1.192c0.15,0.215,0.294,0.424,0.427,0.623v-2.264h0.86v3.834H120.465L120.465,29.922z M124.46,26.752
		c-0.403,0-0.694,0.112-0.874,0.335c-0.18,0.224-0.27,0.528-0.27,0.915c0,0.189,0.022,0.359,0.066,0.512
		c0.045,0.153,0.111,0.285,0.2,0.396c0.089,0.109,0.2,0.195,0.333,0.257c0.134,0.06,0.289,0.091,0.467,0.091
		c0.096,0,0.178-0.001,0.246-0.005c0.069-0.004,0.129-0.011,0.18-0.022v-1.334h0.867v1.898c-0.104,0.04-0.27,0.084-0.5,0.13
		s-0.513,0.07-0.85,0.07c-0.268,0.003-0.533-0.042-0.784-0.134c-0.228-0.084-0.433-0.215-0.603-0.387
		c-0.172-0.179-0.305-0.393-0.387-0.625c-0.094-0.272-0.141-0.559-0.136-0.847c0-0.321,0.05-0.604,0.149-0.853
		c0.093-0.234,0.232-0.447,0.412-0.627c0.174-0.172,0.383-0.305,0.612-0.391c0.24-0.09,0.496-0.135,0.753-0.133
		c0.293-0.003,0.586,0.038,0.868,0.119c0.144,0.04,0.28,0.099,0.408,0.174l-0.25,0.691c-0.13-0.067-0.267-0.122-0.408-0.164
		C124.799,26.773,124.63,26.75,124.46,26.752z M126.984,29.922v-3.834h2.599v0.725h-1.731v0.752h1.537v0.709h-1.537v0.925h1.859
		v0.725L126.984,29.922L126.984,29.922z M131.979,26.044c0.578,0,1.021,0.103,1.328,0.308c0.307,0.205,0.461,0.522,0.461,0.953
		c0,0.271-0.063,0.488-0.187,0.656s-0.304,0.3-0.536,0.395c0.078,0.097,0.16,0.207,0.245,0.33c0.271,0.394,0.508,0.807,0.71,1.236
		h-0.973l-0.213-0.381c-0.137-0.248-0.287-0.488-0.446-0.723c-0.069-0.102-0.144-0.2-0.222-0.295h-0.428v1.399h-0.865v-3.78
		c0.192-0.037,0.389-0.063,0.584-0.076C131.641,26.051,131.82,26.044,131.979,26.044z M132.029,26.779
		c-0.057,0-0.113,0.002-0.17,0.006l-0.141,0.011v1.04h0.244c0.326,0,0.561-0.04,0.7-0.121s0.21-0.22,0.21-0.415
		c0-0.188-0.07-0.321-0.213-0.401S132.307,26.779,132.029,26.779L132.029,26.779z"/>
	<path fill="white" d="M15.802,15.388c-2.05,18.809,14.853,21.709,19.653,16.307C27.004,52.654,7.151,28.945,15.802,15.388z M12.552,13.038
		C5.25,14.087-5.6,37.348,7.25,34.695c-7.901-2.852,0.05-19.308,5.3-21.659L12.552,13.038z M12.552,10.086
		C10.002,8.886,0.7,12.437,0,19.59C1.75,15.788,6.301,10.636,12.552,10.086z M15.752,7.434c-3.9-3.05-8.551,0.451-10.001,1.251
		C9.651,4.133,15.502,4.884,15.752,7.434L15.752,7.434z M19.452,6.484c2.701-2.451-1.35-7.103-5.25-3.351
		C15.602,2.533,20.302,1.733,19.452,6.484L19.452,6.484z M23.904,7.184c5.15-4.902,0.85-6.802-0.5-6.903
		C30.604-1.569,27.404,6.285,23.904,7.184L23.904,7.184z M24.754,10.186c5.35,2.051,21.303-6.803,8.601-8.554
		C36.255,2.332,36.905,8.185,24.754,10.186L24.754,10.186L24.754,10.186z M21.003,14.638c3.55,10.254,35.255,9.303,21.603-4.552
		C45.556,14.838,38.206,23.292,21.003,14.638z"/>
</g>
</svg>
