<?xml version="1.0" encoding="utf-8"?>
<!-- Generator: Adobe Illustrator 16.0.0, SVG Export Plug-In . SVG Version: 6.00 Build 0)  -->
<!DOCTYPE svg PUBLIC "-//W3C//DTD SVG 1.1//EN" "http://www.w3.org/Graphics/SVG/1.1/DTD/svg11.dtd">
<svg version="1.1" id="Layer_1" xmlns="http://www.w3.org/2000/svg" xmlns:xlink="http://www.w3.org/1999/xlink" x="0px" y="0px"
	 width="343.057px" height="149.307px" viewBox="0 0 343.057 149.307" enable-background="new 0 0 343.057 149.307"
	 xml:space="preserve">
<path fill="#000000" d="M180.651,131.687c-1.403-1.371-0.863-3.141-0.868-4.753c-0.029-20.076-0.008-40.153-0.024-60.229
	c-0.009-9.807-3.295-12.967-13.072-12.747c-6.862,0.156-13.129,2.609-19.392,5.092c-1.641,0.648-3.248,1.386-4.953,2.115
	c-1.313-5.664,0.309-10.192,3.428-14.594c13.759-19.415,41.021-22.029,56.594-5.294c5.017,5.394,8.155,11.979,8.415,19.184
	c0.843,23.696,0.736,47.416,0.091,71.125c-3.01,1.276-11.792,1.916-14.862,1.853C189.017,133.29,187.617,132.899,180.651,131.687z"
	/>
<g>
	<path fill="#000000" d="M67.128,22.993c0,25.106,0,49.563,0,74.021c0,4.712,0.276,9.443-0.087,14.124
		c-0.284,3.642,1.217,5.044,4.398,5.949c8.265,2.358,8.355,2.731,7.699,11.386c-0.146,1.896-0.646,2.689-2.606,2.686
		c-8.685-0.024-17.369-0.038-26.053-0.037c-8.678,0-17.355,0.014-26.032,0.041c-2.167,0.006-2.974-0.961-2.943-2.99
		c0.006-0.304-0.03-0.604-0.052-0.908c-0.558-7.375-0.56-7.375,6.302-9.713c7.544-2.567,7.545-2.567,7.545-10.374
		c0-15.195,0-30.39,0-45.584c-0.001-6.975-1.076-8.15-7.994-9.179c-1.84-0.272-4.594,0.832-5.322-1.224
		c-0.927-2.62-0.75-5.664-0.902-8.534c-0.073-1.345,1.238-1.598,2.154-1.97C37.633,34.859,52.045,29.066,67.128,22.993z"/>
	<path fill="#000000" d="M117.643,131.404c-1.403-1.368-0.864-3.132-0.868-4.738c-0.03-20.021-0.006-40.042-0.024-60.063
		c-0.009-9.781-3.295-12.931-13.074-12.711c-6.86,0.154-13.127,2.603-19.391,5.078c-1.639,0.646-3.245,1.382-4.95,2.11
		c-1.313-5.647,0.306-10.165,3.426-14.554c13.758-19.362,41.022-21.968,56.594-5.279c5.019,5.378,8.154,11.946,8.413,19.131
		c0.845,23.627,0.737,47.28,0.095,70.925c-3.012,1.272-13.505,1.915-16.576,1.852C124.296,133.006,124.61,132.613,117.643,131.404z"
		/>
	<path fill="#000000" d="M147.862,129.95"/>
	<path fill="#000000" d="M117.643,130.051"/>
</g>
<g>
	<g enable-background="new    ">
		<path fill="#000000" d="M324.985,86.928c0,26.97-16.002,46.387-41.893,45.668c-12.406-0.539-21.216-6.652-27.148-14.563
			c-3.236,4.675-11.508,14.563-17.98,14.563c-3.416,0-7.371-0.539-8.81-5.034c-1.259-4.136-0.539-24.452-0.539-37.038V52.948
			c0-12.586-0.181-18.52-3.417-23.014c-4.674-6.473-5.933-8.811-5.753-12.047c0.36-3.775,2.877-6.113,8.45-7.911
			c5.395-1.798,16.002-4.854,17.98-5.573c10.248-2.877,15.642,1.978,15.642,12.226c0,3.417,0,17.44,0,33.083
			c5.394-4.854,12.585-8.091,21.575-8.271C308.983,40.542,324.985,59.96,324.985,86.928z M291.543,86.928
			c0-15.821-5.573-27.328-16.541-27.328c-11.147,0-16.721,11.507-16.721,27.328c0,15.822,5.573,27.509,16.721,27.509
			C285.969,114.437,291.543,102.751,291.543,86.928z"/>
	</g>
</g>
<ellipse fill="#000000" cx="50.457" cy="130.581" rx="27.962" ry="2.205"/>
</svg>
