<?xml version="1.0" encoding="utf-8"?>
<!-- Generator: Adobe Illustrator 16.0.0, SVG Export Plug-In . SVG Version: 6.00 Build 0)  -->
<!DOCTYPE svg PUBLIC "-//W3C//DTD SVG 1.1//EN" "http://www.w3.org/Graphics/SVG/1.1/DTD/svg11.dtd">
<svg version="1.1" id="Layer_1" xmlns="http://www.w3.org/2000/svg" xmlns:xlink="http://www.w3.org/1999/xlink" x="0px" y="0px"
	 width="1397.731px" height="596.459px" viewBox="0 0 1397.731 596.459" enable-background="new 0 0 1397.731 596.459"
	 xml:space="preserve">
<g>
	<path fill-rule="evenodd" clip-rule="evenodd" fill="#000000" d="M736.858,258.857c-17.825,0-35.294,0-53.539,0
		c0-4.903,0-9.729,0-15.822c-2.6,2.343-4.13,3.756-5.696,5.128c-12.063,10.565-26.457,14.841-42.151,15.853
		c-50.837,3.279-84.091-38.609-89.61-75.863c-4.318-29.152,0.319-56.304,18.783-80.241c27.94-36.223,70.297-39.417,99.612-25.758
		c6.612,3.081,12.326,8.09,18.854,12.48c0-4.638,0-9.358,0-14.346c18.185,0,35.77,0,53.747,0
		C736.858,139.634,736.858,198.994,736.858,258.857z M598.256,169.341c-0.146,25.52,16.838,43.378,41.359,43.491
		c26.447,0.122,43.361-16.425,43.619-42.674c0.255-26.009-16.511-43.866-41.303-43.99
		C615.38,126.034,598.408,142.812,598.256,169.341z"/>
	<path fill-rule="evenodd" clip-rule="evenodd" fill="#000000" d="M972.708,383.508c0-6.514,0-12.275,0-18.264
		c13.503,0,26.607,0,40.54,0c0,2.081,0,4.157,0,6.233c0,48.978-0.324,97.958,0.098,146.932
		c0.376,43.714-25.804,67.342-61.433,75.197c-25.909,5.713-51.391,3.185-74.824-10.669c-10.663-6.304-18.874-15.039-24.884-26.32
		c11.977-6.945,23.596-13.683,35.374-20.512c2.201,2.933,4.145,5.805,6.369,8.439c15.461,18.319,49.005,17.413,63.481,6.923
		c7.847-5.685,12.793-13.253,14.043-22.707c1.082-8.18,1.025-16.511,1.535-25.948c-1.609,1.202-2.285,1.543-2.742,2.072
		c-15.754,18.271-36.37,22.952-59.194,20.759c-40.759-3.917-73.959-41.635-70.598-87.442c2.584-35.218,19.871-60.689,52.731-73.325
		c23.974-9.22,48.133-7.771,69.397,9.149C965.947,376.687,968.868,379.878,972.708,383.508z M927.244,487.832
		c26.181,0,45.065-18.473,45.285-44.297c0.217-25.351-19.152-44.362-45.201-44.367c-26.302-0.006-45.122,18.48-45.078,44.279
		C882.294,469.411,900.968,487.833,927.244,487.832z"/>
	<path fill-rule="evenodd" clip-rule="evenodd" fill="#000000" d="M388.574,190.838c5.989,15.132,17.02,22.066,31.501,24.149
		c16.261,2.338,31.603,0.707,44.297-11.302c0.646-0.612,2.543-0.659,3.407-0.171c13.6,7.681,27.126,15.492,41.041,23.488
		c-8.039,11.644-17.78,21.032-30.241,26.522c-36.466,16.068-72.814,15.665-106.943-5.763c-25.48-15.999-38.126-40.663-40-70.678
		c-1.749-28.024,5.422-53.077,25.111-73.842c15.831-16.695,35.407-25.651,58.149-27.811c30.217-2.87,56.843,4.793,77.958,27.581
		c20.209,21.812,26.843,48.053,24.417,77.082c-0.291,3.472-0.958,6.912-1.504,10.742
		C473.48,190.838,431.381,190.838,388.574,190.838z M463.586,150.879c-3.317-18.377-19.218-28.91-41.211-27.699
		c-18.146,0.998-32.921,12.966-34.081,27.699C413.273,150.879,438.245,150.879,463.586,150.879z"/>
	<path fill-rule="evenodd" clip-rule="evenodd" fill="#000000" d="M1395.7,190.918c-42.35,0-84.321,0-126.913,0
		c2.183,6.544,5.683,11.58,10.647,15.576c16.46,13.25,47.486,12.609,63.248-1.48c2.451-2.191,4.073-2.34,6.795-0.735
		c12.888,7.599,25.895,14.993,39.347,22.74c-6.989,10.105-15.47,18.055-25.724,24.095c-21.508,12.666-44.939,14.684-69.087,11.961
		c-26.604-3-48.523-14.672-64.744-36.246c-14.398-19.149-18.74-41.048-17.716-64.564c2.086-47.846,41.271-86.104,89.175-87.357
		c26.171-0.685,49.425,5.862,68.509,24.453c22.907,22.317,30.671,49.926,27.986,81.09
		C1396.927,183.885,1396.239,187.286,1395.7,190.918z M1343.507,150.767c-2.647-17.407-17.77-27.888-39.519-27.599
		c-18.678,0.249-33.836,11.927-35.799,27.599C1293.287,150.767,1318.379,150.767,1343.507,150.767z"/>
	<path fill-rule="evenodd" clip-rule="evenodd" fill="#000000" d="M128.57,190.895c15.66,8.961,31.058,17.771,46.392,26.546
		c-11.777,30.976-57.21,51.847-98.128,45.433c-41.587-6.521-74.151-42.604-77.231-83.803
		c-4.359-58.303,34.005-91.812,66.835-100.669c43.006-11.603,90.099,6.505,108.836,42.59c-15.436,8.969-30.903,17.955-46.975,27.293
		c-4.839-10.179-12.747-16.585-23.573-18.984c-9.298-2.061-18.537-1.693-27.468,1.928c-15.291,6.2-25.168,22.844-23.945,40.232
		c1.384,19.68,12.39,33.895,29.553,38.166C102.071,214.407,117.648,208.15,128.57,190.895z"/>
	<path fill-rule="evenodd" clip-rule="evenodd" fill="#000000" d="M1007.66,80.004c19.404,0,38.228-0.07,57.047,0.153
		c1.282,0.016,3.219,2.004,3.706,3.458c8.609,25.699,17.037,51.46,25.514,77.203c3.328,10.108,6.682,20.209,10.412,31.487
		c2.648-7.813,5.004-14.601,7.252-21.424c9.473-28.746,18.976-57.483,28.286-86.282c1.177-3.639,2.864-4.751,6.682-4.702
		c17.974,0.23,35.952,0.103,54.635,0.103c-2.394,6.567-4.561,12.624-6.804,18.653c-19.256,51.746-38.566,103.473-57.705,155.263
		c-1.42,3.84-3.154,5.27-7.392,5.2c-17.16-0.28-34.327-0.183-51.49-0.05c-2.772,0.022-4.066-0.804-5.04-3.434
		c-21.365-57.708-42.822-115.382-64.259-173.063C1008.28,81.966,1008.099,81.346,1007.66,80.004z"/>
	<path fill-rule="evenodd" clip-rule="evenodd" fill="#000000" d="M41.579,526.766c-14.168,0-27.745,0-41.579,0
		c0-75.145,0-150.063,0-225.374c13.625,0,27.319,0,41.455,0c0,26.357,0,52.61,0,79.797c1.263-1.042,1.912-1.412,2.342-1.956
		c10.128-12.789,23.928-18.072,39.651-19.191c39.552-2.816,66.122,23.479,67.039,61.371c0.838,34.636,0.199,69.307,0.2,103.963
		c0,0.313-0.146,0.627-0.31,1.281c-13.634,0-27.35,0-41.634,0c0-1.833,0-3.609,0-5.386c0-29.658,0.008-59.317-0.003-88.976
		c-0.007-19.354-10.395-31.579-28.09-33.102c-19.627-1.688-34.605,9.117-37.861,27.625c-0.86,4.888-1.138,9.93-1.159,14.903
		c-0.109,26.325-0.051,52.652-0.051,78.979C41.579,522.519,41.579,524.338,41.579,526.766z"/>
	<path fill-rule="evenodd" clip-rule="evenodd" fill="#000000" d="M168.237,445.868c-0.627-49.498,40.734-87.565,88.079-86.152
		c45.667,1.364,83.062,38.87,83.256,86.17c0.209,50.893-41.925,87.977-89.042,86.399
		C208.011,530.862,167.588,495.527,168.237,445.868z M253.739,490.832c25.012,0,43.731-19.066,43.835-44.647
		c0.104-25.568-18.646-44.982-43.478-45.017c-25.601-0.036-43.871,18.676-43.846,44.904
		C210.274,472.051,228.523,490.833,253.739,490.832z"/>
	<path fill-rule="evenodd" clip-rule="evenodd" fill="#000000" d="M798.743,131.973c-9.848,0-18.979,0-28.471,0
		c0-17.322,0-34.363,0-51.875c9.376,0,18.625,0,28.471,0c0-10.224,0.164-19.996-0.089-29.757c-0.089-3.443,0.918-4.9,4.294-5.863
		c15.188-4.337,30.282-8.998,45.416-13.521c1.23-0.368,2.507-0.582,4.156-0.958c0,16.695,0,32.987,0,49.869
		c12.357,0,24.416,0,36.76,0c0,17.507,0,34.424,0,51.956c-12.03,0-24.076,0-36.445,0c-0.105,2.034-0.245,3.479-0.246,4.925
		c-0.015,18.658-0.027,37.317-0.002,55.977c0.015,11.047,2.981,14.932,13.789,16.391c7.383,0.997,14.906,0.95,22.793,1.395
		c0,15.777,0,31.831,0,48.69c-5.582,0.382-11.332,1.246-17.048,1.064c-10.781-0.345-21.663-0.515-32.289-2.149
		c-22.371-3.441-34.581-17.824-38.901-39.322c-1.368-6.808-1.998-13.857-2.092-20.809c-0.271-19.987-0.096-39.981-0.096-59.974
		C798.743,136.209,798.743,134.407,798.743,131.973z"/>
	<path fill-rule="evenodd" clip-rule="evenodd" fill="#000000" d="M822.742,526.881c-14.298,0-27.78,0-41.999,0
		c0-1.863,0-3.617,0-5.37c0-29.666,0.006-59.333-0.002-88.999c-0.005-19.497-10.149-31.6-27.888-33.305
		c-19.7-1.894-34.905,9.129-38.104,27.919c-0.834,4.895-1.101,9.935-1.12,14.91c-0.105,26.333-0.05,52.666-0.05,78.999
		c0,1.793,0,3.587,0,5.669c-14.058,0-27.635,0-41.525,0c0-53.774,0-107.493,0-161.458c13.751,0,27.331,0,41.5,0
		c0,5.214,0,10.258,0,16.356c3.044-3.198,5.126-5.706,7.526-7.86c33.63-30.175,90.024-11.472,99.518,33.066
		c1.208,5.667,2.018,11.536,2.052,17.316c0.191,32.999,0.093,65.999,0.093,98.999C822.742,524.247,822.742,525.369,822.742,526.881z
		"/>
	<path fill-rule="evenodd" clip-rule="evenodd" fill="#000000" d="M474.138,394.392c-11.766,6.501-23.256,12.851-35.109,19.4
		c-0.854-1.343-1.638-2.552-2.399-3.773c-6.812-10.924-20.058-15.706-32.212-11.627c-6.074,2.039-9.578,6.046-9.895,11.225
		c-0.372,6.058,3.455,9.441,8.285,11.163c12.353,4.402,24.894,8.284,37.389,12.281c10.467,3.348,19.998,8.042,27.228,16.743
		c16.757,20.169,12.99,52.973-8.059,68.584c-10.436,7.74-22.306,11.811-35.136,13.063c-15.583,1.521-30.938,0.664-45.697-5.229
		c-15.626-6.24-26.529-17.354-33.929-32.929c11.987-6.846,23.904-13.651,35.676-20.374c0.605,0.4,1.027,0.521,1.114,0.761
		c7.544,20.888,28.748,22.355,43.067,18.68c5.576-1.432,9.566-4.717,10.229-10.853c0.668-6.186-3.054-9.873-8.118-11.814
		c-9.295-3.564-18.873-6.385-28.248-9.754c-7.971-2.863-16.252-5.264-23.651-9.249c-32.821-17.682-27.716-61.43-5.218-77.455
		c18.344-13.067,38.557-15.719,59.955-11.598c17.571,3.384,31.68,12.636,41.969,27.438c0.76,1.093,1.463,2.228,2.134,3.377
		C473.75,392.857,473.817,393.364,474.138,394.392z"/>
	<path fill-rule="evenodd" clip-rule="evenodd" fill="#000000" d="M313.609,135.91c-7.583,0.699-14.97,0.577-21.963,2.174
		c-21.16,4.83-31.277,17.861-31.371,39.579c-0.107,24.985-0.026,49.972-0.026,74.957c0,1.966,0,3.931,0,6.136
		c-18.126,0-35.725,0-53.668,0c0-59.435,0-118.811,0-178.472c17.72,0,35.304,0,53.547,0c0,8.84,0,17.717,0,26.594
		c11.379-21.931,30.202-29.822,53.481-31.125C313.609,96.526,313.609,116.573,313.609,135.91z"/>
	<path fill-rule="evenodd" clip-rule="evenodd" fill="#000000" d="M581.953,364.838c0,13.629,0,26.707,0,40.158
		c-12.063,0-23.837,0-35.905,0c-0.118,1.623-0.291,2.899-0.292,4.177c-0.018,20.653-0.054,41.308,0.003,61.962
		c0.034,12.221,4.963,17.395,17.115,17.84c6.276,0.229,12.567,0.04,19.109,0.04c0,12.746,0,25.026,0,38.196
		c-5.659,0.381-11.387,1.195-17.09,1.048c-8.454-0.219-17.061-0.267-25.303-1.896c-21.131-4.177-33.396-17.978-34.68-40.437
		c-1.234-21.582-0.751-43.264-0.995-64.902c-0.059-5.135-0.009-10.271-0.009-15.904c-9.437,0-18.51,0-27.868,0
		c0-13.548,0-26.594,0-40.147c9.259,0,18.329,0,27.869,0c0-9.95-0.11-19.404,0.108-28.851c0.036-1.556,1.191-4.078,2.375-4.461
		c12.79-4.129,25.689-7.92,39.135-11.977c0,15.197,0,29.902,0,45.154C557.88,364.838,569.777,364.838,581.953,364.838z"/>
	<path fill-rule="evenodd" clip-rule="evenodd" fill="#000000" d="M926.629,80.137c17.884,0,35.359,0,53.227,0
		c0,59.513,0,118.891,0,178.566c-17.657,0-35.245,0-53.227,0C926.629,199.351,926.629,139.973,926.629,80.137z"/>
	<path fill-rule="evenodd" clip-rule="evenodd" fill="#000000" d="M643.202,526.857c-13.849,0-27.309,0-41.114,0
		c0-53.838,0-107.534,0-161.544c13.578,0,27.156,0,41.114,0C643.202,418.973,643.202,472.663,643.202,526.857z"/>
	<path fill-rule="evenodd" clip-rule="evenodd" fill="#000000" d="M952.985,64c-17.806-0.027-32.051-14.201-32.077-31.919
		C920.879,13.965,935.273-0.065,953.817,0c17.775,0.063,31.793,14.259,31.762,32.164C985.546,50.126,971.314,64.028,952.985,64z"/>
	<path fill-rule="evenodd" clip-rule="evenodd" fill="#000000" d="M1142.852,529c-22.553,0.015-39.107-16.491-39.109-38.992
		c-0.002-22.313,16.505-38.996,38.596-39.008c22.821-0.013,39.538,16.643,39.386,39.242
		C1181.575,512.521,1165.06,528.986,1142.852,529z M1119.911,490.024c0.007,13.586,9.797,23.811,22.799,23.808
		c12.887-0.004,22.877-10.428,22.862-23.856c-0.015-13.435-10.009-23.821-22.91-23.808
		C1129.676,466.182,1119.905,476.428,1119.911,490.024z"/>
	<path fill-rule="evenodd" clip-rule="evenodd" fill="#000000" d="M622.485,346c-14.216-0.002-25.849-11.562-25.737-25.576
		c0.111-13.979,11.847-25.463,25.98-25.424c14.007,0.039,25.853,11.813,25.823,25.665C648.522,334.544,636.734,346.001,622.485,346z
		"/>
	<path fill-rule="evenodd" clip-rule="evenodd" fill="#000000" d="M1086.572,526.732c-5.312,0-10.225,0-15.398,0
		c0-24.47,0-48.676,0-73.308c4.997,0,10.025,0,15.398,0C1086.572,477.693,1086.572,502.025,1086.572,526.732z"/>
	<path fill-rule="evenodd" clip-rule="evenodd" fill="#000000" d="M1029.58,517.574c0.134-6.393,4.718-10.698,11.253-10.572
		c6.236,0.121,10.982,4.979,10.898,11.154c-0.086,6.354-5.126,11.021-11.709,10.841
		C1033.716,528.824,1029.442,524.148,1029.58,517.574z"/>
	<path fill-rule="evenodd" clip-rule="evenodd" fill="#000000" d="M1078.811,441.998c-5.736-0.051-10.076-4.375-10.065-10.031
		c0.011-5.94,4.43-10.114,10.551-9.965c5.716,0.141,10.036,4.6,9.902,10.221C1089.065,437.813,1084.564,442.049,1078.811,441.998z"
		/>
</g>
</svg>
