<?xml version="1.0" encoding="utf-8"?>
<!-- Generator: Adobe Illustrator 16.0.0, SVG Export Plug-In . SVG Version: 6.00 Build 0)  -->
<!DOCTYPE svg PUBLIC "-//W3C//DTD SVG 1.1//EN" "http://www.w3.org/Graphics/SVG/1.1/DTD/svg11.dtd">
<svg version="1.1" id="Layer_1" xmlns="http://www.w3.org/2000/svg" xmlns:xlink="http://www.w3.org/1999/xlink" x="0px" y="0px"
	 width="959.76px" height="560.16px" viewBox="0 0 959.76 560.16" enable-background="new 0 0 959.76 560.16" xml:space="preserve">
<g>
	<g id="Layer_1_1_">
		<g>
			<g>
				<g>
					<path id="SVGID_1_" fill="#000000" d="M200.483,299.809c-9.064,39.457-44.789,66.649-85.312,66.649
						c-48.521,0-87.978-38.923-87.978-87.444c0-48.521,38.923-87.978,86.912-87.978l0,0c52.787,0,81.046,41.057,85.845,67.183
						h-45.322c-5.865-17.596-22.395-29.326-40.523-29.326c-28.793-0.533-44.789,25.06-44.789,48.521
						c0,25.594,17.596,50.121,45.322,50.121c27.193,0,37.857-22.395,40.523-28.26L200.483,299.809z"/>
				</g>
				<g>
					<g>
						<path id="SVGID_2_" fill="#000000" d="M200.483,299.809c-9.064,39.457-44.789,66.649-85.312,66.649
							c-48.521,0-87.978-38.923-87.978-87.444c0-48.521,38.923-87.978,86.912-87.978l0,0c52.787,0,81.046,41.057,85.845,67.183
							h-45.322c-5.865-17.596-22.395-29.326-40.523-29.326c-28.793-0.533-44.789,25.06-44.789,48.521
							c0,25.594,17.596,50.121,45.322,50.121c27.193,0,37.857-22.395,40.523-28.26L200.483,299.809z"/>
					</g>
					<g>
						<defs>
							<path id="SVGID_4_" d="M200.483,299.809c-9.064,39.457-44.789,66.649-85.312,66.649c-48.521,0-87.978-38.923-87.978-87.444
								c0-48.521,38.923-87.978,86.912-87.978l0,0c52.787,0,81.046,41.057,85.845,67.183h-45.322
								c-5.865-17.596-22.395-29.326-40.523-29.326c-28.793-0.533-44.789,25.06-44.789,48.521c0,25.594,17.596,50.121,45.322,50.121
								c27.193,0,37.857-22.395,40.523-28.26L200.483,299.809z"/>
						</defs>
						<use xlink:href="#SVGID_4_"  overflow="visible" fill="#000000"/>
						<clipPath id="SVGID_6_">
							<use xlink:href="#SVGID_4_"  overflow="visible"/>
						</clipPath>
						<g clip-path="url(#SVGID_6_)">
							<path fill="#000000" d="M49.587,322.203c0-15.996,6.398-30.926,17.596-42.123c-23.461-22.395-60.251-22.395-82.646,1.066
								s-21.861,60.252,1.6,82.646c22.395,21.861,58.652,21.861,81.046,0C55.986,353.129,49.587,337.666,49.587,322.203z"/>
							<path fill="#000000" d="M130.634,322.203c0-15.996,6.398-30.926,17.596-42.123c-22.395-21.861-58.652-21.861-81.046,0
								c23.461,22.395,23.994,59.186,1.6,82.646c-0.533,0.533-1.066,1.066-1.6,1.6c22.395,21.861,58.652,21.861,81.046,0
								C137.032,353.129,130.634,337.666,130.634,322.203z"/>
							<path fill="#000000" d="M85.312,322.203c0-15.996-6.398-30.926-17.596-42.123c-23.461,22.395-23.994,59.186-1.6,82.646
								c0.533,0.533,1.066,1.066,1.6,1.6C78.914,353.129,85.312,337.666,85.312,322.203z"/>
							<path fill="#000000" d="M212.213,322.203c0-15.996,6.398-30.926,17.596-42.123c-22.395-21.861-58.652-21.861-81.046,0
								c23.461,22.395,23.994,59.186,1.6,82.646c-0.533,0.533-1.066,1.066-1.6,1.6c22.395,21.861,58.652,21.861,81.046,0
								C218.612,353.129,212.213,337.666,212.213,322.203z"/>
							<path fill="#000000" d="M166.892,322.203c0-15.996-6.398-30.926-17.596-42.123c-23.461,22.395-23.994,59.186-1.6,82.112
								c0.533,0.533,1.066,1.066,1.6,1.6C159.96,353.129,166.892,337.666,166.892,322.203z"/>
							<path fill="#000000" d="M293.793,322.203c0-15.996,6.398-30.926,17.596-42.123c-22.395-21.861-58.652-21.861-81.046,0
								c23.461,22.395,23.994,59.186,1.6,82.646c-0.533,0.533-1.066,1.066-1.6,1.6c22.395,21.861,58.652,21.861,81.046,0
								C299.658,353.129,293.793,337.666,293.793,322.203z"/>
							<path fill="#000000" d="M247.938,322.203c0-15.996-6.398-30.926-17.596-42.123c-23.461,22.395-23.994,59.186-1.6,82.646
								c0.533,0.533,1.066,1.066,1.6,1.6C241.54,353.129,247.938,337.666,247.938,322.203z"/>
							<path fill="#000000" d="M374.839,322.203c0-15.996,6.398-30.926,17.596-42.123c-22.394-21.861-58.652-21.861-81.046,0
								c23.461,22.395,23.994,59.186,1.6,82.646c-0.533,0.533-1.066,1.066-1.6,1.6c22.395,21.861,58.652,21.861,81.046,0
								C381.238,353.129,374.839,337.666,374.839,322.203z"/>
							<path fill="#000000" d="M328.984,322.203c0-15.996-6.398-30.926-17.596-42.123c-23.461,22.395-23.994,59.186-1.6,82.646
								c0.533,0.533,1.066,1.066,1.6,1.6C322.586,353.129,328.984,337.666,328.984,322.203z"/>
							<path fill="#000000" d="M432.958,263.551c-14.93,0-29.859,5.865-40.523,16.529c23.46,22.395,23.994,59.186,1.6,82.646
								c-0.533,0.533-1.066,1.066-1.6,1.6c23.46,22.395,60.251,21.861,82.646-1.6c22.395-23.46,21.861-60.251-1.6-82.646
								C462.817,269.416,448.421,263.551,432.958,263.551z"/>
							<path fill="#000000" d="M410.563,322.203c0-15.996-6.398-30.926-17.595-42.123c-23.461,22.395-23.994,59.186-1.6,82.646
								c0.533,0.533,1.066,1.066,1.6,1.6C404.165,353.129,410.563,337.666,410.563,322.203z"/>
							<path fill="#000000" d="M49.587,237.424c0-15.996,6.398-30.925,17.596-42.123c-22.928-22.395-60.251-21.861-82.646,1.6
								c-22.395,22.928-21.861,59.718,1.6,82.646c22.395,21.861,58.652,21.861,81.046,0
								C55.986,268.35,49.587,252.887,49.587,237.424z"/>
							<path fill="#000000" d="M130.634,237.424c0-15.996,6.398-30.925,17.596-42.123c-22.395-21.861-58.652-21.861-81.046,0
								c23.461,22.395,23.994,59.185,1.6,82.646c-0.533,0.533-1.066,1.066-1.6,1.6c22.395,21.861,58.652,21.861,81.046,0
								C137.032,268.35,130.634,252.887,130.634,237.424z"/>
							<path fill="#000000" d="M85.312,237.424c0-15.996-6.398-30.925-17.596-42.123c-23.461,22.395-23.994,59.185-1.6,82.646
								c0.533,0.533,1.066,1.066,1.6,1.6C78.914,268.35,85.312,252.887,85.312,237.424z"/>
							<path fill="#000000" d="M212.213,237.424c0-15.996,6.398-30.925,17.596-42.123c-22.395-21.861-58.652-21.861-81.046,0
								c23.461,22.395,23.994,59.185,1.6,82.646c-0.533,0.533-1.066,1.066-1.6,1.6c22.395,21.861,58.652,21.861,81.046,0
								C218.612,268.35,212.213,252.887,212.213,237.424z"/>
							<path fill="#000000" d="M166.892,237.424c0-15.996-6.398-30.925-17.596-42.123c-23.461,22.395-23.994,59.185-1.6,82.646
								c0.533,0.533,1.066,1.066,1.6,1.6C159.96,268.35,166.892,252.887,166.892,237.424z"/>
							<path fill="#000000" d="M293.793,237.424c0-15.996,6.398-30.925,17.596-42.123c-22.395-21.861-58.652-21.861-81.046,0
								c23.461,22.395,23.994,59.185,1.6,82.646c-0.533,0.533-1.066,1.066-1.6,1.6c22.395,21.861,58.652,21.861,81.046,0
								C299.658,268.35,293.793,252.887,293.793,237.424z"/>
							<path fill="#000000" d="M247.938,237.424c0-15.996-6.398-30.925-17.596-42.123c-23.461,22.395-23.994,59.185-1.6,82.646
								c0.533,0.533,1.066,1.066,1.6,1.6C241.54,268.35,247.938,252.887,247.938,237.424z"/>
							<path fill="#000000" d="M374.839,237.424c0-15.996,6.398-30.925,17.596-42.123c-22.394-21.861-58.652-21.861-81.046,0
								c23.461,22.395,23.994,59.185,1.6,82.646c-0.533,0.533-1.066,1.066-1.6,1.6c22.395,21.861,58.652,21.861,81.046,0
								C381.238,268.35,374.839,252.887,374.839,237.424z"/>
							<path fill="#000000" d="M328.984,237.424c0-15.996-6.398-30.925-17.596-42.123c-23.461,22.395-23.994,59.185-1.6,82.646
								c0.533,0.533,1.066,1.066,1.6,1.6C322.586,268.35,328.984,252.887,328.984,237.424z"/>
							<path fill="#000000" d="M432.958,178.772c-14.93,0-29.859,5.865-40.523,16.529c23.46,22.928,23.994,59.718,1.6,83.179
								c-0.533,0.533-1.066,1.066-1.6,1.6c23.46,22.395,60.251,21.861,82.646-1.6s21.861-60.251-1.6-82.646
								C462.817,184.637,448.421,178.772,432.958,178.772z"/>
							<path fill="#000000" d="M410.563,237.424c0-15.996-6.398-30.925-17.595-42.123c-23.461,22.395-23.994,59.185-1.6,82.646
								c0.533,0.533,1.066,1.066,1.6,1.6C404.165,268.35,410.563,252.887,410.563,237.424z"/>
						</g>
					</g>
				</g>
			</g>
		</g>
		<g>
			<g>
				<g>
					<path id="SVGID_3_" fill="#000000" d="M208.481,195.834h43.723v17.596c12.264-14.93,30.392-22.928,49.587-22.395
						c55.453-0.533,76.781,48.521,76.781,84.779c0,44.789-31.992,82.113-76.248,82.113c-28.259,0-41.589-13.863-47.455-19.729
						v47.454h-46.922C208.481,385.653,208.481,195.834,208.481,195.834z M343.914,273.682c0-19.729-13.863-42.656-40.523-42.656
						c-11.197,0-21.861,4.266-29.326,12.796c-7.465,8.531-11.197,19.729-11.197,30.393s4.266,22.395,11.73,30.393
						s18.128,12.797,28.792,12.797c25.594,0,40.523-21.861,40.523-42.656V273.682L343.914,273.682z"/>
				</g>
				<g>
					<g>
						<path id="SVGID_5_" fill="#000000" d="M208.481,195.834h43.723v17.596c12.264-14.93,30.392-22.928,49.587-22.395
							c55.453-0.533,76.781,48.521,76.781,84.779c0,44.789-31.992,82.113-76.248,82.113c-28.259,0-41.589-13.863-47.455-19.729
							v47.454h-46.922C208.481,385.653,208.481,195.834,208.481,195.834z M343.914,273.682c0-19.729-13.863-42.656-40.523-42.656
							c-11.197,0-21.861,4.266-29.326,12.796c-7.465,8.531-11.197,19.729-11.197,30.393s4.266,22.395,11.73,30.393
							s18.128,12.797,28.792,12.797c25.594,0,40.523-21.861,40.523-42.656V273.682L343.914,273.682z"/>
					</g>
					<g>
						<defs>
							<path id="SVGID_7_" d="M208.481,195.834h43.723v17.596c12.264-14.93,30.392-22.928,49.587-22.395
								c55.453-0.533,76.781,48.521,76.781,84.779c0,44.789-31.992,82.113-76.248,82.113c-28.259,0-41.589-13.863-47.455-19.729
								v47.454h-46.922C208.481,385.653,208.481,195.834,208.481,195.834z M343.914,273.682c0-19.729-13.863-42.656-40.523-42.656
								c-11.197,0-21.861,4.266-29.326,12.796c-7.465,8.531-11.197,19.729-11.197,30.393s4.266,22.395,11.73,30.393
								s18.128,12.797,28.792,12.797c25.594,0,40.523-21.861,40.523-42.656V273.682L343.914,273.682z"/>
						</defs>
						<use xlink:href="#SVGID_7_"  overflow="visible" fill="#000000"/>
						<clipPath id="SVGID_8_">
							<use xlink:href="#SVGID_7_"  overflow="visible"/>
						</clipPath>
						<g clip-path="url(#SVGID_8_)">
							<path fill="#000000" d="M254.336,344.598c0-15.996,6.398-30.926,17.596-42.123c-22.395-21.861-58.652-21.861-81.046,0
								c23.46,22.395,23.994,59.186,1.6,82.646c-0.533,0.533-1.066,1.066-1.6,1.6c22.394,21.861,58.652,21.861,81.046,0
								C260.735,375.522,254.336,360.594,254.336,344.598z"/>
							<path fill="#000000" d="M49.587,321.67c0-15.996,6.398-30.926,17.596-42.123c-23.461-22.395-60.251-21.861-82.646,1.6
								s-21.861,60.252,1.6,82.646c22.395,21.861,58.652,21.861,81.046,0C55.986,352.596,49.587,337.666,49.587,321.67z"/>
							<path fill="#000000" d="M130.634,321.67c0-15.996,6.398-30.926,17.596-42.123c-22.395-21.861-58.652-21.861-81.046,0
								c23.461,22.395,23.994,59.186,1.6,82.646c-0.533,0.533-1.066,1.066-1.6,1.6c22.395,21.861,58.652,21.861,81.046,0
								C137.032,352.596,130.634,337.666,130.634,321.67z"/>
							<path fill="#000000" d="M85.312,321.67c0-15.996-6.398-30.926-17.596-42.123c-23.461,22.395-23.994,59.186-1.6,82.646
								c0.533,0.533,1.066,1.066,1.6,1.6C78.914,352.596,85.312,337.666,85.312,321.67z"/>
							<path fill="#000000" d="M212.213,321.67c0-15.996,6.398-30.926,17.596-42.123c-22.395-21.861-58.652-21.861-81.046,0
								c23.461,22.395,23.994,59.186,1.6,82.646c-0.533,0.533-1.066,1.066-1.6,1.6c22.395,21.861,58.652,21.861,81.046,0
								C218.612,352.596,212.213,337.666,212.213,321.67z"/>
							<path fill="#000000" d="M166.892,321.67c0-15.996-6.398-30.926-17.596-42.123c-23.461,22.395-23.994,59.186-1.6,82.646
								c0.533,0.533,1.066,1.066,1.6,1.6C159.96,352.596,166.892,337.666,166.892,321.67z"/>
							<path fill="#000000" d="M293.793,321.67c0-15.996,6.398-30.926,17.596-42.123c-22.395-21.861-58.652-21.861-81.046,0
								c23.461,22.395,23.994,59.186,1.6,82.646c-0.533,0.533-1.066,1.066-1.6,1.6c22.395,21.861,58.652,21.861,81.046,0
								C299.658,352.596,293.793,337.666,293.793,321.67z"/>
							<path fill="#000000" d="M247.938,321.67c0-15.996-6.398-30.926-17.596-42.123c-23.461,22.395-23.994,59.186-1.6,82.646
								c0.533,0.533,1.066,1.066,1.6,1.6C241.54,352.596,247.938,337.666,247.938,321.67z"/>
							<path fill="#000000" d="M374.839,321.67c0-15.996,6.398-30.926,17.596-42.123c-22.394-21.861-58.652-21.861-81.046,0
								c23.461,22.395,23.994,59.186,1.6,82.646c-0.533,0.533-1.066,1.066-1.6,1.6c22.395,21.861,58.652,21.861,81.046,0
								C381.238,352.596,374.839,337.666,374.839,321.67z"/>
							<path fill="#000000" d="M328.984,321.67c0-15.996-6.398-30.926-17.596-42.123c-23.461,22.395-23.994,59.186-1.6,82.646
								c0.533,0.533,1.066,1.066,1.6,1.6C322.586,352.596,328.984,337.666,328.984,321.67z"/>
							<path fill="#000000" d="M432.958,263.018c-14.93,0-29.859,5.865-40.523,16.529c23.46,22.395,23.994,59.186,1.6,82.646
								c-0.533,0.533-1.066,1.066-1.6,1.6c23.46,22.395,60.251,21.861,82.646-1.6c22.395-23.46,21.861-60.251-1.6-82.646
								C462.817,268.883,448.421,263.018,432.958,263.018z"/>
							<path fill="#000000" d="M410.563,321.67c0-15.996-6.398-30.926-17.595-42.123c-23.461,22.395-23.994,59.186-1.6,82.646
								c0.533,0.533,1.066,1.066,1.6,1.6C404.165,352.596,410.563,337.666,410.563,321.67z"/>
							<path fill="#000000" d="M49.587,236.891c0-15.996,6.398-30.926,17.596-42.123c-22.928-21.861-60.251-21.861-82.646,1.6
								c-22.395,22.928-21.861,60.251,1.6,82.646c22.395,21.861,58.652,21.861,81.046,0
								C55.986,267.816,49.587,252.887,49.587,236.891z"/>
							<path fill="#000000" d="M130.634,236.891c0-15.996,6.398-30.926,17.596-42.123c-22.395-21.861-58.652-21.861-81.046,0
								c23.461,22.395,23.994,59.185,1.6,82.646c-0.533,0.533-1.066,1.066-1.6,1.6c22.395,21.861,58.652,21.861,81.046,0
								C137.032,267.816,130.634,252.887,130.634,236.891z"/>
							<path fill="#000000" d="M85.312,236.891c0-15.996-6.398-30.926-17.596-42.123c-23.461,22.395-23.994,59.185-1.6,82.646
								c0.533,0.533,1.066,1.066,1.6,1.6C78.914,267.816,85.312,252.887,85.312,236.891z"/>
							<path fill="#000000" d="M212.213,236.891c0-15.996,6.398-30.926,17.596-42.123c-22.395-21.861-58.652-21.861-81.046,0
								c23.461,22.395,23.994,59.185,1.6,82.646c-0.533,0.533-1.066,1.066-1.6,1.6c22.395,21.861,58.652,21.861,81.046,0
								C218.612,267.816,212.213,252.887,212.213,236.891z"/>
							<path fill="#000000" d="M166.892,236.891c0-15.996-6.398-30.926-17.596-42.123c-23.461,22.395-23.994,59.185-1.6,82.646
								c0.533,0.533,1.066,1.066,1.6,1.6C159.96,267.816,166.892,252.887,166.892,236.891z"/>
							<path fill="#000000" d="M293.793,236.891c0-15.996,6.398-30.926,17.596-42.123c-22.395-21.861-58.652-21.861-81.046,0
								c23.461,22.395,23.994,59.185,1.6,82.646c-0.533,0.533-1.066,1.066-1.6,1.6c22.395,21.861,58.652,21.861,81.046,0
								C299.658,267.816,293.793,252.887,293.793,236.891z"/>
							<path fill="#000000" d="M247.938,236.891c0-15.996-6.398-30.926-17.596-42.123c-23.461,22.395-23.994,59.185-1.6,82.646
								c0.533,0.533,1.066,1.066,1.6,1.6C241.54,267.816,247.938,252.887,247.938,236.891z"/>
							<path fill="#000000" d="M374.839,236.891c0-15.996,6.398-30.926,17.596-42.123c-22.394-21.861-58.652-21.861-81.046,0
								c23.461,22.395,23.994,59.185,1.6,82.646c-0.533,0.533-1.066,1.066-1.6,1.6c22.395,21.861,58.652,21.861,81.046,0
								C381.238,267.816,374.839,252.887,374.839,236.891z"/>
							<path fill="#000000" d="M328.984,236.891c0-15.996-6.398-30.926-17.596-42.123c-23.461,22.395-23.994,59.185-1.6,82.646
								c0.533,0.533,1.066,1.066,1.6,1.6C322.586,267.816,328.984,252.887,328.984,236.891z"/>
							<path fill="#000000" d="M432.958,178.772c-14.93,0-29.859,5.865-40.523,16.529c23.46,22.395,23.994,59.185,1.6,82.646
								c-0.533,0.533-1.066,1.066-1.6,1.6c23.46,22.395,60.251,21.861,82.646-1.6s21.861-60.251-1.6-82.646
								C462.817,184.637,448.421,178.772,432.958,178.772z"/>
							<path fill="#000000" d="M410.563,236.891c0-15.996-6.398-30.926-17.595-42.123c-23.461,22.395-23.994,59.185-1.6,82.646
								c0.533,0.533,1.066,1.066,1.6,1.6C404.165,267.816,410.563,252.887,410.563,236.891z"/>
						</g>
					</g>
				</g>
			</g>
		</g>
		<g>
			<path fill="#000000" d="M460.685,252.887c-4.799,0-9.598-1.6-12.797-5.332c-3.732-3.732-5.865-9.064-5.332-13.863
				c-0.533-5.332,1.6-10.131,5.332-13.863c3.732-3.199,8.531-5.332,13.33-4.799c3.199,0,6.398,0.533,9.598,2.133
				s5.865,3.732,8.531,6.398l10.131-13.33c-3.732-4.266-8.531-7.465-13.863-9.064c-4.799-2.133-10.131-3.199-15.463-3.199
				c-9.598,0-19.195,3.199-26.127,10.131c-7.465,6.398-11.197,15.996-11.197,26.66c-0.533,10.13,3.732,19.728,11.197,26.126
				s17.063,10.131,27.193,10.131c10.664,0,20.262-4.799,29.326-13.863l-11.73-13.33
				C474.015,248.621,467.616,252.354,460.685,252.887z"/>
			<path fill="#000000" d="M519.337,207.565V198.5h-19.729v70.916h19.729v-30.393c-0.533-5.865,1.066-11.197,4.266-16.529
				c3.199-4.266,7.998-6.398,13.33-6.398h3.732v-18.662c-4.266,0-7.998,1.066-11.197,3.199
				C525.202,202.233,522.003,204.899,519.337,207.565z"/>
			<path fill="#000000" d="M606.781,205.965c-6.932-5.865-15.996-9.064-24.527-9.064c-9.063,0-18.661,3.199-25.593,10.131
				c-7.465,6.932-11.197,16.529-10.664,26.66c-0.533,10.13,3.199,19.728,10.131,26.66c7.465,6.398,17.062,10.131,26.659,10.131
				c10.131,0,20.795-4.266,28.26-11.197l-11.197-11.73c-4.266,4.799-10.664,6.932-17.063,6.932c-4.266,0-7.997-1.066-11.196-3.732
				c-3.199-2.133-5.332-5.332-5.865-9.598h51.72v-10.13C617.979,220.895,614.246,212.364,606.781,205.965z M566.258,226.76
				c0.533-3.732,2.666-7.465,5.332-9.598c3.199-2.133,6.932-3.732,10.664-3.732s6.932,1.066,10.131,3.199l0,0
				c3.199,2.666,4.266,5.865,4.799,10.131H566.258z"/>
			<path fill="#000000" d="M680.363,203.833c-5.865-4.266-13.863-6.398-20.795-6.398c-11.197,0-22.395,3.199-31.992,10.131
				l9.064,12.797c3.199-2.133,6.398-4.266,9.598-5.332c3.199-1.6,6.932-1.6,10.664-1.6c7.998,0,11.73,3.732,11.73,11.197v0.533
				h-14.93c-7.465-0.533-14.93,1.6-21.328,5.332c-5.332,3.732-7.998,10.13-7.998,15.996c-0.533,6.398,2.666,12.797,7.998,17.596
				c5.332,4.266,11.73,6.398,18.662,6.398c7.465,0,14.396-3.732,18.662-9.598v8.531h18.662v-44.789
				C688.361,214.497,685.695,207.565,680.363,203.833z M668.633,242.223L668.633,242.223c0,3.199-1.6,6.398-4.266,8.531
				s-5.865,3.199-9.064,3.199s-5.332-0.533-7.998-1.6c-1.6-1.6-3.199-3.732-3.199-5.865c0-4.799,4.266-7.465,11.73-7.465h12.797
				V242.223L668.633,242.223z"/>
			<path fill="#000000" d="M733.149,252.887c-1.6,0-3.732-0.533-4.799-2.133c-1.6-1.6-2.132-4.266-2.132-6.398v-31.992h17.595V198.5
				h-17.062v-21.328h-19.729v20.795h-7.998v14.396h7.998v32.525c0,0.533,0,1.6,0,2.133c0.533,12.797,11.197,23.461,24.527,22.928
				c7.464-0.533,13.863-3.199,19.194-8.531l-7.464-13.863C740.081,250.754,736.349,252.887,733.149,252.887z"/>
			<rect x="757.144" y="198.5" fill="#000000" width="19.729" height="70.916"/>
			<path fill="#000000" d="M766.741,169.708c-6.398,0-11.197,5.332-11.197,11.197c0,3.199,1.066,5.865,3.199,7.998
				s5.332,3.199,7.998,3.199c6.398,0,11.73-5.332,11.73-11.197S773.14,169.708,766.741,169.708z"/>
			<polygon fill="#000000" points="821.128,242.756 803.532,197.967 783.271,197.967 810.997,268.883 831.259,268.883 
				858.985,197.967 838.724,197.967 			"/>
			<path fill="#000000" d="M932.566,230.493c0.533-9.064-3.199-18.129-10.131-23.994s-15.996-9.064-24.527-9.064
				c-9.064,0-18.661,3.199-25.593,10.131c-7.465,6.932-11.197,16.529-10.664,26.66c-0.533,10.13,3.199,19.728,10.131,26.66
				c7.464,6.398,16.528,10.131,26.659,10.131s20.795-4.266,28.26-11.197l-11.197-11.73c-4.266,4.799-10.664,6.932-17.063,6.932
				c-4.266,0-7.998-1.066-11.197-3.732c-3.199-2.133-5.332-5.332-5.865-9.598H933.1L932.566,230.493L932.566,230.493z
				 M881.913,226.76c0.533-3.732,2.665-7.465,5.331-9.598c3.199-2.133,6.932-3.732,10.664-3.732s6.932,1.066,10.131,3.199
				c3.199,2.666,4.266,5.865,4.799,9.598L881.913,226.76L881.913,226.76z"/>
		</g>
		<g>
			<path fill="#000000" d="M460.685,305.674c-6.932,0-13.33,2.666-18.662,7.998v-6.932h-17.596v84.245h17.596v-30.392
				c4.266,5.864,10.664,9.063,18.129,9.063s13.863-3.199,19.729-9.063c5.332-6.398,8.531-13.863,8.531-22.928
				s-3.199-16.529-8.531-22.395C474.548,308.34,467.616,305.674,460.685,305.674z M466.55,349.93
				c-3.199,3.199-6.398,4.799-10.131,4.799s-7.465-1.6-10.131-4.799s-4.266-7.465-4.266-12.264s1.6-9.064,4.266-12.797
				c3.199-3.199,6.398-5.332,10.131-5.332c4.266,0,7.465,1.6,10.131,5.332c3.199,3.199,4.266,7.465,4.266,12.797
				C471.349,342.465,469.749,346.73,466.55,349.93z"/>
			<path fill="#000000" d="M506.54,281.146c-3.199,0-5.332,1.066-6.932,3.199c-1.6,1.6-3.199,4.266-3.199,6.932
				s1.066,5.332,3.199,6.932c1.6,1.6,4.266,3.199,6.932,3.199s5.332-1.066,6.932-3.199c1.6-1.6,3.199-4.266,3.199-6.932
				s-1.066-5.332-3.199-6.932C511.872,282.213,509.739,281.146,506.54,281.146z"/>
			<rect x="498.009" y="306.74" fill="#000000" width="17.596" height="61.851"/>
			<polygon fill="#000000" points="589.186,306.74 568.391,306.74 557.728,322.736 547.063,306.74 526.802,306.74 547.063,337.133 
				525.735,368.058 545.464,368.058 557.194,351.529 569.458,368.058 589.719,368.058 567.857,336.6 			"/>
			<path fill="#000000" d="M643.572,313.139c-5.865-5.332-13.33-7.998-21.861-7.998s-15.996,3.199-22.395,8.531
				c-6.398,5.865-9.064,13.33-9.064,23.461c0,9.598,3.199,17.596,9.064,23.461c6.398,5.864,13.863,8.53,23.461,8.53
				s17.596-3.199,24.527-10.131l-9.598-10.13c-4.266,4.266-9.064,5.865-14.93,5.865c-3.732,0-6.932-1.066-10.131-3.199
				s-4.799-4.799-5.332-7.998h44.789v-9.064C652.637,325.402,649.438,317.938,643.572,313.139z M608.381,331.268
				c0.533-3.732,2.133-6.398,4.799-8.531c3.199-2.133,5.865-3.199,9.064-3.199s6.398,1.066,8.531,3.199s3.732,4.799,4.266,8.531
				H608.381z"/>
			<rect x="662.234" y="283.279" fill="#000000" width="17.596" height="85.312"/>
			<path fill="#000000" d="M734.216,336.066c-2.133-1.6-4.266-2.133-5.865-3.199c-1.6-0.533-4.266-1.6-8.531-3.199
				c-4.266-1.066-6.398-2.133-8.531-3.199c-1.6-0.533-2.666-2.133-2.666-3.732c0-3.199,2.666-4.266,7.998-4.266
				s10.664,1.6,15.996,5.332l6.398-11.197c-7.465-4.799-14.396-7.465-21.861-7.465s-13.33,1.6-17.596,5.332
				s-6.932,7.998-6.932,13.863s2.133,10.131,6.932,12.797c2.133,1.6,4.266,2.666,6.398,3.199c1.6,0.533,4.266,1.6,7.998,2.666
				c3.199,0.533,5.865,2.133,7.998,3.199c1.6,1.066,2.666,2.666,2.666,4.266s-0.533,2.666-1.6,3.199c-1.6,0.533-3.199,1.6-5.332,1.6
				c-7.465,0-13.863-2.666-20.795-7.465l-7.998,10.663c4.266,3.199,8.531,5.332,13.33,7.465c4.799,1.6,9.598,2.666,14.396,2.666
				c6.932,0,12.797-1.6,17.063-5.332s6.398-8.53,6.398-14.929C740.081,342.998,737.948,338.199,734.216,336.066z"/>
		</g>
		<g>
			<path fill="#000000" d="M744.88,362.192c-0.533,0-1.6,0.533-2.133,0.533s-0.533,1.066-0.533,2.133c0,0.533,0.533,1.6,0.533,2.133
				c0.533,0.533,1.066,0.533,2.133,0.533s1.6-0.533,2.133-0.533c0.533-0.533,0.533-1.6,0.533-2.133s-0.533-1.6-0.533-2.133
				C745.946,362.726,745.413,362.192,744.88,362.192z"/>
			<path fill="#000000" d="M759.276,346.73c-3.199,0-6.398,1.066-9.064,3.199l1.6,3.199c2.133-1.6,4.266-2.133,6.398-2.133
				c3.199,0,4.799,1.6,4.799,4.266v0.533h-5.865c-2.666,0-4.799,0.532-6.398,1.599s-2.133,2.666-2.133,4.799
				s0.533,3.732,2.133,5.332c1.6,1.066,3.199,1.6,5.332,1.6c3.199,0,5.332-1.066,6.932-3.199v3.199h4.266v-13.862
				c0-2.666-0.533-4.799-2.666-5.865C763.542,346.73,761.409,346.73,759.276,346.73z M763.009,360.061c0,1.6-0.533,2.665-1.6,3.198
				s-2.133,1.066-3.732,1.066s-2.666-0.533-3.199-0.533s-1.066-1.599-1.066-2.665c0-2.133,1.6-3.199,4.799-3.199h5.332
				L763.009,360.061L763.009,360.061z"/>
			<path fill="#000000" d="M788.603,349.93c-1.6-2.133-4.266-3.732-6.932-3.732c-3.199,0-5.332,1.066-6.932,3.199
				s-2.666,4.266-2.666,7.465c0,3.198,0.533,5.331,2.666,7.464c1.6,1.6,4.266,3.199,6.932,3.199c1.6,0,3.199-0.533,4.266-1.066
				s2.133-1.6,3.199-3.199v2.666c0,2.666-0.533,4.266-1.6,5.332s-3.199,1.6-5.332,1.6s-4.266-0.533-6.398-2.133l-2.133,3.199
				c2.666,1.6,5.332,3.199,9.064,3.199s5.865-1.066,7.998-3.199c2.133-1.6,3.199-4.799,3.199-8.531v-19.728h-4.266L788.603,349.93
				L788.603,349.93z M787.003,361.127c-1.066,1.066-2.666,1.599-4.266,1.599s-3.199-0.532-4.266-1.599s-1.6-3.199-1.6-4.266
				c0-1.6,0.533-3.199,1.6-4.799s2.666-1.6,4.266-1.6s3.199,0.533,4.266,1.6s1.6,3.199,1.6,4.799S788.069,360.061,787.003,361.127z"
				/>
			<path fill="#000000" d="M807.798,346.73c-3.199,0-5.332,1.066-7.998,3.199s-3.199,4.799-3.199,7.998
				c0,3.198,1.066,5.864,3.199,7.997s4.799,3.199,7.998,3.199c3.732,0,6.398-1.066,9.064-3.732l-2.666-3.199
				c-1.6,1.6-3.199,2.666-6.398,2.666c-1.6,0-3.199-0.533-4.266-1.6s-2.133-2.133-2.133-3.731h17.063v-3.199
				c0-3.199-1.066-5.332-3.199-7.465C813.13,347.264,810.997,346.73,807.798,346.73z M801.399,355.795c0-1.6,0.533-3.199,1.6-4.266
				s3.199-1.6,4.266-1.6s3.199,0.533,4.266,1.6s1.6,2.133,1.6,4.266H801.399z"/>
			<path fill="#000000" d="M834.991,346.73c-1.6,0-3.199,0.533-4.266,1.066s-2.133,1.6-3.199,3.199v-4.266h-4.266v21.327h4.266
				v-11.729c0-1.6,0.533-3.732,1.6-4.266s2.666-1.6,4.266-1.6c3.199,0,4.799,1.6,4.799,5.865v11.729h4.266v-13.329
				c0-3.199-0.533-4.799-2.133-6.398C839.79,346.73,837.124,346.73,834.991,346.73z"/>
			<path fill="#000000" d="M860.052,364.325c-1.6,0-3.732-0.533-5.332-2.133c-1.6-1.599-2.133-3.198-2.133-5.331
				c0-1.6,0.533-3.732,2.133-4.799s3.199-1.6,4.799-1.6s3.732,0.533,5.332,2.666l2.666-3.199c-2.133-2.133-4.799-3.199-7.998-3.199
				s-5.865,1.066-7.998,3.199s-3.199,4.799-3.199,7.998c0,3.198,1.066,5.864,3.199,7.997s4.799,3.199,7.998,3.199
				s6.398-1.6,9.064-4.266l-2.666-3.198C863.784,363.259,862.185,364.325,860.052,364.325z"/>
			<path fill="#000000" d="M886.178,346.73l-6.397,15.995l-6.398-15.995h-4.799c5.865,14.396,9.064,21.86,9.064,22.394
				s-0.533,1.6-1.066,2.133s-1.6,1.066-2.666,1.066s-1.6-0.533-3.199-1.6l-2.133,3.732c1.6,1.6,3.199,2.133,5.332,2.133
				c1.6,0,2.666-0.533,3.732-1.066s2.133-1.6,2.666-3.199l10.13-25.593H886.178L886.178,346.73z"/>
		</g>
	</g>
</g>
</svg>
