<?xml version="1.0" encoding="utf-8"?>
<!-- Generator: Adobe Illustrator 16.0.0, SVG Export Plug-In . SVG Version: 6.00 Build 0)  -->
<!DOCTYPE svg PUBLIC "-//W3C//DTD SVG 1.1//EN" "http://www.w3.org/Graphics/SVG/1.1/DTD/svg11.dtd">
<svg version="1.1" id="Layer_1" xmlns="http://www.w3.org/2000/svg" xmlns:xlink="http://www.w3.org/1999/xlink" x="0px" y="0px"
	 width="315px" height="78.995px" viewBox="0 0 315 78.995" enable-background="new 0 0 315 78.995" xml:space="preserve">
<g>
	<path fill-rule="evenodd" clip-rule="evenodd" fill="#FFFFFF" d="M51.909,1.103c2.049,3.562,4.097,7.122,6.491,11.284
		c-10.521,0-20.434,0.115-30.342-0.069c-3.037-0.057-4.913,0.792-6.313,3.563c-2.469,4.887-7.332,9.601-7.347,14.397
		c-0.015,4.784,4.843,9.508,7.27,14.403c1.39,2.805,3.266,3.616,6.295,3.56c9.822-0.183,19.65-0.068,30.076-0.068
		c-1.413,4.176-3.949,7.41-5.894,10.928c-0.684,1.236-1.991,1.008-3.137,1.009c-9.661,0.01-19.324-0.077-28.983,0.064
		c-2.453,0.036-3.487-1.18-4.565-3.029C10.366,48.395,5.164,39.709,0,31c0-0.667,0-1.333,0-2c3.988-8.853,9.197-17.025,14.12-25.357
		c1.02-1.727,2.257-3.298,4.625-3.133c9.457,0.013,18.904-0.027,28.351,0.034C48.699,0.554,50.415,0.007,51.909,1.103z"/>
	<path fill-rule="evenodd" clip-rule="evenodd" fill="#FFFFFF" d="M315,72c-5.98-0.067-11.963-0.267-17.938-0.144
		c-2.849,0.058-4.174-0.446-4.085-3.766c0.236-8.806,0.166-17.622,0.029-26.432c-0.042-2.684,0.541-3.92,3.539-3.787
		c5.805,0.259,11.625,0.183,17.439,0.245c0.814,1.674,0.658,3.37,0.121,5.073c-2.666,1.93-5.768,1.032-8.688,1.301
		c-1.921,0.178-3.764,0.397-3.711,2.969c0.051,2.467,1.797,2.886,3.752,3.018c1.819,0.123,3.654,0.013,5.455,0.404
		c2.096,0.457,3.111,1.696,3.023,3.88c-0.08,2.001-1.209,2.978-3.028,3.373c-1.8,0.392-3.636,0.296-5.457,0.371
		c-2.265,0.094-3.847,0.854-3.874,3.481c-0.027,2.629,1.502,3.337,3.795,3.529c3.236,0.271,6.702-0.821,9.627,1.483
		C315,68.667,315,70.333,315,72z"/>
	<path fill-rule="evenodd" clip-rule="evenodd" fill="#FFFFFF" d="M69.987,78.995c-11.637-0.006-23.273-0.011-34.91-0.016
		c-2.051-3.369-4.102-6.738-6.714-11.031c9.916,0,18.967-0.338,27.976,0.131c5.202,0.271,7.515-2.001,10.522-5.947
		c6.524-8.561,6.277-15.846-0.135-24.282c-2.873-3.78-5.001-6.091-10.116-5.804c-9.063,0.508-18.174,0.143-28.09,0.143
		c2.197-3.824,4.048-6.916,5.762-10.081c0.973-1.797,2.478-1.874,4.222-1.866c9.322,0.047,18.645,0.086,27.965-0.022
		c2.261-0.026,3.648,0.636,4.791,2.667c4.727,8.404,9.585,16.734,14.477,25.045c0.831,1.411,1.138,2.474,0.198,4.038
		C80.55,60.936,75.29,69.978,69.987,78.995z"/>
	<path fill-rule="evenodd" clip-rule="evenodd" fill="#FFFFFF" d="M257.141,50.896c0,5.82-0.092,11.643,0.043,17.46
		c0.058,2.5-0.602,3.528-3.33,3.531c-2.773,0.002-3.789-0.727-3.73-3.649c0.176-8.649,0.016-17.306,0.104-25.958
		c0.019-1.721-1.062-4.585,2.339-4.265c2.755,0.259,6.358-1.901,7.818,2.893c2.126,6.976,4.77,13.793,7.636,21.938
		c2.835-7.891,5.336-14.733,7.735-21.612c0.629-1.799,1.071-3.208,3.533-3.377c6.393-0.438,6.607-0.382,6.607,6.165
		c0.001,7.988-0.078,15.977,0.046,23.962c0.04,2.578-0.323,3.946-3.443,3.919c-2.937-0.026-3.673-1.035-3.582-3.786
		c0.183-5.535,0.054-11.08-1.015-16.836c-2.001,5.49-3.947,11.001-6.035,16.459c-0.656,1.717-0.674,3.962-3.543,4.118
		c-3.176,0.174-3.334-2.227-4.053-4.129c-2.141-5.677-4.176-11.394-6.252-17.095C257.727,50.721,257.434,50.809,257.141,50.896z"/>
	<path fill-rule="evenodd" clip-rule="evenodd" fill="#FFFFFF" d="M232.04,1.068c2.966,0.01,5.932,0.019,8.897,0.027
		c0.023,9.973-0.046,19.946,0.129,29.916c0.049,2.803-0.734,3.685-3.613,3.744c-3.199,0.065-3.441-1.423-3.384-3.937
		c0.13-5.644,0.04-11.293-0.73-17.215c-2.059,5.527-4.054,11.079-6.211,16.566c-0.719,1.827-0.534,4.383-3.696,4.535
		c-3.53,0.17-3.383-2.688-4.142-4.639c-1.926-4.946-3.612-9.985-5.395-14.987c-2.198,0.159-1.345,1.884-1.368,2.954
		c-0.103,4.488-0.136,8.982-0.009,13.469c0.073,2.555-1.169,3.113-3.363,3.004c-1.874-0.094-3.747,0.159-3.651-2.688
		c0.346-10.265-0.629-20.553,0.526-30.805c2.923,0.086,5.845,0.171,8.767,0.257c2.663,7.813,5.325,15.624,8.359,24.526
		C226.385,16.811,229.213,8.939,232.04,1.068z"/>
	<path fill-rule="evenodd" clip-rule="evenodd" fill="#FFFFFF" d="M119.891,0.886c3.064,0.01,6.129,0.02,9.194,0.03
		c2.738,0.582,5,2.016,6.371,4.405c0.891,1.552,2.819,3.933,0.463,5.072c-1.653,0.8-4.939,1.956-6.143-1.754
		c-0.697-2.148-2.612-3.001-4.678-3.194c-2.695-0.253-5.15,0.524-5.915,3.402c-0.706,2.661,1.391,3.895,3.424,4.777
		c3.042,1.321,6.242,2.299,9.222,3.737c3.795,1.831,5.728,4.942,5.299,9.293c-0.418,4.249-3.207,6.352-6.908,7.609
		c-6.988,2.374-15.811-0.353-17.942-5.703c-0.527-1.323-2.059-3.613,0.129-4.239c1.749-0.5,4.755-1.8,5.901,1.473
		c0.887,2.532,2.71,3.777,5.192,4.002c2.712,0.245,5.627,0.193,6.551-3.075c0.955-3.378-1.514-4.74-4.156-5.73
		c-2.177-0.816-4.435-1.44-6.554-2.382c-3.971-1.765-7.427-4.176-7.188-9.146C112.387,4.641,115.503,2.116,119.891,0.886z"/>
	<path fill-rule="evenodd" clip-rule="evenodd" fill="#FFFFFF" d="M98.966,0.934c2.025-0.012,4.05-0.023,6.075-0.035
		c0.097,7.604,0.427,15.215,0.224,22.811c-0.19,7.1-5.563,11.324-13.64,11.319c-7.982-0.005-13.338-4.377-13.54-11.498
		c-0.211-7.468-0.024-14.946-0.011-22.42c2.28,0.005,4.561,0.01,6.841,0.014c0.011,6.971-0.019,13.941,0.046,20.911
		c0.047,5.032,2.221,7.624,6.377,7.821c4.413,0.209,7.094-2.41,7.271-7.554C98.854,15.184,98.858,8.057,98.966,0.934z"/>
	<path fill-rule="evenodd" clip-rule="evenodd" fill="#FFFFFF" d="M141.013,1.022c8.649,0.015,17.297,0.028,25.947,0.042
		c0.743,3.752-0.448,5.67-4.578,4.925c-4.064-0.733-5.464,0.854-5.23,5.069c0.366,6.618-0.008,13.274,0.147,19.909
		c0.064,2.721-0.631,3.784-3.584,3.786c-3.136,0.002-3.474-1.46-3.432-3.986c0.111-6.637-0.193-13.287,0.125-19.91
		c0.188-3.905-0.958-5.589-4.917-4.874C141.325,6.734,140.125,4.824,141.013,1.022z"/>
	<path fill-rule="evenodd" clip-rule="evenodd" fill="#FFFFFF" d="M110.853,54.71c-0.021-10.744,3.391-15.984,11.18-17.202
		c6.226-0.974,12.372,2.45,13.563,7.539c0.228,0.975,0.68,2.156-0.445,2.658c-1.533,0.685-1.75-0.618-2.266-1.75
		c-2.262-4.96-5.552-6.783-10.655-5.932c-4.915,0.821-7.666,4.07-8.2,8.775c-0.447,3.934-0.503,8.015,0.009,11.933
		c1.035,7.912,10.053,11.757,16.875,7.584c3.638-2.226,2.113-5.648,2.098-8.564c-0.017-3.369-2.985-1.509-4.632-1.938
		c-0.939-0.243-1.986-0.046-2.979-0.122c-0.727-0.056-1.288-0.521-1.276-1.245s0.589-1.192,1.318-1.201
		c2.991-0.035,5.983-0.046,8.974,0.005c0.435,0.007,0.993,0.288,1.274,0.625c1.805,2.164-0.146,12.607-2.705,14.09
		c-4.943,2.862-10.189,3.291-15.251,0.646c-4.638-2.423-6.783-6.672-6.878-11.909C110.833,57.372,110.853,56.041,110.853,54.71z"/>
	<path fill-rule="evenodd" clip-rule="evenodd" fill="#FFFFFF" d="M217.857,54.626c-0.001-4.318-0.072-8.64,0.043-12.955
		c0.033-1.294-0.869-3.493,1.378-3.575c2.31-0.085,1.563,2.128,1.575,3.445c0.066,7.807,0.159,15.618-0.029,23.421
		c-0.076,3.141,0.709,4.532,4.109,4.277c3.634-0.272,7.305-0.061,10.959-0.058c0.998,0.001,2.273-0.083,2.371,1.185
		c0.134,1.738-1.385,1.512-2.49,1.518c-4.982,0.025-9.97-0.097-14.949,0.048c-2.58,0.074-3.035-1.18-2.992-3.352
		C217.921,63.931,217.859,59.277,217.857,54.626z"/>
	<path fill-rule="evenodd" clip-rule="evenodd" fill="#FFFFFF" d="M167.978,55.676c0-3.651-0.21-7.317,0.062-10.948
		c0.253-3.391-0.726-4.743-4.34-4.549c-2.465,0.133-7.384,0.587-7.091-0.757c0.735-3.368,4.641-1.253,7.144-1.411
		c5.454-0.346,10.945-0.113,16.422-0.099c0.998,0.003,2.207,0.024,2.033,1.44c-0.125,1.018-1.209,0.881-2.012,0.927
		c-0.166,0.009-0.332-0.007-0.498,0.006c-8.798,0.704-8.797,0.704-8.798,9.398c0,6.473,0.009,12.944-0.008,19.416
		c-0.003,1.129,0.194,2.621-1.45,2.631c-1.662,0.01-1.451-1.489-1.456-2.612C167.965,64.637,167.977,60.156,167.978,55.676z"/>
	<path fill-rule="evenodd" clip-rule="evenodd" fill="#FFFFFF" d="M101.138,54.535c-0.001,4.829,0.021,9.657-0.018,14.486
		c-0.009,1.087,0.306,2.604-1.378,2.694c-1.707,0.093-1.581-1.362-1.582-2.511c-0.012-9.491-0.012-18.981,0.003-28.473
		c0.002-1.134-0.179-2.647,1.44-2.674c2.14-0.036,1.483,1.831,1.503,2.99C101.185,45.543,101.138,50.04,101.138,54.535z"/>
	<path fill-rule="evenodd" clip-rule="evenodd" fill="#FFFFFF" d="M149.725,54.505c-0.002,4.656,0.022,9.313-0.018,13.97
		c-0.011,1.265,0.335,3.099-1.444,3.214c-1.99,0.129-1.55-1.773-1.555-2.991c-0.038-9.147-0.043-18.294,0.008-27.441
		c0.006-1.185-0.597-3.121,1.354-3.148c2.321-0.031,1.601,2.096,1.626,3.426C149.777,45.855,149.727,50.181,149.725,54.505z"/>
	<path fill-rule="evenodd" clip-rule="evenodd" fill="#FFFFFF" d="M244.314,65.845c2.23-0.25,3.85-0.073,3.766,2.926
		c-0.066,2.354-0.777,3.292-3.134,3.087c-1.891-0.165-4.003,0.526-3.979-2.748C240.986,66.531,241.732,65.383,244.314,65.845z"/>
	<path fill-rule="evenodd" clip-rule="evenodd" fill="#FFFFFF" d="M198.92,14.364c-0.295-6.644-3.294-11.355-9.844-13.441
		c-3.039,0.014-6.077,0.027-9.115,0.04c-8.348,3.451-11.369,10.542-9.416,22.098c1.324,7.839,7.143,12.404,15.211,11.936
		c7.488-0.436,12.796-5.902,13.16-13.648C199.025,19.024,199.021,16.688,198.92,14.364z M191.354,24.919
		c-1.279,3.068-3.492,4.895-6.828,4.83c-3.321-0.064-5.632-1.86-6.596-5.077c-1.262-4.215-1.086-8.549-0.346-12.793
		c0.665-3.816,2.961-6.316,7.156-6.208c4.422,0.115,6.472,2.954,7.137,6.919c0.298,1.771,0.051,3.636,0.051,5.458
		C191.947,20.35,192.288,22.679,191.354,24.919z"/>
	<path fill-rule="evenodd" clip-rule="evenodd" fill="#FFFFFF" d="M210.802,69.821c-3.751-10.13-7.39-20.303-11.333-30.356
		c-0.971-2.478-2.863-2.156-3.801,0.309c-3.778,9.943-7.455,19.925-11.182,29.888c-0.301,0.803-0.669,1.664,0.408,2.047
		c0.842,0.3,1.69-0.062,2.053-0.941c0.759-1.843,1.404-3.73,2.15-5.578c0.423-1.048,0.593-2.651,1.877-2.711
		c4.312-0.198,8.699-0.564,12.934,0.022c2.855,0.395,2.268,4.05,3.436,6.13c0.48,0.857,0.76,1.863,1.375,2.597
		c0.311,0.369,1.188,0.418,1.766,0.332c0.246-0.037,0.388-0.788,0.523-1.093C210.903,70.138,210.859,69.978,210.802,69.821z
		 M191.205,59.49c2.02-5.544,4.016-11.02,6.421-17.618c2.358,6.444,4.319,11.8,6.45,17.618
		C199.688,59.49,195.695,59.49,191.205,59.49z"/>
</g>
</svg>
