<?xml version="1.0" encoding="utf-8"?>
<!-- Generator: Adobe Illustrator 16.0.0, SVG Export Plug-In . SVG Version: 6.00 Build 0)  -->
<!DOCTYPE svg PUBLIC "-//W3C//DTD SVG 1.1//EN" "http://www.w3.org/Graphics/SVG/1.1/DTD/svg11.dtd">
<svg version="1.1" id="Layer_1" xmlns="http://www.w3.org/2000/svg" xmlns:xlink="http://www.w3.org/1999/xlink" x="0px" y="0px"
	 width="276.891px" height="149.09px" viewBox="0 0 276.891 149.09" enable-background="new 0 0 276.891 149.09"
	 xml:space="preserve">
<g>
	<g>
		<g>
			<path id="a1SBV5Myaa" fill="#FFFFFF" d="M94.873,82.234l12.864,36.101l13.741-36.101h9.583l13.479,35.682l12.786-35.682h15.533
				l-22.964,63.446h-10.099l-13.653-36.159l-13.907,36.159h-9.991L79.418,82.234H94.873z"/>
		</g>
		<g>
			<g>
				<path id="a1SBV5Myaa_1_" fill="#FFFFFF" fill-opacity="0" stroke="#000000" stroke-opacity="0" d="M94.873,82.234l12.864,36.101
					l13.741-36.101h9.583l13.479,35.682l12.786-35.682h15.533l-22.964,63.446h-10.099l-13.653-36.159l-13.907,36.159h-9.991
					L79.418,82.234H94.873z"/>
			</g>
		</g>
	</g>
	<g>
		<g>
			<path id="d1r5G04hp3" fill="#FFFFFF" d="M214.559,95.254c-5.005,0-9.163,1.715-12.445,5.123c-3.312,3.428-4.967,7.889-4.967,13.4
				c0,5.639,1.655,10.196,4.967,13.663c3.282,3.486,7.44,5.22,12.445,5.22c4.86,0,8.94-1.772,12.262-5.298
				c3.33-3.545,4.976-8.044,4.976-13.526c0-5.435-1.626-9.895-4.898-13.361C223.656,96.988,219.536,95.254,214.559,95.254
				 M197.868,86.158c-2.172,2.736-3.584,6.126-4.305,10.109c1.432-3.555,3.613-6.545,6.496-9.028c2.239-1.87,4.616-3.35,7.128-4.431
				c3.351-1.412,6.935-2.123,10.732-2.123c8.268,0,15.299,3.126,21.094,9.359c5.794,6.252,8.677,14.257,8.677,24.034
				c0,9.417-2.989,17.306-8.979,23.636c-5.979,6.35-13.069,9.514-21.27,9.514c-3.642,0-7.051-0.652-10.196-1.947
				s-6.271-3.408-9.378-6.35c0,0.448,0,2.697,0,6.749h-15.894V43.007l15.894,6.593C197.868,71.531,197.868,83.724,197.868,86.158z
				 M197.868,27.571l-15.894-6.583V9.146l15.894,6.525V27.571z"/>
		</g>
		<g>
			<g>
				<path id="d1r5G04hp3_1_" fill="#FFFFFF" fill-opacity="0" stroke="#000000" stroke-opacity="0" d="M214.559,95.254
					c-5.005,0-9.163,1.715-12.445,5.123c-3.312,3.428-4.967,7.889-4.967,13.4c0,5.639,1.655,10.196,4.967,13.663
					c3.282,3.486,7.44,5.22,12.445,5.22c4.86,0,8.94-1.772,12.262-5.298c3.33-3.545,4.976-8.044,4.976-13.526
					c0-5.435-1.626-9.895-4.898-13.361C223.656,96.988,219.536,95.254,214.559,95.254 M197.868,86.158
					c-2.172,2.736-3.584,6.126-4.305,10.109c1.432-3.555,3.613-6.545,6.496-9.028c2.239-1.87,4.616-3.35,7.128-4.431
					c3.351-1.412,6.935-2.123,10.732-2.123c8.268,0,15.299,3.126,21.094,9.359c5.794,6.252,8.677,14.257,8.677,24.034
					c0,9.417-2.989,17.306-8.979,23.636c-5.979,6.35-13.069,9.514-21.27,9.514c-3.642,0-7.051-0.652-10.196-1.947
					s-6.271-3.408-9.378-6.35c0,0.448,0,2.697,0,6.749h-15.894V43.007l15.894,6.593C197.868,71.531,197.868,83.724,197.868,86.158z
					 M197.868,27.571l-15.894-6.583V9.146l15.894,6.525V27.571z"/>
			</g>
		</g>
	</g>
	<g>
		<g>
			<path id="bB0AI172z" fill="#FFFFFF" d="M74.256,34.32v13.634l51.927-32.284l101.476,42.09V44.137l-101.476-42.1L74.256,34.32z"/>
		</g>
		<g>
			<g>
				<path id="bB0AI172z_1_" fill="#FFFFFF" fill-opacity="0" stroke="#000000" stroke-opacity="0" d="M74.256,34.32v13.634
					l51.927-32.284l101.476,42.09V44.137l-101.476-42.1L74.256,34.32z"/>
			</g>
		</g>
	</g>
	<g>
		<g>
			<path id="a1wMMZYTLZ" fill="#FFFFFF" d="M126.143,64.782c2.337,0,4.236,1.89,4.236,4.236c0,2.337-1.899,4.236-4.236,4.236
				c-2.347,0-4.246-1.899-4.246-4.236S123.797,64.782,126.143,64.782"/>
		</g>
		<g>
			<g>
				<path id="a1wMMZYTLZ_1_" fill="#FFFFFF" fill-opacity="0" stroke="#000000" stroke-opacity="0" d="M126.143,64.782
					c2.337,0,4.236,1.89,4.236,4.236c0,2.337-1.899,4.236-4.236,4.236c-2.347,0-4.246-1.899-4.246-4.236
					S123.797,64.782,126.143,64.782"/>
			</g>
		</g>
	</g>
	<g>
		<g>
			<path id="f5I0OLgkfx" fill="#FFFFFF" d="M140.674,54.537c2.482-2.502,3.856-3.886,4.129-4.158
				c-4.792-4.752-11.385-7.693-18.659-7.693c-7.284,0-13.878,2.941-18.669,7.693c0.419,0.409,3.71,3.74,4.129,4.158
				c3.73-3.7,8.862-5.989,14.54-5.989C131.811,48.548,136.943,50.837,140.674,54.537"/>
		</g>
		<g>
			<g>
				<path id="f5I0OLgkfx_1_" fill="#FFFFFF" fill-opacity="0" stroke="#000000" stroke-opacity="0" d="M140.674,54.537
					c2.482-2.502,3.856-3.886,4.129-4.158c-4.792-4.752-11.385-7.693-18.659-7.693c-7.284,0-13.878,2.941-18.669,7.693
					c0.419,0.409,3.71,3.74,4.129,4.158c3.73-3.7,8.862-5.989,14.54-5.989C131.811,48.548,136.943,50.837,140.674,54.537"/>
			</g>
		</g>
	</g>
	<g>
		<g>
			<path id="bvHhkGWAm" fill="#FFFFFF" d="M132.883,62.396c2.474-2.503,3.847-3.886,4.119-4.158
				c-2.785-2.766-6.622-4.48-10.858-4.48c-4.246,0-8.083,1.705-10.868,4.48c0.409,0.408,3.71,3.739,4.119,4.158
				c1.733-1.724,4.119-2.785,6.749-2.785C128.772,59.611,131.149,60.673,132.883,62.396"/>
		</g>
		<g>
			<g>
				<path id="bvHhkGWAm_1_" fill="#FFFFFF" fill-opacity="0" stroke="#000000" stroke-opacity="0" d="M132.883,62.396
					c2.474-2.503,3.847-3.886,4.119-4.158c-2.785-2.766-6.622-4.48-10.858-4.48c-4.246,0-8.083,1.705-10.868,4.48
					c0.409,0.408,3.71,3.739,4.119,4.158c1.733-1.724,4.119-2.785,6.749-2.785C128.772,59.611,131.149,60.673,132.883,62.396"/>
			</g>
		</g>
	</g>
	<g>
		<g>
			<path id="cqq5L3MoV" fill="#FFFFFF" d="M126.143,31.623c10.313,0,19.662,4.158,26.45,10.897c-0.409,0.418-3.711,3.74-4.12,4.158
				c-5.735-5.687-13.624-9.202-22.33-9.202c-8.716,0-16.604,3.516-22.341,9.202c-0.408-0.418-3.71-3.739-4.119-4.158
				C106.471,35.781,115.82,31.623,126.143,31.623"/>
		</g>
		<g>
			<g>
				<path id="cqq5L3MoV_1_" fill="#FFFFFF" fill-opacity="0" stroke="#000000" stroke-opacity="0" d="M126.143,31.623
					c10.313,0,19.662,4.158,26.45,10.897c-0.409,0.418-3.711,3.74-4.12,4.158c-5.735-5.687-13.624-9.202-22.33-9.202
					c-8.716,0-16.604,3.516-22.341,9.202c-0.408-0.418-3.71-3.739-4.119-4.158C106.471,35.781,115.82,31.623,126.143,31.623"/>
			</g>
		</g>
	</g>
	<g>
		<g>
			<path id="d60ycALmGT" fill="#FFFFFF" d="M264.518,126.087c5.415,0,9.798,4.382,9.798,9.797s-4.383,9.797-9.798,9.797
				c-5.404,0-9.797-4.382-9.797-9.797S259.114,126.087,264.518,126.087"/>
		</g>
		<g>
			<g>
				<path id="d60ycALmGT_1_" fill="#FFFFFF" fill-opacity="0" stroke="#000000" stroke-opacity="0" d="M264.518,126.087
					c5.415,0,9.798,4.382,9.798,9.797s-4.383,9.797-9.798,9.797c-5.404,0-9.797-4.382-9.797-9.797S259.114,126.087,264.518,126.087"
					/>
			</g>
		</g>
	</g>
	<g>
		<g>
			<path id="a1LBlDUwhw" fill="#FFFFFF" d="M37.746,95.254c-4.938,0-9.047,1.734-12.29,5.221c-3.263,3.467-4.898,7.927-4.898,13.361
				c0,5.482,1.655,9.981,4.977,13.526c3.33,3.525,7.411,5.298,12.271,5.298c4.996,0,9.154-1.733,12.446-5.22
				c3.301-3.467,4.956-8.024,4.956-13.663c0-5.512-1.655-9.973-4.956-13.4C46.959,96.969,42.781,95.254,37.746,95.254
				 M70.38,145.681H54.487c0-4.052,0-6.301,0-6.749c-3.107,2.941-6.233,5.055-9.359,6.35s-6.524,1.947-10.177,1.947
				c-8.22,0-15.309-3.164-21.308-9.514c-5.989-6.33-8.979-14.219-8.979-23.636c0-9.777,2.912-17.782,8.706-24.034
				c5.795-6.233,12.826-9.359,21.104-9.359c3.828,0,7.392,0.711,10.732,2.123c0.448,0.195,0.876,0.389,1.305,0.604
				c5.854,2.98,10.021,7.217,12.28,12.855c-0.721-3.983-2.133-7.373-4.304-10.109c0-2.639,0-15.824,0-39.548l15.893-9.885V145.681z"
				/>
		</g>
		<g>
			<g>
				<path id="a1LBlDUwhw_1_" fill="#FFFFFF" fill-opacity="0" stroke="#000000" stroke-opacity="0" d="M37.746,95.254
					c-4.938,0-9.047,1.734-12.29,5.221c-3.263,3.467-4.898,7.927-4.898,13.361c0,5.482,1.655,9.981,4.977,13.526
					c3.33,3.525,7.411,5.298,12.271,5.298c4.996,0,9.154-1.733,12.446-5.22c3.301-3.467,4.956-8.024,4.956-13.663
					c0-5.512-1.655-9.973-4.956-13.4C46.959,96.969,42.781,95.254,37.746,95.254 M70.38,145.681H54.487c0-4.052,0-6.301,0-6.749
					c-3.107,2.941-6.233,5.055-9.359,6.35s-6.524,1.947-10.177,1.947c-8.22,0-15.309-3.164-21.308-9.514
					c-5.989-6.33-8.979-14.219-8.979-23.636c0-9.777,2.912-17.782,8.706-24.034c5.795-6.233,12.826-9.359,21.104-9.359
					c3.828,0,7.392,0.711,10.732,2.123c0.448,0.195,0.876,0.389,1.305,0.604c5.854,2.98,10.021,7.217,12.28,12.855
					c-0.721-3.983-2.133-7.373-4.304-10.109c0-2.639,0-15.824,0-39.548l15.893-9.885V145.681z"/>
			</g>
		</g>
	</g>
</g>
</svg>
