<?xml version="1.0" encoding="utf-8"?>
<!-- Generator: Adobe Illustrator 16.0.0, SVG Export Plug-In . SVG Version: 6.00 Build 0)  -->
<!DOCTYPE svg PUBLIC "-//W3C//DTD SVG 1.1//EN" "http://www.w3.org/Graphics/SVG/1.1/DTD/svg11.dtd">
<svg version="1.1" id="Layer_1" xmlns="http://www.w3.org/2000/svg" xmlns:xlink="http://www.w3.org/1999/xlink" x="0px" y="0px"
	 width="180px" height="180px" viewBox="0 0 180 180" enable-background="new 0 0 180 180" xml:space="preserve">
<path fill="white" d="M150.647,0H29.728C13.311,0,0,13.309,0,29.728v120.919c0,16.417,13.311,29.728,29.728,29.728h120.919
	c16.417,0,29.728-13.311,29.728-29.728V29.728C180.375,13.309,167.064,0,150.647,0z M75.17,143.216
	c-19.094,0-33.334-15.077-39.365-41.711c-2.344-10.555-2.344-12.73,0.169-23.954c4.69-21.441,15.412-35.68,29.313-39.533
	c5.863-1.508,13.736-1.006,18.26,1.339c1.507,0.838,0.504,2.178-3.685,4.69c-15.077,9.549-22.448,34.005-17.423,58.295
	c3.352,15.412,8.209,25.127,15.077,29.146c6.366,4.021,9.548,4.188,13.737,1.006c3.016-2.177,3.016-2.344-1.34-1.506
	c-6.031,1.169-12.062-3.018-16.248-11.058l-3.35-6.7l8.877,1.006c8.879,0.837,9.046,0.837,14.91-6.033
	c6.03-7.034,8.709-13.903,10.554-27.47c1.338-9.213-1.51-17.925-5.696-17.758c-1.843,0-2.012,0.336-0.504,1.006
	c1.173,0.503,3.015,2.68,3.854,5.026c1.341,3.517,1.006,4.689-1.842,6.7c-3.688,2.512-4.356,9.213-1.845,16.081
	c1.173,3.016,0.671,5.362-2.008,9.551l-3.519,5.526l-2.345-5.696c-1.343-3.183-2.848-10.719-3.35-16.752
	c-0.839-13.232,2.007-20.101,9.883-23.284c7.873-3.35,13.232,0.167,16.248,10.889c4.188,14.741-3.016,43.051-14.74,57.793
	C93.263,136.682,81.872,143.216,75.17,143.216z M118.222,129.146c-3.015-0.67-6.866-2.01-8.542-3.184
	c-2.681-2.009-2.681-3.015-0.838-8.207l2.179-5.863l5.861,3.852c6.867,4.857,17.254,5.361,20.604,1.173
	c2.18-2.512,2.012-2.512-1.338-0.839c-4.188,2.347-7.204,2.514-10.22,0.505c-1.675-1.004-1.006-2.682,3.016-6.7
	c5.192-5.027,5.361-5.696,4.69-16.585c-0.335-6.197-1.842-13.735-3.518-16.919c-3.35-6.7-3.35-6.867-1.006-6.867
	c1.006,0,4.356,2.513,7.371,5.528C156.584,95.139,143.519,133.835,118.222,129.146z"/>
</svg>
