<?xml version="1.0" encoding="utf-8"?>
<!-- Generator: Adobe Illustrator 16.0.0, SVG Export Plug-In . SVG Version: 6.00 Build 0)  -->
<!DOCTYPE svg PUBLIC "-//W3C//DTD SVG 1.1//EN" "http://www.w3.org/Graphics/SVG/1.1/DTD/svg11.dtd">
<svg version="1.1" id="Layer_1" xmlns="http://www.w3.org/2000/svg" xmlns:xlink="http://www.w3.org/1999/xlink" x="0px" y="0px"
	 width="811.264px" height="925.874px" viewBox="0 0 811.264 925.874" enable-background="new 0 0 811.264 925.874"
	 xml:space="preserve">
<g>
	<g>
		<path fill-rule="evenodd" clip-rule="evenodd" fill="#FFFFFF" d="M500,0c1.204,2.231,3.237,0.854,4.803,0.929
			c24.164,1.162,47.952,4.749,70.604,13.324c15.031,5.69,28.874,14.017,41.888,23.555c9.496,6.959,18.615,14.352,27.436,22.187
			c7.06,6.272,13.899,12.755,20.27,19.651c19.316,20.909,36.916,43.168,50.914,68.071c0.574,1.022,1.646,1.669,1.896,2.714
			c2.099,8.748,9.272,9.847,16.459,11.696c10.189,2.623,20.109,6.228,29.115,11.891c3.581,2.251,5.489,6.016,7.355,9.458
			c10.906,20.126,21.507,40.432,28.533,62.33c4.028,12.554,7.54,25.224,8.835,38.461c0.707,7.229,1.808,14.42,1.882,21.699
			c0.156,15.265-2.541,30.123-7.179,44.578c-5.765,17.965-13.44,35.2-20.76,52.572c-5.15,12.227-10.681,24.306-15.06,36.856
			c-1.006,2.882-2.646,5.195-5.884,6.576c-8.121,3.461-15.594,8.346-24.563,11.477c2.418-23.557,3.085-46.928,2.333-70.292
			c-0.446-13.857-1.956-27.694-5.704-41.158c-0.169-0.606-0.274-1.307-0.146-1.907c0.478-2.251-2.693-4.967-0.547-6.234
			c1.942-1.147,4.329,1.664,6.568,2.604c1.84,0.772,3.193,2.577,6.436,3.17c-7.05-13.308-15.988-23.994-27.923-33.149
			c7.598-0.589,14.35,2.046,21.03,0.723c-25.438-18.784-54.242-24.149-86.477-19.468c9.378-9.048,19.773-15.841,24.396-29.146
			c-7.117,4.619-13.68,7.571-20.521,9.829c-9.203,3.036-18.598,5.311-28.146,7.047c-13.243,2.408-26.711,2.906-39.985,5
			c-0.321,0.051-0.664-0.02-0.995-0.048c-8.739-0.727-17.38,0.922-26.093,1.068c-20.698,0.348-41.404,0.66-62.085,1.244
			c-10.526,0.297-21.085,0.087-31.601,0.729c-14.104,0.86-28.263,1.388-42.268,3.114c-18.693,2.304-37.486,4.671-55.133,11.91
			c-5.425,2.226-10.787,4.756-15.793,7.782c-2.294,1.387-2.934,1.147-3.925-0.923c-7.235-15.12-17.541-27.938-29.804-39.221
			c-12.794-11.771-26.991-21.583-42.089-30.202c-17.986-10.267-37.028-17.93-56.838-23.72c-11.911-3.481-24.029-6.027-36.34-7.904
			c-16.877-2.574-33.855-2.581-50.691-1.605c-19.128,1.108-37.845,5.384-55.772,12.683c-12.667,5.158-24.664,11.499-37.158,19.711
			c5.928-14.423,13.019-26.757,21.111-38.571c6.669-9.736,17.648-12.665,27.512-16.973c13.177-5.756,27.304-8.798,41.484-11.054
			c11.097-1.766,22.372-1.038,33.578-1.06c15.137-0.029,29.863,2.598,44.646,5.785c22.622,4.877,44.038,12.941,64.484,23.35
			c18.245,9.287,35.457,20.439,51.321,33.568c2.946,2.438,5.507,5.438,9.959,8.242c-3.406-7.191-7.719-12.208-12.063-16.974
			c-12.107-13.282-26.495-23.854-41.914-32.947c-16.295-9.61-33.509-17.373-51.415-23.452c-11.646-3.954-23.516-7.354-35.638-9.482
			c-11.85-2.081-23.771-3.588-35.843-4.394c-8.333-0.557-16.467-0.121-24.712,0.213c-7.969,0.323-15.763,1.791-24.141,2.865
			c5.17-8.865,10.722-17.15,17.596-23.973c4.646-4.612,12.18-5.715,18.532-8.15c16.136-6.185,32.861-10.288,49.899-12.459
			c14.609-1.862,29.376-1.697,44.178-0.369c16.958,1.521,32.948,6.02,48.148,13.259c8.366,3.984,16.12,9.24,24,16.267
			c-32.883-11.702-65.553-14.567-99.009-10.742c80.564,6.666,147.508,36.565,188.957,110.298
			c-14.115-53.088-47.063-90.75-94.344-116.477c11.879-0.778,43.925,11.11,60.764,21.33c19.509,11.841,37.275,25.777,53.955,41.654
			c-2.905-4.765-5.451-9.801-8.796-14.235c-5.969-7.913-12.061-15.787-19.399-22.528c-18.276-16.787-38.973-29.554-62.089-38.782
			c-13.958-5.572-28.304-9.634-42.856-12.671c-9.009-1.88-18.379-2.755-27.703-3.448c-9.229-0.685-18.438-1.035-27.607-0.639
			c-24.891,1.073-49.21,5.157-72.012,15.89c-1.12,0.527-2.374,1.911-3.44,0.705c-1.375-1.555,0.725-2.23,1.48-3.041
			c13.549-14.552,30.11-24.993,46.945-35.276c13.56-8.283,28.339-10.996,43.557-13.533c21.875-3.647,43.865-3.275,65.798-2.592
			c11.948,0.372,23.974,1.836,35.924,3.52c8.51,1.198,17.058,2.731,25.76,2.716C341.377,50.995,303.4,46.405,264.1,48.421
			c2.816-1.139,5.637-2.264,8.445-3.421c2.856-1.177,5.669-2.464,8.553-3.567c21.654-8.282,43.186-16.892,65.428-23.559
			c13.497-4.045,27.123-7.412,40.995-9.936c14.778-2.689,29.609-4.673,44.548-6.25C437.344,1.131,442.944,2.606,448,0
			C465.334,0,482.667,0,500,0z"/>
		<path fill-rule="evenodd" clip-rule="evenodd" fill="#FFFFFF" d="M0,331c2.014-4.794,1.765-10.025,2.911-15.01
			c3.308-14.398,8.024-28.367,13.316-42.079c1.478-3.829,6.23-6.575,9.829-9.37c12.03-9.345,24.94-17.339,38.873-23.51
			c13.377-5.925,27.269-10.251,41.682-13.11c18.023-3.575,36.167-5.583,54.487-4.811c15.654,0.66,31.17,2.583,46.621,5.729
			c15.786,3.214,31.222,7.419,46.132,13.251c19.07,7.46,37.062,17.115,53.4,29.642c13.096,10.041,24.633,21.525,33.519,35.527
			c0.486,0.766,1.883,1.338,0.947,2.401c-0.651,0.741-1.758,0.044-2.671-0.014c-15.744-0.993-26.364-12.384-39.086-19.379
			c-15.176-8.345-30.868-15.136-47.685-19.221c-5.642-1.371-11.408-2.227-17.244-2.879c10.348,4.14,20.378,8.834,30.243,13.849
			c9.973,5.07,19.15,11.394,28.363,19.167c-7.617-0.719-14.279-2.229-20.893-3.41c-7.629-1.361-15.313-2.508-22.957-3.64
			c-19.294-2.855-38.799-4.232-58.253-2.973c-21.871,1.417-43.796,3.698-63.792,13.856c-12.634,6.418-22.657,16.161-29.309,28.519
			c-3.864,7.179-4.483,15.794-4.518,25.147c3.565-6.172,5.783-12.185,10.946-16.405c-2.079,5.946-1.092,12.11-1.62,18.149
			c-2.083,23.821-3.162,47.757-2.007,71.656c0.364,7.529-0.01,15.226,1.735,22.708c0.685,2.939-0.344,3.81-3.219,2.309
			c-7.56-3.944-15.131-7.877-22.806-11.591c-4.784-2.314-5.177-7.412-6.716-11.248c-4.998-12.46-9.894-25.013-13.488-37.994
			c-4.042-14.601-8.904-29.021-8.763-44.468c0.227-24.913,16.88-49.167,39.938-57.855c0.516-0.195,1.192,0.033,1.708-0.515
			c-6.628,0.22-12.912,1.985-19.112,4.507c-22.244,9.045-35.992,25.828-42.92,48.202c-3.61,11.657-5.057,23.813-2.702,36.178
			c0.707,3.709,0.528,7.583,2.034,11.191c0.263,0.63,0.112,1.84-0.337,2.27c-0.756,0.722-1.397-0.253-2.043-0.722
			c-11.354-8.24-19.29-18.805-22.592-32.647C1.359,359.934,1.768,357.167,0,355C0,347,0,339,0,331z"/>
		<path fill-rule="evenodd" clip-rule="evenodd" fill="#FFFFFF" d="M779.149,525.127c-0.521-12.684-0.118-25.392-0.995-38.093
			c-0.318-4.603-1.78-6.511-6.132-8.166c-25.751-9.801-52.645-14.341-79.759-17.764c-12.52-1.58-25.169-2.861-37.767-2.924
			c-18.52-0.091-37.045-0.857-55.6,0.616c-12.429,0.986-24.86,1.789-37.278,3.043c-7.966,0.805-16.01,1.68-23.706,3.347
			c-19.646,4.256-38.918,10.224-58.528,14.674c-20.225,4.589-40.181,11.164-61.488,9.268c-7.813-0.695-15.462-1.964-23.012-3.796
			c-20.458-4.964-40.851-10.19-61.264-15.337c-14.893-3.754-30-6.118-45.226-8.169c-14.273-1.922-28.615-3.129-42.907-3.558
			c-17.99-0.54-36.036-0.858-54.093,0.518c-12.435,0.948-24.855,1.863-37.272,3.101c-14.396,1.435-28.549,4.123-42.626,7.197
			c-11.516,2.515-22.88,5.797-33.877,10.086c-1.835,0.715-4.234,1.187-4.887,4.779c-1.443,7.935,0.08,15.797-0.732,22.128
			c0,7.679,0.565,13.913-0.168,19.99c-0.661,5.475,2.848,7.259,6.368,7.813c11.629,1.829,17.012,9.555,19.731,19.777
			c3.527,13.264,3.531,27.099,6.029,40.552c2.311,12.441,5.761,24.527,11.047,36.005c10.14,22.015,25.886,38.913,47.626,49.733
			c19.413,9.662,40.471,13.745,61.869,14.805c14.458,0.716,29.033,0.916,43.592-0.582c12.172-1.253,23.984-3.671,35.637-7.162
			c24.713-7.405,44.503-22.101,59.87-42.403c11.788-15.574,19.525-33.468,25.366-52.085c4.443-14.164,8.448-28.478,15.029-41.861
			c4.038-8.211,16.876-15.407,24.222-13.717c11.027,2.537,17.775,9.949,21.783,19.972c6.893,17.24,11.213,35.368,17.943,52.687
			c7.316,18.826,17.903,35.57,32.131,49.763c9.654,9.63,20.976,17.166,33.62,22.72c17.342,7.617,35.594,11.82,54.262,12.654
			c20.409,0.912,40.966,1.35,61.272-2.682c13.021-2.585,25.782-5.896,37.79-11.616c18.087-8.616,32.24-21.702,42.683-38.733
			c8.024-13.089,13.063-27.502,16.107-42.39c2.865-14.012,4.221-28.333,6.186-42.525c1.646-11.89,8.591-19.552,20.184-22.788
			C776.338,532.841,779.379,530.715,779.149,525.127z M369.013,568.011c-3.904,15.694-9.792,30.67-17.08,45.006
			c-12.453,24.497-31.582,41.663-58.2,49.587c-10.319,3.071-20.946,4.697-31.774,5.636c-9.235,0.802-18.464,1.196-27.589,0.594
			c-21.407-1.412-42.873-3.125-62.299-13.803c-12.022-6.607-21.385-15.711-28.355-27.644c-8.188-14.017-12.076-29.192-14.836-44.986
			c-2.689-15.389-4.463-30.804-3.773-46.373c0.542-12.219,2.767-24.2,13.034-32.573c9.23-7.526,20.268-11.827,31.637-14.277
			c11.214-2.417,22.675-4.366,33.488-4.207c8.529,0.304,16.136-1.539,23.894-1.015c12.378,0.836,24.812,1.002,37.157,2.152
			c12.861,1.198,25.694,2.921,38.45,4.974c15.241,2.452,30.731,4.756,44.516,12.061c13.616,7.215,22.973,17.864,24.961,34.373
			C373.529,548.183,371.509,557.979,369.013,568.011z M726.103,545.548c-1.165,24.3-3.998,48.41-13.441,71.02
			c-10.283,24.617-28.886,40.117-55.006,46.477c-11.68,2.844-23.462,4.269-35.445,5.222c-8.735,0.695-17.462,1.093-26.093,0.578
			c-23.739-1.416-46.782-5.504-66.875-19.791c-14.499-10.31-24.601-24.009-32.238-39.724c-8.715-17.932-15.775-36.633-18.803-56.289
			c-2.236-14.514,0.576-29.006,11.529-40.083c9.02-9.122,20.774-13.862,33.024-16.859c14.002-3.426,28.236-5.657,42.604-7.23
			c10.252-1.123,20.458-2.382,30.774-3.003c12.223-0.735,24.453-2.429,36.671-1.732c20.338,1.16,40.876,1.565,60.323,8.895
			c14.214,5.356,26.656,12.732,30.361,29.028C725.24,529.756,726.294,537.584,726.103,545.548z"/>
	</g>
	<g>
		<path fill-rule="evenodd" clip-rule="evenodd" fill="#FFFFFF" d="M167,825c2.646-14.739,5.188-29.499,8.053-44.196
			c0.418-2.146,1.818-4.03,5.181-3.935c11.818,0.334,23.657,0.354,35.474,0.003c3.862-0.114,3.905,2.139,3.281,4.129
			c-4.521,14.401-8.136,29.047-12.133,43.588c-4.945,17.99-9.898,35.978-14.846,53.967c-0.741,2.694-1.853,5.249-2.307,8.069
			c-0.654,4.065-3.038,5.739-7.525,5.499c-8.139-0.437-16.324-0.305-24.479-0.048c-4.108,0.129-5.841-1.656-6.757-5.396
			c-4.266-17.403-8.674-34.771-13.085-52.138c-0.142-0.559-0.857-0.973-1.366-1.521c-4.277,16.66-8.435,33.204-12.915,49.66
			c-0.371,1.364-0.381,2.772-0.822,4.14c-1.186,3.678-2.957,5.501-7.271,5.294c-8.31-0.398-16.663-0.36-24.977-0.007
			c-3.858,0.165-5.617-2.057-6.359-4.762c-5.516-20.094-10.664-40.289-16.137-60.396c-3.998-14.691-8.299-29.3-12.495-43.937
			c-1.532-5.344-1.11-6.015,4.086-6.016c10.995-0.001,21.994,0.181,32.98-0.104c3.542-0.092,5.453,0.734,6.109,4.315
			c2.723,14.874,5.537,29.73,8.296,44.598c0.115,0.617,0.015,1.274,0.687,2.043c2.775-10.666,5.538-21.335,8.332-31.995
			c1.302-4.968,2.899-9.871,3.919-14.894c0.69-3.397,2.623-4.028,5.57-3.994c7.495,0.088,15.003,0.271,22.483-0.072
			c3.708-0.17,5.218,1.371,6.041,4.575c3.293,12.819,6.723,25.605,9.894,38.455c0.407,1.649,1.734,3.183,1.086,5.072
			c-0.201,1.428,0.367,2.369,1.763,2.811C167.28,826.896,166.875,825.926,167,825z"/>
		<path fill-rule="evenodd" clip-rule="evenodd" fill="#FFFFFF" d="M521,850.516c0,6.83-0.589,13.727,0.157,20.475
			c0.833,7.54-3.07,10.949-8.832,14.355c-13.575,8.023-28.394,10.188-43.457,8.423c-19.71-2.311-35.608-11.688-44.854-30.085
			c-3.765-7.49-6.042-15.502-6.02-24.024c0.023-9.367-0.422-18.713,2.959-27.795c7.066-18.984,20.064-31.062,39.875-35.906
			c15.946-3.9,31.29-1.98,46.035,4.556c9.581,4.247,8.176,4.672,5.278,12.039c-2.088,5.31-3.389,10.927-5.106,16.385
			c-1.054,3.35-2.524,4.868-6.606,3.147c-8.903-3.753-18-6.392-28.05-4.203c-10.033,2.184-15.67,8.653-18.134,17.725
			c-3.068,11.299-1.212,21.856,8.027,30.178c3.671,3.306,7.849,5.268,12.868,5.22c2.499-0.023,4.998-0.004,7.497-0.004
			c7.242-0.001,10.178-3.876,8.431-10.727c-0.491-1.925-1.654-1.223-2.605-1.241c-3.831-0.076-7.688-0.302-11.488,0.041
			c-4.032,0.364-5.032-1.632-4.983-5.039c0.093-6.479-0.96-12.854-1.724-19.261c-0.313-2.621,1.377-3.746,3.878-3.748
			c14.494-0.007,28.989,0.041,43.482-0.063c3.101-0.022,3.424,1.6,3.402,4.063C520.954,833.521,521.001,842.019,521,850.516z"/>
		<path fill-rule="evenodd" clip-rule="evenodd" fill="#FFFFFF" d="M676.52,852.887c3.378-13.732,6.621-27.406,10.162-41.002
			c1.009-3.873-0.097-9.364,3.676-11.213c3.364-1.648,8.072-0.623,12.188-0.656c6.828-0.057,13.657-0.012,20.486-0.02
			c3.321-0.004,4.512,0.546,3.143,4.596c-6.247,18.475-12.028,37.108-17.899,55.709c-4.745,15.033-8.012,30.62-15.337,44.705
			c-5.888,11.32-15.059,18.261-28.269,20.159c-12.634,1.815-24.202,0.271-35.304-6.088c-3.42-1.958-4.302-3.934-2.613-7.319
			c2.621-5.261,5.251-10.518,7.771-15.827c0.944-1.993,1.604-2.523,3.905-1.198c3.725,2.144,7.685,3.969,11.933,5.07
			c6.895,1.789,16.385-3.805,17.646-10.612c0.279-1.511-0.142-2.406-2.102-2.236c-2.645,0.229-5.383-0.302-7.976,0.127
			c-4.077,0.674-5.91-1.905-6.869-4.792c-8.682-26.128-17.158-52.324-25.733-78.488c-0.99-3.022-0.139-3.932,3.07-3.869
			c9.656,0.188,19.341,0.455,28.971-0.084c5.374-0.301,6.858,2.617,7.611,6.606c2.523,13.364,6.412,26.392,9.615,39.586
			C675.14,848.287,674.502,850.877,676.52,852.887z"/>
		<path fill-rule="evenodd" clip-rule="evenodd" fill="#FFFFFF" d="M619,845.897c0,13.821-0.113,27.645,0.075,41.463
			c0.05,3.733-1.14,4.947-4.832,4.711c-4.644-0.297-9.337-0.309-13.979,0.003c-3.766,0.253-5.643-1.043-6.302-4.787
			c-0.481-2.73-1.235-4.361-4.475-1.446c-14.702,13.229-49.553,12.752-56.73-14.584c-0.802-3.055-1.767-6.06-1.765-9.271
			c0.014-18.983,0.104-37.968-0.074-56.949c-0.036-3.821,0.871-5.272,4.939-5.126c8.315,0.3,16.651,0.214,24.974,0.027
			c3.283-0.073,4.256,1.076,4.228,4.288c-0.133,15.319-0.579,30.664,0.146,45.95c0.399,8.431,0.532,10.365,7.523,12.163
			c5.523,1.421,12.261-3.284,12.266-9.055c0.015-15.986,0.135-31.974-0.086-47.957c-0.056-4.019,0.784-5.617,5.159-5.428
			c8.145,0.352,16.318,0.249,24.473,0.03c3.478-0.094,4.574,1.008,4.53,4.506C618.898,818.254,619,832.076,619,845.897z"/>
		<path fill-rule="evenodd" clip-rule="evenodd" fill="#FFFFFF" d="M761.803,833.002c-7.389,0-14.551-0.093-21.708,0.037
			c-3.894,0.07-5.174-1.808-5.126-5.424c0.1-7.662,0.204-15.331-0.043-22.986c-0.122-3.76,1.184-4.734,4.843-4.708
			c22.155,0.159,44.312,0.073,66.468,0.084c4.998,0.002,6.279,1.84,3.801,6.19c-6.56,11.514-13.383,22.877-20.047,34.332
			c-3.679,6.322-7.249,12.708-11.101,19.473c8.955,0,17.48,0.162,25.995-0.067c4.402-0.118,6.317,1.365,6.175,5.934
			c-0.224,7.156-0.066,14.324-0.058,21.487c0.004,3.214-1.177,4.738-4.789,4.717c-23.487-0.137-46.977-0.052-70.466-0.106
			c-1.859-0.004-4.233,1.004-5.426-1.249c-1.228-2.318,0.396-4.176,1.54-6.107c9.607-16.222,19.167-32.472,28.719-48.727
			C761.053,835.077,761.32,834.153,761.803,833.002z"/>
		<path fill-rule="evenodd" clip-rule="evenodd" fill="#FFFFFF" d="M409.115,831.102c-6.441-30.029-40.499-41.401-63.114-27.388
			c0-9.632-0.067-19.231,0.044-28.829c0.031-2.646-0.628-3.958-3.557-3.922c-8.995,0.111-17.993,0.094-26.989,0.006
			c-2.508-0.023-3.533,0.813-3.529,3.43c0.051,37.985,0.053,75.972-0.01,113.957c-0.004,2.829,1.056,3.757,3.793,3.687
			c5.494-0.14,10.996-0.104,16.492-0.005c1.607,0.029,3.382-0.086,3.639-1.691c1.217-7.61,4.529-5.395,8.736-2.346
			c7.602,5.509,16.455,6.506,25.522,5.975c13.303-0.78,24.281-6.144,31.837-17.361C411.412,862.609,412.617,847.428,409.115,831.102
			z M369.185,861.226c-4.057,4.026-9.009,5.026-14.513,2.886c-5.874-2.284-9.149-6.199-8.689-12.763
			c0.116-1.657,0.018-3.329,0.018-5.547c0.374-3.294-0.86-7.295,0.956-10.996c2.824-5.755,7.635-8.575,15.097-7.796
			c4.606,0.481,11.138,6.264,12.025,11.064C375.622,846.428,375.788,854.67,369.185,861.226z"/>
		<path fill-rule="evenodd" clip-rule="evenodd" fill="#FFFFFF" d="M301.029,828.385c-4.259-14.578-13.114-24.826-28.041-28.78
			c-11.073-2.933-22.254-2.613-33.112,1.422c-11.581,4.305-19.932,11.78-25.08,23.405c-5.293,11.953-5.96,24.017-2.683,36.191
			c3.065,11.391,9.851,20.322,20.351,26.515c10.26,6.05,21.219,7.655,32.701,6.8c10.239-0.762,20.103-3.097,28.844-8.932
			c1.487-0.993,2.071-1.393,1.235-3.642c-2.203-5.926-4.131-11.979-6.087-17.997c-1.032-3.174-1.481-3.803-4.781-2.503
			c-8.718,3.437-17.864,4.821-27.284,4.161c-4.092-0.286-7.221-1.554-9.295-5.538c-1.647-3.164-0.848-3.571,2.198-3.527
			c7.993,0.115,15.989,0.039,23.983,0.04c7.995,0.002,15.99-0.059,23.983,0.034c2.89,0.033,4.903-0.871,4.985-3.974
			C303.154,844.108,303.3,836.158,301.029,828.385z M249.23,838.039c-3.232,0.061-3.597-0.359-2.465-3.795
			c1.846-5.605,5.941-7.486,10.765-8.12c4.474-0.587,7.939,1.86,10.718,5.501c1.561,2.045-0.419,4.551,1.962,6.376
			C262.864,838.001,256.045,837.912,249.23,838.039z"/>
	</g>
</g>
</svg>
