<?xml version="1.0" encoding="utf-8"?>
<!-- Generator: Adobe Illustrator 16.0.0, SVG Export Plug-In . SVG Version: 6.00 Build 0)  -->
<!DOCTYPE svg PUBLIC "-//W3C//DTD SVG 1.1//EN" "http://www.w3.org/Graphics/SVG/1.1/DTD/svg11.dtd">
<svg version="1.1" id="Layer_1" xmlns="http://www.w3.org/2000/svg" xmlns:xlink="http://www.w3.org/1999/xlink" x="0px" y="0px"
	 width="478.398px" height="222.74px" viewBox="0 0 478.398 222.74" enable-background="new 0 0 478.398 222.74"
	 xml:space="preserve">
<g>
	<path fill="#FFFFFF" d="M256.009,111.559c0-34.786,0.152-69.574-0.153-104.358c-0.051-5.584,1.621-6.538,6.74-6.507
		c36.717,0.219,73.438-0.101,110.154,0.195c23.781,0.193,44.908,8.85,63.234,23.479c18.4,14.689,32.153,33.38,38.064,56.358
		c10.024,38.974,3.034,74.412-24.229,105.255c-15.956,18.05-35.921,28.783-58.686,34.961c-5.049,1.373-10.468,1.906-15.722,1.93
		c-37.546,0.158-75.095-0.081-112.64,0.253c-6.006,0.052-6.955-1.658-6.908-7.208C256.15,181.133,256.009,146.345,256.009,111.559z"
		/>
	<path fill="#FFFFFF" d="M0,222.74C37.154,148.417,73.943,74.824,111.347,0c37.295,74.565,74.291,148.534,111.406,222.74
		C148.572,222.74,74.794,222.74,0,222.74z"/>
</g>
</svg>
