<?xml version="1.0" encoding="utf-8"?>
<!-- Generator: Adobe Illustrator 26.0.1, SVG Export Plug-In . SVG Version: 6.00 Build 0)  -->
<svg version="1.1" id="Layer_1" xmlns="http://www.w3.org/2000/svg" xmlns:xlink="http://www.w3.org/1999/xlink" x="0px" y="0px"
	 viewBox="0 0 500 234.9" style="enable-background:new 0 0 500 234.9;" xml:space="preserve">
<style type="text/css">
	.st0{fill-rule:evenodd;clip-rule:evenodd;fill:#ffffff;}
</style>
<g>
	<g>
		<path class="st0" d="M106.84,5.81c2.65-5.46,10.43-5.46,13.07,0l52.25,107.68c0.03,0.07,0.09,0.19,0.13,0.26l53.72,110.72
			c2.34,4.83-1.17,10.44-6.54,10.44H113.52c-0.08,0-0.21,0-0.29,0H7.28c-5.36,0-8.88-5.61-6.54-10.44l53.72-110.72
			c0.03-0.07,0.09-0.19,0.13-0.26L106.84,5.81z"/>
	</g>
	<path class="st0" d="M265.47,116.96c0-35.87,0.15-71.6-0.15-107.48c0-7.26,2.37-9.49,9.34-9.49c36.17,0.3,72.49,1.78,108.66,0.15
		c50.85-2.22,104.96,39.88,114.74,93.99c11.86,64.93-32.02,128.38-97.69,138.46c-6.52,1.04-13.34,0.89-20.01,0.89
		c-35.28,0.15-70.56-0.15-105.7,0.15c-7.26,0-9.34-2.37-9.34-9.34C265.62,188.56,265.47,152.69,265.47,116.96z"/>
</g>
</svg>
